<svg xmlns="http://www.w3.org/2000/svg" width="33.651" height="21.84" viewBox="0 0 33.651 21.84">
  <path id="Trazado_4" data-name="Trazado 4" d="M30.066,4.72H3.584A3.586,3.586,0,0,0,0,8.3V22.975A3.586,3.586,0,0,0,3.584,26.56H30.066a3.586,3.586,0,0,0,3.584-3.584V8.3A3.612,3.612,0,0,0,30.066,4.72Zm-25.424,5.9A1.045,1.045,0,0,1,5.68,9.578H27.97a1.038,1.038,0,0,1,0,2.076H5.68A1.032,1.032,0,0,1,4.642,10.616ZM14.3,22.368H5.68A.686.686,0,0,1,5.68,21H14.3a.681.681,0,0,1,.686.686A.694.694,0,0,1,14.3,22.368Zm0-3.937H5.68a.686.686,0,0,1,0-1.371H14.3a.681.681,0,0,1,.686.686A.694.694,0,0,1,14.3,18.431Zm12.83,3.976a2.663,2.663,0,0,1-1.9-.783,2.663,2.663,0,0,1-1.9.783,2.723,2.723,0,1,1,0-5.445,2.663,2.663,0,0,1,1.9.783,2.663,2.663,0,0,1,1.9-.783,2.723,2.723,0,1,1,0,5.445Z" transform="translate(0 -4.72)" fill="#65d6d0"/>
</svg>
