<svg xmlns="http://www.w3.org/2000/svg" width="63.48" height="63.577" viewBox="0 0 63.48 63.577">
  <g id="Grupo_89" data-name="Grupo 89" transform="translate(0)">
    <path id="Trazado_13" data-name="Trazado 13" d="M232.521,237.69c.446-16.375-13.159-31.881-31.718-31.807a31.788,31.788,0,0,0-.038,63.577C219.915,269.491,232.978,253.562,232.521,237.69Z" transform="translate(-169.052 -205.883)" fill="#65d6d0"/>
    <path id="Trazado_14" data-name="Trazado 14" d="M249.273,256.278s-7.451,3.906-9.066,4.925a.424.424,0,0,0-.19.468c.118,1.43.593,7.239.747,10.058,0,0,.1.858,1.766-.277l7.21-4.79a.535.535,0,0,0,.3-.465l.172-9.591S250.167,255.911,249.273,256.278Z" transform="translate(-209.575 -234.603)" fill="#fdfdfd"/>
    <path id="Trazado_15" data-name="Trazado 15" d="M204.44,279.234s.052,14.423,6.433,21.582c0,0,.465.623,1.294-.093,0,0,7.169-5.53,8.307-6.571a70.013,70.013,0,0,1-3.168-22.039s.035-.741-1.068-.22S207.5,277.269,204.44,279.234Z" transform="translate(-189.262 -243.475)" fill="#fdfdfd"/>
    <path id="Trazado_16" data-name="Trazado 16" d="M205.757,241.6a64.774,64.774,0,0,0-1.321,11.607s.257.76,1.442,0,12.284-7.809,18.9-10.847c0,0,.786-7.657,1.333-10.24,0,0,.235-.784-1.74-.1A93.266,93.266,0,0,0,205.757,241.6Z" transform="translate(-189.259 -220.652)" fill="#f2f2f2"/>
    <path id="Trazado_17" data-name="Trazado 17" d="M258.018,227.586c-.13,1.13-.779,6.906-.768,9.286,0,0-.062,1.074.864.588.83-.436,6.143-3.016,7.453-3.634a.5.5,0,0,0,.3-.392c.069-1.248.372-6.584.533-7.9,0,0,.1-.739-1.412-.282-1.434.435-4.718,1.2-6.653,2.009C258.23,227.308,258.052,227.35,258.018,227.586Z" transform="translate(-219.422 -216.862)" fill="#f2f2f2"/>
  </g>
</svg>
