<svg id="Grupo_15" data-name="Grupo 15" xmlns="http://www.w3.org/2000/svg" width="34.289" height="21.84" viewBox="0 0 34.289 21.84">
  <path id="Trazado_19" data-name="Trazado 19" d="M24.946,15.594a1.564,1.564,0,0,1-1.559,1.559H5.314l2.027,2.011a1.567,1.567,0,0,1,.016,2.2l-.016.016a1.567,1.567,0,0,1-2.2.016l-.016-.016L.449,16.7a1.8,1.8,0,0,1-.327-.515A1.56,1.56,0,0,1,.122,15a1.313,1.313,0,0,1,.327-.515L5.127,9.809a1.566,1.566,0,0,1,2.214,2.214L5.314,14.035H23.386A1.564,1.564,0,0,1,24.946,15.594Zm9.231-8.763a1.56,1.56,0,0,0,0-1.185,1.8,1.8,0,0,0-.327-.515L29.171.454a1.566,1.566,0,0,0-2.214,2.214l2.027,2.011H10.912a1.559,1.559,0,0,0,0,3.119H28.984L26.957,9.809a1.567,1.567,0,0,0-.016,2.2l.016.016a1.567,1.567,0,0,0,2.2.016l.016-.016,4.678-4.678A1.455,1.455,0,0,0,34.177,6.831Z" transform="translate(-0.005 0.002)" fill="#65d6d0"/>
</svg>
