<svg id="Grupo_16" data-name="Grupo 16" xmlns="http://www.w3.org/2000/svg" width="33.786" height="21.584" viewBox="0 0 33.786 21.584">
  <path id="Trazado_20" data-name="Trazado 20" d="M22.47,10.792a4.526,4.526,0,0,1,4.742-4.256H31.52C31.5,2.914,28.257,0,24.222,0H4.517A4.308,4.308,0,0,0,0,4.054V17.53a4.3,4.3,0,0,0,4.517,4.054H24.174c4.034,0,7.281-2.914,7.281-6.536H27.164A4.483,4.483,0,0,1,22.47,10.792Z" fill="#65d6d0"/>
  <path id="Trazado_21" data-name="Trazado 21" d="M21.43,5.05H18a3.506,3.506,0,0,0,0,7.012H21.43a2.524,2.524,0,0,0,2.712-2.251V7.33A2.472,2.472,0,0,0,21.43,5.05ZM18.4,10.085a1.5,1.5,0,1,1,1.5-1.5A1.5,1.5,0,0,1,18.4,10.085Z" transform="translate(9.643 2.236)" fill="#65d6d0"/>
</svg>
