<svg xmlns="http://www.w3.org/2000/svg" xmlns:xlink="http://www.w3.org/1999/xlink" width="477.744" height="412.256" viewBox="0 0 477.744 412.256">
  <defs>
    <linearGradient id="linear-gradient" x1="0.505" y1="0.108" x2="0.505" y2="0.889" gradientUnits="objectBoundingBox">
      <stop offset="0" stop-color="#33a8f5"/>
      <stop offset="0.376" stop-color="#358de4"/>
      <stop offset="0.748" stop-color="#3779d7"/>
      <stop offset="1" stop-color="#3872d3"/>
    </linearGradient>
  </defs>
  <g id="Grupo_886" data-name="Grupo 886" opacity="0.05">
    <path id="Trazado_539" data-name="Trazado 539" d="M721.982,384.818c-28.137,42.692-76.42,43.167-119.582,27.969-4.789-1.7-9.515-3.568-14.152-5.558-44.316-20.24-87.943,8.429-126.8,27.558-4.634,2.6-9.431,5.233-14.345,7.7-34.441,17.28-74.777,25.639-100.943-7.054-15.991-19.974-11.672-46.125-11.391-69.723.323-26.288-8.678-49.393-22.407-71.5-18.251-29.4-42.915-57.421-48.919-92.547C254.828,151.316,274.425,97.834,327.4,83.445c33.615-9.133,67.557,3.483,100.615,9.025,26.995,4.526,54.677-.658,80.1-9.816,4.648-1.667,9.284-3.437,13.92-5.252,30.762-12.076,61.309-26.445,93.648-30.976,28.868-4.051,54.9,3.908,65.423,33.443,9.225,25.888,1.97,54.43,5.892,81.081,2.162,14.689,7.524,28.165,13.948,41.256,11.133,22.677,25.406,44.171,31.664,68.778,1.792,7.044,3.3,14.335,4.43,21.74C741.823,324.25,739.628,358.073,721.982,384.818Z" transform="translate(-261.49 -45.444)" fill="url(#linear-gradient)"/>
  </g>
</svg>
