<svg xmlns="http://www.w3.org/2000/svg" width="369.54" height="63.577" viewBox="0 0 369.54 63.577">
  <g id="Grupo_652" data-name="Grupo 652" transform="translate(-31.46 -853.551)">
    <path id="Trazado_4" data-name="Trazado 4" d="M30.066,4.72H3.584A3.586,3.586,0,0,0,0,8.3V22.975A3.586,3.586,0,0,0,3.584,26.56H30.066a3.586,3.586,0,0,0,3.584-3.584V8.3A3.612,3.612,0,0,0,30.066,4.72Zm-25.424,5.9A1.045,1.045,0,0,1,5.68,9.578H27.97a1.038,1.038,0,0,1,0,2.076H5.68A1.032,1.032,0,0,1,4.642,10.616ZM14.3,22.368H5.68A.686.686,0,0,1,5.68,21H14.3a.681.681,0,0,1,.686.686A.694.694,0,0,1,14.3,22.368Zm0-3.937H5.68a.686.686,0,0,1,0-1.371H14.3a.681.681,0,0,1,.686.686A.694.694,0,0,1,14.3,18.431Zm12.83,3.976a2.663,2.663,0,0,1-1.9-.783,2.663,2.663,0,0,1-1.9.783,2.723,2.723,0,1,1,0-5.445,2.663,2.663,0,0,1,1.9.783,2.663,2.663,0,0,1,1.9-.783,2.723,2.723,0,1,1,0,5.445Z" transform="translate(98.46 873.064)" fill="#65d6d0"/>
    <g id="Grupo_90" data-name="Grupo 90" transform="translate(5.375 -3)">
      <path id="Trazado_17" data-name="Trazado 17" d="M7,10.169A5.085,5.085,0,1,0,1.92,5.076h0A5.1,5.1,0,0,0,7,10.169Z" transform="translate(27.35 880.784)" fill="#65d6d0"/>
      <path id="Trazado_18" data-name="Trazado 18" d="M2.173,17.538H14.367a2.181,2.181,0,0,0,2.173-2.173v-.5A8.273,8.273,0,0,0,0,14.884v.5a2.167,2.167,0,0,0,2.173,2.157Z" transform="translate(26.085 885.277)" fill="#65d6d0"/>
    </g>
    <g id="Grupo_15" data-name="Grupo 15" transform="translate(305 877.784)">
      <path id="Trazado_19" data-name="Trazado 19" d="M24.946,15.594a1.564,1.564,0,0,1-1.559,1.559H5.314l2.027,2.011a1.567,1.567,0,0,1,.016,2.2l-.016.016a1.567,1.567,0,0,1-2.2.016l-.016-.016L.449,16.7a1.8,1.8,0,0,1-.327-.515A1.56,1.56,0,0,1,.122,15a1.313,1.313,0,0,1,.327-.515L5.127,9.809a1.566,1.566,0,0,1,2.214,2.214L5.314,14.035H23.386A1.564,1.564,0,0,1,24.946,15.594Zm9.231-8.763a1.56,1.56,0,0,0,0-1.185,1.8,1.8,0,0,0-.327-.515L29.171.454a1.566,1.566,0,0,0-2.214,2.214l2.027,2.011H10.912a1.559,1.559,0,0,0,0,3.119H28.984L26.957,9.809a1.567,1.567,0,0,0-.016,2.2l.016.016a1.567,1.567,0,0,0,2.2.016l.016-.016,4.678-4.678A1.455,1.455,0,0,0,34.177,6.831Z" transform="translate(-0.005 0.002)" fill="#65d6d0"/>
    </g>
    <g id="Grupo_16" data-name="Grupo 16" transform="translate(367.214 878.231)">
      <path id="Trazado_20" data-name="Trazado 20" d="M22.47,10.792a4.526,4.526,0,0,1,4.742-4.256H31.52C31.5,2.914,28.257,0,24.222,0H4.517A4.308,4.308,0,0,0,0,4.054V17.53a4.3,4.3,0,0,0,4.517,4.054H24.174c4.034,0,7.281-2.914,7.281-6.536H27.164A4.483,4.483,0,0,1,22.47,10.792Z" fill="#65d6d0"/>
      <path id="Trazado_21" data-name="Trazado 21" d="M21.43,5.05H18a3.506,3.506,0,0,0,0,7.012H21.43a2.524,2.524,0,0,0,2.712-2.251V7.33A2.472,2.472,0,0,0,21.43,5.05ZM18.4,10.085a1.5,1.5,0,1,1,1.5-1.5A1.5,1.5,0,0,1,18.4,10.085Z" transform="translate(9.643 2.236)" fill="#65d6d0"/>
    </g>
    <g id="Grupo_89" data-name="Grupo 89" transform="translate(187.815 853.551)">
      <path id="Trazado_13" data-name="Trazado 13" d="M232.521,237.69c.446-16.375-13.159-31.881-31.718-31.807a31.788,31.788,0,0,0-.038,63.577C219.915,269.491,232.978,253.562,232.521,237.69Z" transform="translate(-169.052 -205.883)" fill="#65d6d0"/>
      <path id="Trazado_14" data-name="Trazado 14" d="M249.273,256.278s-7.451,3.906-9.066,4.925a.424.424,0,0,0-.19.468c.118,1.43.593,7.239.747,10.058,0,0,.1.858,1.766-.277l7.21-4.79a.535.535,0,0,0,.3-.465l.172-9.591S250.167,255.911,249.273,256.278Z" transform="translate(-209.575 -234.603)" fill="#fdfdfd"/>
      <path id="Trazado_15" data-name="Trazado 15" d="M204.44,279.234s.052,14.423,6.433,21.582c0,0,.465.623,1.294-.093,0,0,7.169-5.53,8.307-6.571a70.013,70.013,0,0,1-3.168-22.039s.035-.741-1.068-.22S207.5,277.269,204.44,279.234Z" transform="translate(-189.262 -243.475)" fill="#fdfdfd"/>
      <path id="Trazado_16" data-name="Trazado 16" d="M205.757,241.6a64.774,64.774,0,0,0-1.321,11.607s.257.76,1.442,0,12.284-7.809,18.9-10.847c0,0,.786-7.657,1.333-10.24,0,0,.235-.784-1.74-.1A93.266,93.266,0,0,0,205.757,241.6Z" transform="translate(-189.259 -220.652)" fill="#f2f2f2"/>
      <path id="Trazado_17-2" data-name="Trazado 17" d="M258.018,227.586c-.13,1.13-.779,6.906-.768,9.286,0,0-.062,1.074.864.588.83-.436,6.143-3.016,7.453-3.634a.5.5,0,0,0,.3-.392c.069-1.248.372-6.584.533-7.9,0,0,.1-.739-1.412-.282-1.434.435-4.718,1.2-6.653,2.009C258.23,227.308,258.052,227.35,258.018,227.586Z" transform="translate(-219.422 -216.862)" fill="#f2f2f2"/>
    </g>
  </g>
</svg>
