<svg id="main_illustration" data-name="main illustration" xmlns="http://www.w3.org/2000/svg" width="74.582" height="203.59" viewBox="0 0 74.582 203.59">
  <g id="Character" transform="translate(13.44)">
    <g id="Grupo_643" data-name="Grupo 643">
      <g id="Grupo_398" data-name="Grupo 398" transform="translate(1.138 190.284)">
        <g id="Grupo_361" data-name="Grupo 361">
          <g id="Grupo_360" data-name="Grupo 360">
            <g id="Grupo_359" data-name="Grupo 359">
              <path id="Trazado_250" data-name="Trazado 250" d="M282.71,462.37l-1.048,4.4s-7.2,9.346-9.416,8.889c-1.455-.3.333-2.738,3.07-9.837l.574-2.932Z" transform="translate(-271.727 -462.37)" fill="#455a64"/>
            </g>
          </g>
        </g>
        <g id="Grupo_365" data-name="Grupo 365" transform="translate(0.227 3.343)">
          <g id="Grupo_364" data-name="Grupo 364">
            <g id="Grupo_363" data-name="Grupo 363">
              <g id="Grupo_362" data-name="Grupo 362">
                <path id="Trazado_251" data-name="Trazado 251" d="M272.1,476.439a.934.934,0,0,0,.384.368,1.333,1.333,0,0,0,1.378-.191,40.178,40.178,0,0,0,3.581-3.393c1.332-1.4,2.452-2.743,3.239-3.734l.919-1.185.249-.323a.615.615,0,0,1,.094-.108.572.572,0,0,1-.073.123l-.23.337c-.2.291-.5.706-.888,1.211a46.528,46.528,0,0,1-3.217,3.767,35.135,35.135,0,0,1-3.625,3.381,1.7,1.7,0,0,1-.812.3,1.177,1.177,0,0,1-.639-.139.807.807,0,0,1-.3-.281A.4.4,0,0,1,272.1,476.439Z" transform="translate(-272.1 -467.873)" fill="#263238"/>
              </g>
            </g>
          </g>
        </g>
        <g id="Grupo_369" data-name="Grupo 369" transform="translate(1.246 8.834)">
          <g id="Grupo_368" data-name="Grupo 368">
            <g id="Grupo_367" data-name="Grupo 367">
              <g id="Grupo_366" data-name="Grupo 366">
                <path id="Trazado_252" data-name="Trazado 252" d="M273.777,476.98a1.161,1.161,0,0,1,.592-.065,3.086,3.086,0,0,1,1.356.471,2.49,2.49,0,0,1,.986,1.042,1.292,1.292,0,0,1,.156.575c-.022.006-.068-.218-.238-.533a2.648,2.648,0,0,0-.972-.973,3.423,3.423,0,0,0-1.3-.49C274,476.957,273.781,477,273.777,476.98Z" transform="translate(-273.777 -476.909)" fill="#263238"/>
              </g>
            </g>
          </g>
        </g>
        <g id="Grupo_373" data-name="Grupo 373" transform="translate(7.792 2.281)">
          <g id="Grupo_372" data-name="Grupo 372">
            <g id="Grupo_371" data-name="Grupo 371">
              <g id="Grupo_370" data-name="Grupo 370">
                <path id="Trazado_253" data-name="Trazado 253" d="M284.818,470.554a.739.739,0,0,1-.086-.21,3.874,3.874,0,0,1-.142-.6,3.276,3.276,0,0,1,.335-2,3.093,3.093,0,0,1,1.455-1.414,2.424,2.424,0,0,1,.594-.184.644.644,0,0,1,.227-.014,5.115,5.115,0,0,0-.782.28,3.179,3.179,0,0,0-1.379,1.39,3.385,3.385,0,0,0-.36,1.931C284.739,470.24,284.841,470.548,284.818,470.554Z" transform="translate(-284.551 -466.124)" fill="#263238"/>
              </g>
            </g>
          </g>
        </g>
        <g id="Grupo_377" data-name="Grupo 377" transform="translate(9.881 0.746)">
          <g id="Grupo_376" data-name="Grupo 376">
            <g id="Grupo_375" data-name="Grupo 375">
              <g id="Grupo_374" data-name="Grupo 374">
                <path id="Trazado_254" data-name="Trazado 254" d="M288.633,463.6c.032.012-.131.626-.266,1.4a4.782,4.782,0,0,1-.375,1.384c-.028-.011.116-.628.247-1.408A4.667,4.667,0,0,1,288.633,463.6Z" transform="translate(-287.989 -463.599)" fill="#263238"/>
              </g>
            </g>
          </g>
        </g>
        <g id="Grupo_381" data-name="Grupo 381" transform="translate(3.462 4.02)">
          <g id="Grupo_380" data-name="Grupo 380">
            <g id="Grupo_379" data-name="Grupo 379">
              <g id="Grupo_378" data-name="Grupo 378">
                <path id="Trazado_255" data-name="Trazado 255" d="M277.425,469.039a2.163,2.163,0,0,1,1.757.405c-.019.033-.38-.159-.863-.268S277.427,469.078,277.425,469.039Z" transform="translate(-277.425 -468.986)" fill="#263238"/>
              </g>
            </g>
          </g>
        </g>
        <g id="Grupo_385" data-name="Grupo 385" transform="translate(3.314 4.752)">
          <g id="Grupo_384" data-name="Grupo 384">
            <g id="Grupo_383" data-name="Grupo 383">
              <g id="Grupo_382" data-name="Grupo 382">
                <path id="Trazado_256" data-name="Trazado 256" d="M277.182,470.266a1.464,1.464,0,0,1,1.46.347c-.022.032-.309-.156-.712-.249S277.187,470.3,277.182,470.266Z" transform="translate(-277.182 -470.192)" fill="#263238"/>
              </g>
            </g>
          </g>
        </g>
        <g id="Grupo_389" data-name="Grupo 389" transform="translate(2.739 5.635)">
          <g id="Grupo_388" data-name="Grupo 388">
            <g id="Grupo_387" data-name="Grupo 387">
              <g id="Grupo_386" data-name="Grupo 386">
                <path id="Trazado_257" data-name="Trazado 257" d="M276.235,471.782a1.179,1.179,0,0,1,1.487.338,2.011,2.011,0,0,0-1.487-.338Z" transform="translate(-276.235 -471.645)" fill="#263238"/>
              </g>
            </g>
          </g>
        </g>
        <g id="Grupo_393" data-name="Grupo 393" transform="translate(3.957 1.947)">
          <g id="Grupo_392" data-name="Grupo 392">
            <g id="Grupo_391" data-name="Grupo 391">
              <g id="Grupo_390" data-name="Grupo 390">
                <path id="Trazado_258" data-name="Trazado 258" d="M278.24,467.385c0-.021.332-.09.845-.289a6.476,6.476,0,0,0,.868-.417c.157-.091.318-.193.478-.306s.307-.268.3-.438-.219-.264-.383-.222a1.052,1.052,0,0,0-.445.3c-.265.25-.491.488-.675.693-.368.411-.572.687-.588.675a.807.807,0,0,1,.122-.209c.087-.129.22-.31.4-.526a9.033,9.033,0,0,1,.662-.719,1.136,1.136,0,0,1,.5-.334.419.419,0,0,1,.542.338.72.72,0,0,1-.357.548,5.71,5.71,0,0,1-1.388.706,4.955,4.955,0,0,1-.637.174A.782.782,0,0,1,278.24,467.385Z" transform="translate(-278.24 -465.575)" fill="#263238"/>
              </g>
            </g>
          </g>
        </g>
        <g id="Grupo_397" data-name="Grupo 397" transform="translate(3.011 1.3)">
          <g id="Grupo_396" data-name="Grupo 396">
            <g id="Grupo_395" data-name="Grupo 395">
              <g id="Grupo_394" data-name="Grupo 394">
                <path id="Trazado_259" data-name="Trazado 259" d="M278.007,466.876a8.076,8.076,0,0,1-.132-.8,3.36,3.36,0,0,0-.245-.832,1.806,1.806,0,0,0-.269-.424c-.11-.125-.277-.231-.412-.153s-.153.275-.133.439a1.982,1.982,0,0,0,.14.483,2.77,2.77,0,0,0,.47.724c.334.37.594.547.58.566a.655.655,0,0,1-.19-.112,3.349,3.349,0,0,1-.457-.392,2.646,2.646,0,0,1-.512-.738,2,2,0,0,1-.157-.516.55.55,0,0,1,.2-.568.478.478,0,0,1,.569.18,1.851,1.851,0,0,1,.283.459,3.143,3.143,0,0,1,.227.868c.032.252.042.456.047.6A.711.711,0,0,1,278.007,466.876Z" transform="translate(-276.683 -464.509)" fill="#263238"/>
              </g>
            </g>
          </g>
        </g>
      </g>
      <g id="Grupo_496" data-name="Grupo 496" transform="translate(35.351 186.326)">
        <g id="Grupo_495" data-name="Grupo 495">
          <g id="Grupo_404" data-name="Grupo 404" transform="translate(0.151)">
            <g id="Grupo_403" data-name="Grupo 403">
              <g id="Grupo_402" data-name="Grupo 402">
                <g id="Grupo_401" data-name="Grupo 401">
                  <g id="Grupo_400" data-name="Grupo 400">
                    <g id="Grupo_399" data-name="Grupo 399">
                      <path id="Trazado_260" data-name="Trazado 260" d="M339.385,461.856l.033-5.868-10.992-.133-.14,8.584.681.052c3.031.205,15.426.829,17.461.239C348.7,464.072,339.385,461.856,339.385,461.856Z" transform="translate(-328.286 -455.855)" fill="#455a64"/>
                    </g>
                  </g>
                </g>
              </g>
            </g>
          </g>
          <g id="Grupo_410" data-name="Grupo 410" transform="translate(0 8.326)">
            <g id="Grupo_409" data-name="Grupo 409">
              <g id="Grupo_408" data-name="Grupo 408">
                <g id="Grupo_407" data-name="Grupo 407">
                  <g id="Grupo_406" data-name="Grupo 406">
                    <g id="Grupo_405" data-name="Grupo 405">
                      <path id="Trazado_261" data-name="Trazado 261" d="M328.037,469.562a1.024,1.024,0,0,0,.189.023l.543.04,2,.112c1.687.082,4.018.165,6.594.2s4.91.015,6.6-.022l2-.058.543-.025a1.081,1.081,0,0,0,.189-.018,1.092,1.092,0,0,0-.19-.009h-.544l-2,.015c-1.688.013-4.02.018-6.6-.017s-4.906-.1-6.592-.16l-2-.069-.544-.015A1.06,1.06,0,0,0,328.037,469.562Z" transform="translate(-328.037 -469.558)" fill="#263238"/>
                    </g>
                  </g>
                </g>
              </g>
            </g>
          </g>
          <g id="Grupo_416" data-name="Grupo 416" transform="translate(14.786 7.112)">
            <g id="Grupo_415" data-name="Grupo 415">
              <g id="Grupo_414" data-name="Grupo 414">
                <g id="Grupo_413" data-name="Grupo 413">
                  <g id="Grupo_412" data-name="Grupo 412">
                    <g id="Grupo_411" data-name="Grupo 411">
                      <path id="Trazado_262" data-name="Trazado 262" d="M352.39,469.27a2.9,2.9,0,0,1,1.076-1.7,1.778,1.778,0,0,0-1.076,1.7Z" transform="translate(-352.372 -467.561)" fill="#263238"/>
                    </g>
                  </g>
                </g>
              </g>
            </g>
          </g>
          <g id="Grupo_422" data-name="Grupo 422" transform="translate(11.523 6.174)">
            <g id="Grupo_421" data-name="Grupo 421" transform="translate(0 0)">
              <g id="Grupo_420" data-name="Grupo 420">
                <g id="Grupo_419" data-name="Grupo 419">
                  <g id="Grupo_418" data-name="Grupo 418">
                    <g id="Grupo_417" data-name="Grupo 417">
                      <ellipse id="Elipse_132" data-name="Elipse 132" cx="0.542" cy="0.067" rx="0.542" ry="0.067" transform="matrix(-0.547, 0.837, -0.837, -0.547, 0.704, 0.073)" fill="#263238"/>
                    </g>
                  </g>
                </g>
              </g>
            </g>
          </g>
          <g id="Grupo_428" data-name="Grupo 428" transform="translate(10.654 6.013)">
            <g id="Grupo_427" data-name="Grupo 427" transform="translate(0 0)">
              <g id="Grupo_426" data-name="Grupo 426">
                <g id="Grupo_425" data-name="Grupo 425">
                  <g id="Grupo_424" data-name="Grupo 424">
                    <g id="Grupo_423" data-name="Grupo 423">
                      <ellipse id="Elipse_133" data-name="Elipse 133" cx="0.461" cy="0.067" rx="0.461" ry="0.067" transform="translate(0.782 0.101) rotate(138.791)" fill="#263238"/>
                    </g>
                  </g>
                </g>
              </g>
            </g>
          </g>
          <g id="Grupo_434" data-name="Grupo 434" transform="translate(10.147 5.547)">
            <g id="Grupo_433" data-name="Grupo 433" transform="translate(0 0)">
              <g id="Grupo_432" data-name="Grupo 432">
                <g id="Grupo_431" data-name="Grupo 431">
                  <g id="Grupo_430" data-name="Grupo 430">
                    <g id="Grupo_429" data-name="Grupo 429">
                      <ellipse id="Elipse_134" data-name="Elipse 134" cx="0.574" cy="0.067" rx="0.574" ry="0.067" transform="translate(1.148 0.161) rotate(-178.63)" fill="#263238"/>
                    </g>
                  </g>
                </g>
              </g>
            </g>
          </g>
          <g id="Grupo_440" data-name="Grupo 440" transform="translate(9.964 4.863)">
            <g id="Grupo_439" data-name="Grupo 439">
              <g id="Grupo_438" data-name="Grupo 438">
                <g id="Grupo_437" data-name="Grupo 437">
                  <g id="Grupo_436" data-name="Grupo 436">
                    <g id="Grupo_435" data-name="Grupo 435">
                      <path id="Trazado_263" data-name="Trazado 263" d="M344.437,463.869a1.614,1.614,0,0,0,1.3.115,46.566,46.566,0,0,1-1.3-.115Z" transform="translate(-344.436 -463.859)" fill="#263238"/>
                    </g>
                  </g>
                </g>
              </g>
            </g>
          </g>
          <g id="Grupo_446" data-name="Grupo 446" transform="translate(11.966 5.208)">
            <g id="Grupo_445" data-name="Grupo 445">
              <g id="Grupo_444" data-name="Grupo 444">
                <g id="Grupo_443" data-name="Grupo 443">
                  <g id="Grupo_442" data-name="Grupo 442">
                    <g id="Grupo_441" data-name="Grupo 441">
                      <path id="Trazado_264" data-name="Trazado 264" d="M347.732,465.4a2.019,2.019,0,0,0,.707,0,4.124,4.124,0,0,0,.754-.156,2.047,2.047,0,0,0,.433-.172.381.381,0,0,0,.177-.218.278.278,0,0,0-.1-.284,1.3,1.3,0,0,0-1.606.358,1.265,1.265,0,0,0-.236.468.391.391,0,0,0-.021.191,2.01,2.01,0,0,1,.329-.6,1.279,1.279,0,0,1,.608-.385,1.1,1.1,0,0,1,.841.068c.111.084.066.216-.06.289a2.115,2.115,0,0,1-.4.165,4.839,4.839,0,0,1-.73.18C348,465.38,347.733,465.377,347.732,465.4Z" transform="translate(-347.732 -464.427)" fill="#263238"/>
                    </g>
                  </g>
                </g>
              </g>
            </g>
          </g>
          <g id="Grupo_452" data-name="Grupo 452" transform="translate(11.241 4.842)">
            <g id="Grupo_451" data-name="Grupo 451">
              <g id="Grupo_450" data-name="Grupo 450">
                <g id="Grupo_449" data-name="Grupo 449">
                  <g id="Grupo_448" data-name="Grupo 448">
                    <g id="Grupo_447" data-name="Grupo 447">
                      <path id="Trazado_265" data-name="Trazado 265" d="M347.447,465.2a.694.694,0,0,0,.088-.489,1.158,1.158,0,0,0-.187-.518.708.708,0,0,0-.583-.368.281.281,0,0,0-.222.323.776.776,0,0,0,.116.317,2.108,2.108,0,0,0,.328.431,1.014,1.014,0,0,0,.4.291c.013-.017-.139-.129-.331-.355a2.487,2.487,0,0,1-.29-.428c-.1-.151-.158-.419.019-.45.177-.015.355.163.461.306a1.152,1.152,0,0,1,.194.462A2.633,2.633,0,0,1,347.447,465.2Z" transform="translate(-346.539 -463.825)" fill="#263238"/>
                    </g>
                  </g>
                </g>
              </g>
            </g>
          </g>
          <g id="Grupo_458" data-name="Grupo 458" transform="translate(0.262 5.259)">
            <g id="Grupo_457" data-name="Grupo 457">
              <g id="Grupo_456" data-name="Grupo 456">
                <g id="Grupo_455" data-name="Grupo 455">
                  <g id="Grupo_454" data-name="Grupo 454">
                    <g id="Grupo_453" data-name="Grupo 453">
                      <path id="Trazado_266" data-name="Trazado 266" d="M328.469,464.577c0,.025.315-.026.811.039a3.445,3.445,0,0,1,2.85,2.331c.162.473.174.79.2.787a.633.633,0,0,0,0-.222,2.883,2.883,0,0,0-.112-.594,3.339,3.339,0,0,0-2.928-2.4,2.877,2.877,0,0,0-.6.008A.641.641,0,0,0,328.469,464.577Z" transform="translate(-328.469 -464.51)" fill="#263238"/>
                    </g>
                  </g>
                </g>
              </g>
            </g>
          </g>
          <g id="Grupo_464" data-name="Grupo 464" transform="translate(1.286 0.762)">
            <g id="Grupo_463" data-name="Grupo 463" transform="translate(0 0)">
              <g id="Grupo_462" data-name="Grupo 462" transform="translate(0)">
                <g id="Grupo_461" data-name="Grupo 461">
                  <g id="Grupo_460" data-name="Grupo 460">
                    <g id="Grupo_459" data-name="Grupo 459">
                      <ellipse id="Elipse_135" data-name="Elipse 135" cx="2.259" cy="0.067" rx="2.259" ry="0.067" transform="translate(0 4.517) rotate(-88.545)" fill="#263238"/>
                    </g>
                  </g>
                </g>
              </g>
            </g>
          </g>
          <g id="Grupo_470" data-name="Grupo 470" transform="translate(5.535 7.48)">
            <g id="Grupo_469" data-name="Grupo 469">
              <g id="Grupo_468" data-name="Grupo 468">
                <g id="Grupo_467" data-name="Grupo 467">
                  <g id="Grupo_466" data-name="Grupo 466">
                    <g id="Grupo_465" data-name="Grupo 465">
                      <path id="Trazado_267" data-name="Trazado 267" d="M337.147,468.178a9.029,9.029,0,0,0,3.212.072c0-.039-.721,0-1.606-.025S337.151,468.14,337.147,468.178Z" transform="translate(-337.147 -468.167)" fill="#263238"/>
                    </g>
                  </g>
                </g>
              </g>
            </g>
          </g>
          <g id="Grupo_476" data-name="Grupo 476" transform="translate(3.375 7.458)">
            <g id="Grupo_475" data-name="Grupo 475">
              <g id="Grupo_474" data-name="Grupo 474">
                <g id="Grupo_473" data-name="Grupo 473">
                  <g id="Grupo_472" data-name="Grupo 472">
                    <g id="Grupo_471" data-name="Grupo 471">
                      <path id="Trazado_268" data-name="Trazado 268" d="M333.6,468.133c-.027.027.057.153.128.318s.109.312.148.31.059-.173-.025-.363S333.622,468.107,333.6,468.133Z" transform="translate(-333.592 -468.129)" fill="#263238"/>
                    </g>
                  </g>
                </g>
              </g>
            </g>
          </g>
          <g id="Grupo_482" data-name="Grupo 482" transform="translate(2.54 6.406)">
            <g id="Grupo_481" data-name="Grupo 481" transform="translate(0 0)">
              <g id="Grupo_480" data-name="Grupo 480">
                <g id="Grupo_479" data-name="Grupo 479">
                  <g id="Grupo_478" data-name="Grupo 478">
                    <g id="Grupo_477" data-name="Grupo 477">
                      <ellipse id="Elipse_136" data-name="Elipse 136" cx="0.293" cy="0.067" rx="0.293" ry="0.067" transform="translate(0.407 0.516) rotate(-133.878)" fill="#263238"/>
                    </g>
                  </g>
                </g>
              </g>
            </g>
          </g>
          <g id="Grupo_488" data-name="Grupo 488" transform="translate(1.425 5.904)">
            <g id="Grupo_487" data-name="Grupo 487">
              <g id="Grupo_486" data-name="Grupo 486">
                <g id="Grupo_485" data-name="Grupo 485">
                  <g id="Grupo_484" data-name="Grupo 484">
                    <g id="Grupo_483" data-name="Grupo 483">
                      <path id="Trazado_269" data-name="Trazado 269" d="M330.384,465.633c.007.037.153.038.314.1s.276.146.3.122-.061-.177-.261-.247S330.373,465.6,330.384,465.633Z" transform="translate(-330.383 -465.573)" fill="#263238"/>
                    </g>
                  </g>
                </g>
              </g>
            </g>
          </g>
          <g id="Grupo_494" data-name="Grupo 494" transform="translate(0.579 5.657)">
            <g id="Grupo_493" data-name="Grupo 493" transform="translate(0 0)">
              <g id="Grupo_492" data-name="Grupo 492">
                <g id="Grupo_491" data-name="Grupo 491">
                  <g id="Grupo_490" data-name="Grupo 490">
                    <g id="Grupo_489" data-name="Grupo 489">
                      <ellipse id="Elipse_137" data-name="Elipse 137" cx="0.177" cy="0.067" rx="0.177" ry="0.067" transform="translate(0.329 0.256) rotate(-158.088)" fill="#263238"/>
                    </g>
                  </g>
                </g>
              </g>
            </g>
          </g>
        </g>
      </g>
      <g id="Grupo_519" data-name="Grupo 519" transform="translate(0 79.944)">
        <g id="Grupo_500" data-name="Grupo 500">
          <g id="Grupo_499" data-name="Grupo 499">
            <g id="Grupo_498" data-name="Grupo 498">
              <g id="Grupo_497" data-name="Grupo 497">
                <path id="Trazado_270" data-name="Trazado 270" d="M323.87,280.764l-4.216,110.159-17.117.36,2.843-95.45-19.253,96.179H269.854l20.965-111.024Z" transform="translate(-269.854 -280.764)" fill="#00393f"/>
              </g>
            </g>
          </g>
        </g>
        <g id="Grupo_503" data-name="Grupo 503" transform="translate(35.24 4.008)">
          <g id="Grupo_502" data-name="Grupo 502">
            <g id="Grupo_501" data-name="Grupo 501">
              <path id="Trazado_271" data-name="Trazado 271" d="M332.085,287.36a10.906,10.906,0,0,1-.2,1.816c-.16,1.115-.4,2.653-.685,4.348a18.246,18.246,0,0,1-.489,2.392A3.386,3.386,0,0,1,329.6,297.6a2.631,2.631,0,0,1-1.242.555,1,1,0,0,1-.5-.008,3.075,3.075,0,0,0,2.593-2.312,21.289,21.289,0,0,0,.456-2.357c.285-1.7.559-3.227.773-4.333A10.915,10.915,0,0,1,332.085,287.36Z" transform="translate(-327.855 -287.36)" fill="#455a64"/>
            </g>
          </g>
        </g>
        <g id="Grupo_506" data-name="Grupo 506" transform="translate(35.672 4.25)">
          <g id="Grupo_505" data-name="Grupo 505">
            <g id="Grupo_504" data-name="Grupo 504">
              <path id="Trazado_272" data-name="Trazado 272" d="M328.8,288.045c.038.027-.1.2-.022.5a.58.58,0,0,0,.286.368.518.518,0,0,0,.676-.594.582.582,0,0,0-.328-.332c-.278-.117-.471,0-.494-.042-.035-.016.158-.251.558-.162a.76.76,0,0,1,.524.439.775.775,0,0,1-1.066.936.758.758,0,0,1-.367-.577C328.533,288.17,328.791,288.008,328.8,288.045Z" transform="translate(-328.566 -287.76)" fill="#455a64"/>
            </g>
          </g>
        </g>
        <g id="Grupo_509" data-name="Grupo 509" transform="translate(26.468 3.048)">
          <g id="Grupo_508" data-name="Grupo 508">
            <g id="Grupo_507" data-name="Grupo 507">
              <path id="Trazado_273" data-name="Trazado 273" d="M313.665,288.84a3.222,3.222,0,0,1,.327-3.057c.081.037-.167.685-.252,1.52S313.751,288.821,313.665,288.84Z" transform="translate(-313.418 -285.781)" fill="#455a64"/>
            </g>
          </g>
        </g>
        <g id="Grupo_512" data-name="Grupo 512" transform="translate(28.516 2.787)">
          <g id="Grupo_511" data-name="Grupo 511">
            <g id="Grupo_510" data-name="Grupo 510">
              <path id="Trazado_274" data-name="Trazado 274" d="M317.046,288.54a3.739,3.739,0,0,1,.223-3.187,22.682,22.682,0,0,0-.223,3.187Z" transform="translate(-316.788 -285.351)" fill="#455a64"/>
            </g>
          </g>
        </g>
        <g id="Grupo_515" data-name="Grupo 515" transform="translate(46.438 3.115)">
          <g id="Grupo_514" data-name="Grupo 514">
            <g id="Grupo_513" data-name="Grupo 513">
              <path id="Trazado_275" data-name="Trazado 275" d="M346.313,289.2a122.433,122.433,0,0,0,.171-3.31,4.544,4.544,0,0,1-.171,3.31Z" transform="translate(-346.286 -285.891)" fill="#455a64"/>
            </g>
          </g>
        </g>
        <g id="Grupo_518" data-name="Grupo 518" transform="translate(48.685 2.923)">
          <g id="Grupo_517" data-name="Grupo 517">
            <g id="Grupo_516" data-name="Grupo 516">
              <path id="Trazado_276" data-name="Trazado 276" d="M350,288.953c-.082-.035.185-.755.244-1.679s-.095-1.674-.008-1.7a3.56,3.56,0,0,1-.236,3.377Z" transform="translate(-349.983 -285.576)" fill="#455a64"/>
            </g>
          </g>
        </g>
      </g>
      <g id="Grupo_587" data-name="Grupo 587" transform="translate(25.065)">
        <g id="Grupo_575" data-name="Grupo 575" transform="translate(3.389 6.451)">
          <g id="Grupo_574" data-name="Grupo 574">
            <g id="Grupo_530" data-name="Grupo 530">
              <g id="Grupo_529" data-name="Grupo 529">
                <g id="Grupo_528" data-name="Grupo 528">
                  <g id="Grupo_523" data-name="Grupo 523">
                    <g id="Grupo_522" data-name="Grupo 522">
                      <g id="Grupo_521" data-name="Grupo 521">
                        <g id="Grupo_520" data-name="Grupo 520">
                          <path id="Trazado_277" data-name="Trazado 277" d="M318.4,187.466l10.568-.844c.066-1.234-.022-6.007-.022-6.007s4.4-.684,4.451-5.08-.708-14.49-.708-14.49h0a15.278,15.278,0,0,0-15.352,1.93l-.651.5Z" transform="translate(-316.686 -159.803)" fill="#ffbe9d"/>
                        </g>
                      </g>
                    </g>
                  </g>
                  <g id="Grupo_527" data-name="Grupo 527" transform="translate(6.535 19.12)">
                    <g id="Grupo_526" data-name="Grupo 526">
                      <g id="Grupo_525" data-name="Grupo 525">
                        <g id="Grupo_524" data-name="Grupo 524">
                          <path id="Trazado_278" data-name="Trazado 278" d="M333.173,192.9a10.222,10.222,0,0,1-5.731-1.629s1.355,3.164,5.741,2.768Z" transform="translate(-327.442 -191.272)" fill="#eb996e"/>
                        </g>
                      </g>
                    </g>
                  </g>
                </g>
              </g>
            </g>
            <g id="Grupo_573" data-name="Grupo 573" transform="translate(5.622 4.399)">
              <g id="Grupo_572" data-name="Grupo 572">
                <g id="Grupo_563" data-name="Grupo 563" transform="translate(0.427 2.368)">
                  <g id="Grupo_562" data-name="Grupo 562">
                    <g id="Grupo_561" data-name="Grupo 561">
                      <g id="Grupo_540" data-name="Grupo 540" transform="translate(6.64)">
                        <g id="Grupo_534" data-name="Grupo 534" transform="translate(0.349 0.798)">
                          <g id="Grupo_533" data-name="Grupo 533">
                            <g id="Grupo_532" data-name="Grupo 532">
                              <g id="Grupo_531" data-name="Grupo 531">
                                <path id="Trazado_279" data-name="Trazado 279" d="M339.4,172.821a.627.627,0,0,1-.605.633.6.6,0,0,1-.647-.566.628.628,0,0,1,.6-.634A.6.6,0,0,1,339.4,172.821Z" transform="translate(-338.145 -172.253)" fill="#263238"/>
                              </g>
                            </g>
                          </g>
                        </g>
                        <g id="Grupo_539" data-name="Grupo 539">
                          <g id="Grupo_538" data-name="Grupo 538">
                            <g id="Grupo_537" data-name="Grupo 537">
                              <g id="Grupo_536" data-name="Grupo 536">
                                <g id="Grupo_535" data-name="Grupo 535">
                                  <path id="Trazado_280" data-name="Trazado 280" d="M340.052,171.6c-.078.082-.554-.27-1.229-.269s-1.171.34-1.244.257c-.036-.036.043-.184.259-.341a1.721,1.721,0,0,1,1-.307,1.654,1.654,0,0,1,.978.316C340.02,171.415,340.091,171.563,340.052,171.6Z" transform="translate(-337.571 -170.94)" fill="#263238"/>
                                </g>
                              </g>
                            </g>
                          </g>
                        </g>
                      </g>
                      <g id="Grupo_550" data-name="Grupo 550" transform="translate(0 0.126)">
                        <g id="Grupo_544" data-name="Grupo 544" transform="translate(0.166 0.83)">
                          <g id="Grupo_543" data-name="Grupo 543">
                            <g id="Grupo_542" data-name="Grupo 542">
                              <g id="Grupo_541" data-name="Grupo 541">
                                <path id="Trazado_281" data-name="Trazado 281" d="M328.168,173.082a.627.627,0,0,1-.605.633.6.6,0,0,1-.647-.566.628.628,0,0,1,.6-.634A.6.6,0,0,1,328.168,173.082Z" transform="translate(-326.915 -172.514)" fill="#263238"/>
                              </g>
                            </g>
                          </g>
                        </g>
                        <g id="Grupo_549" data-name="Grupo 549">
                          <g id="Grupo_548" data-name="Grupo 548">
                            <g id="Grupo_547" data-name="Grupo 547">
                              <g id="Grupo_546" data-name="Grupo 546">
                                <g id="Grupo_545" data-name="Grupo 545">
                                  <path id="Trazado_282" data-name="Trazado 282" d="M329.123,171.807c-.078.082-.554-.27-1.229-.268s-1.171.34-1.244.257c-.036-.036.043-.184.259-.341a1.72,1.72,0,0,1,1-.307,1.654,1.654,0,0,1,.978.316C329.091,171.622,329.161,171.771,329.123,171.807Z" transform="translate(-326.642 -171.148)" fill="#263238"/>
                                </g>
                              </g>
                            </g>
                          </g>
                        </g>
                      </g>
                      <g id="Grupo_555" data-name="Grupo 555" transform="translate(4.616 0.167)">
                        <g id="Grupo_554" data-name="Grupo 554">
                          <g id="Grupo_553" data-name="Grupo 553">
                            <g id="Grupo_552" data-name="Grupo 552">
                              <g id="Grupo_551" data-name="Grupo 551">
                                <path id="Trazado_283" data-name="Trazado 283" d="M334.556,176.843a4.471,4.471,0,0,1,1.1-.2c.173-.018.335-.052.365-.17a.878.878,0,0,0-.115-.512q-.243-.626-.51-1.314a22.6,22.6,0,0,1-1.146-3.436,22.669,22.669,0,0,1,1.419,3.336q.256.692.488,1.321a1,1,0,0,1,.089.677.433.433,0,0,1-.284.252,1.176,1.176,0,0,1-.293.041A4.39,4.39,0,0,1,334.556,176.843Z" transform="translate(-334.239 -171.214)" fill="#263238"/>
                              </g>
                            </g>
                          </g>
                        </g>
                      </g>
                      <g id="Grupo_560" data-name="Grupo 560" transform="translate(2.835 6.263)">
                        <g id="Grupo_559" data-name="Grupo 559">
                          <g id="Grupo_558" data-name="Grupo 558">
                            <g id="Grupo_557" data-name="Grupo 557">
                              <g id="Grupo_556" data-name="Grupo 556">
                                <path id="Trazado_284" data-name="Trazado 284" d="M331.418,181.248c.11-.006.111.727.739,1.247s1.408.44,1.414.543c.01.046-.174.142-.5.151a1.828,1.828,0,0,1-1.181-.411,1.589,1.589,0,0,1-.572-1.046C331.286,181.425,331.368,181.244,331.418,181.248Z" transform="translate(-331.308 -181.248)" fill="#263238"/>
                              </g>
                            </g>
                          </g>
                        </g>
                      </g>
                    </g>
                  </g>
                </g>
                <g id="Grupo_567" data-name="Grupo 567">
                  <g id="Grupo_566" data-name="Grupo 566">
                    <g id="Grupo_565" data-name="Grupo 565">
                      <g id="Grupo_564" data-name="Grupo 564">
                        <path id="Trazado_285" data-name="Trazado 285" d="M329.022,167.549c-.067.184-.741.1-1.534.192-.795.08-1.434.312-1.539.147-.047-.079.064-.252.323-.43a2.687,2.687,0,0,1,2.34-.258C328.9,167.318,329.05,167.462,329.022,167.549Z" transform="translate(-325.939 -167.043)" fill="#263238"/>
                      </g>
                    </g>
                  </g>
                </g>
                <g id="Grupo_571" data-name="Grupo 571" transform="translate(7 0.373)">
                  <g id="Grupo_570" data-name="Grupo 570">
                    <g id="Grupo_569" data-name="Grupo 569">
                      <g id="Grupo_568" data-name="Grupo 568">
                        <path id="Trazado_286" data-name="Trazado 286" d="M339.76,168.356c-.119.153-.584-.006-1.144-.013-.56-.027-1.034.1-1.142-.057-.048-.078.027-.231.234-.377a1.655,1.655,0,0,1,1.842.057C339.748,168.123,339.813,168.281,339.76,168.356Z" transform="translate(-337.46 -167.657)" fill="#263238"/>
                      </g>
                    </g>
                  </g>
                </g>
              </g>
            </g>
          </g>
        </g>
        <g id="Grupo_585" data-name="Grupo 585" transform="translate(1.003 14.54)">
          <g id="Grupo_579" data-name="Grupo 579">
            <g id="Grupo_578" data-name="Grupo 578">
              <g id="Grupo_577" data-name="Grupo 577">
                <g id="Grupo_576" data-name="Grupo 576">
                  <path id="Trazado_287" data-name="Trazado 287" d="M315.686,173.255c-.075-.032-3.02-.893-2.924,2.112a2.26,2.26,0,0,0,3.1,2.2C315.86,177.483,315.686,173.255,315.686,173.255Z" transform="translate(-312.759 -173.116)" fill="#ffbe9d"/>
                </g>
              </g>
            </g>
          </g>
          <g id="Grupo_584" data-name="Grupo 584" transform="translate(0.765 0.983)">
            <g id="Grupo_583" data-name="Grupo 583">
              <g id="Grupo_582" data-name="Grupo 582">
                <g id="Grupo_581" data-name="Grupo 581">
                  <g id="Grupo_580" data-name="Grupo 580">
                    <path id="Trazado_288" data-name="Trazado 288" d="M315.4,177.095c-.013-.009-.051.038-.139.082a.527.527,0,0,1-.391.021,1.3,1.3,0,0,1-.637-1.143,1.731,1.731,0,0,1,.123-.755.6.6,0,0,1,.381-.414.267.267,0,0,1,.314.134c.043.083.026.143.042.148s.063-.052.035-.176a.336.336,0,0,0-.124-.185.4.4,0,0,0-.292-.067.735.735,0,0,0-.532.484,1.779,1.779,0,0,0-.155.843,1.361,1.361,0,0,0,.805,1.273.563.563,0,0,0,.476-.095C315.394,177.168,315.407,177.1,315.4,177.095Z" transform="translate(-314.018 -174.735)" fill="#eb996e"/>
                  </g>
                </g>
              </g>
            </g>
          </g>
        </g>
        <g id="Grupo_586" data-name="Grupo 586">
          <path id="Trazado_289" data-name="Trazado 289" d="M332.183,153.081a4.649,4.649,0,0,0-7.22-1.388,4.551,4.551,0,0,0-7.478-.97c-.843.954-1.279,2.252-2.266,3.056-.854.7-2.013.927-2.873,1.616a3.318,3.318,0,0,0,1.185,5.784,3.565,3.565,0,0,0,1.754,4.841l.438-.182a6.256,6.256,0,0,0,.91-6.9c.054,0,.1-.005.157-.007a3.513,3.513,0,0,0,4.574-1.046,3.9,3.9,0,0,0,4.189.176,1.62,1.62,0,0,1,.631-.287,1.5,1.5,0,0,1,.787.236,3.7,3.7,0,0,0,2.128.43,2.058,2.058,0,0,0,1.6-1.143c.017,0,.033,0,.05-.006a2.364,2.364,0,0,0,1.76-1.7A3.513,3.513,0,0,0,332.183,153.081Z" transform="translate(-311.108 -149.186)" fill="#263238"/>
        </g>
      </g>
      <g id="Grupo_630" data-name="Grupo 630" transform="translate(9.419 27.692)">
        <g id="Grupo_588" data-name="Grupo 588" transform="translate(0.01)">
          <path id="Trazado_290" data-name="Trazado 290" d="M328.757,223.733l.384-19.811c-3.515-3.455-5.392-4.488-10.288-5.067-.516-.061-.957-.107-1.332-.148l-.419-3.263-12.008-.68.6,3.873h0a29.528,29.528,0,0,0-4.665.894c-4.665.894-8.022,4.291-8.955,7.429-.768,2.583-5.7,21.728-5.7,21.728l-1,5.779,11.011-4-.008,4.161.027,15.287h33.446C329.937,246.274,328.757,223.733,328.757,223.733Z" transform="translate(-285.373 -194.764)" fill="#e8505b"/>
        </g>
        <g id="Grupo_589" data-name="Grupo 589" transform="translate(0.01)">
          <path id="Trazado_291" data-name="Trazado 291" d="M328.757,223.733l.384-19.811c-3.515-3.455-5.392-4.488-10.288-5.067-.516-.061-.957-.107-1.332-.148l-.419-3.263-12.008-.68.6,3.873h0a29.528,29.528,0,0,0-4.665.894c-4.665.894-8.022,4.291-8.955,7.429-.768,2.583-5.7,21.728-5.7,21.728l-1,5.779,11.011-4-.008,4.161.027,15.287h33.446C329.937,246.274,328.757,223.733,328.757,223.733Z" transform="translate(-285.373 -194.764)" fill="#65d6d0"/>
        </g>
        <g id="Grupo_591" data-name="Grupo 591" transform="translate(0 31.858)">
          <g id="Grupo_590" data-name="Grupo 590">
            <path id="Trazado_292" data-name="Trazado 292" d="M290.4,249.542l16.485-2.343,3.134,5.613-15.326,6.909a6.618,6.618,0,0,1-2.719.585h0a6.615,6.615,0,0,1-6.12-4.1l-.5-1.209Z" transform="translate(-285.357 -247.199)" fill="#65d6d0"/>
          </g>
        </g>
        <g id="Grupo_593" data-name="Grupo 593" transform="translate(0 31.858)" opacity="0.2">
          <g id="Grupo_592" data-name="Grupo 592">
            <path id="Trazado_293" data-name="Trazado 293" d="M290.4,249.542l16.485-2.343,3.134,5.613-15.326,6.909a6.618,6.618,0,0,1-2.719.585h0a6.615,6.615,0,0,1-6.12-4.1l-.5-1.209Z" transform="translate(-285.357 -247.199)"/>
          </g>
        </g>
        <g id="Grupo_595" data-name="Grupo 595" transform="translate(36.19 5.301)">
          <g id="Grupo_594" data-name="Grupo 594">
            <path id="Trazado_294" data-name="Trazado 294" d="M347.457,203.488a12.162,12.162,0,0,1,6.615,6.067c1.277,2.924,3.153,16.994,3.153,16.994l2.366,4.563a7.692,7.692,0,0,1,.863,3.542v.7a7.693,7.693,0,0,1-1.726,4.855h0a7.7,7.7,0,0,1-5.288,2.809c-2.362.211-5.218.3-5.828-.392a29.549,29.549,0,0,1-2.692-4.537l6.887-3.658-2.966-5.492Z" transform="translate(-344.921 -203.488)" fill="#65d6d0"/>
          </g>
        </g>
        <g id="Grupo_597" data-name="Grupo 597" transform="translate(36.19 5.301)" opacity="0.2">
          <g id="Grupo_596" data-name="Grupo 596">
            <path id="Trazado_295" data-name="Trazado 295" d="M347.457,203.488a12.162,12.162,0,0,1,6.615,6.067c1.277,2.924,3.153,16.994,3.153,16.994l2.366,4.563a7.692,7.692,0,0,1,.863,3.542v.7a7.693,7.693,0,0,1-1.726,4.855h0a7.7,7.7,0,0,1-5.288,2.809c-2.362.211-5.218.3-5.828-.392a29.549,29.549,0,0,1-2.692-4.537l6.887-3.658-2.966-5.492Z" transform="translate(-344.921 -203.488)"/>
          </g>
        </g>
        <g id="Grupo_600" data-name="Grupo 600" transform="translate(4.567 31.699)">
          <g id="Grupo_599" data-name="Grupo 599">
            <g id="Grupo_598" data-name="Grupo 598">
              <path id="Trazado_296" data-name="Trazado 296" d="M298.791,259.1a1.3,1.3,0,0,1,.266-.149l.789-.383,2.958-1.382,10.1-4.611-.068.207-1.934-3.458-1.2-2.154.146.076-12.076,1.185-3.59.321-.97.073a1.613,1.613,0,0,1-.339.007,1.521,1.521,0,0,1,.333-.063l.964-.125,3.58-.412,12.067-1.284.1-.01.048.086,1.2,2.153,1.928,3.461.079.142-.147.066-10.144,4.516-2.995,1.3-.81.338A1.279,1.279,0,0,1,298.791,259.1Z" transform="translate(-292.874 -246.937)" fill="#263238"/>
            </g>
          </g>
        </g>
        <g id="Grupo_603" data-name="Grupo 603" transform="translate(13.26 19.407)">
          <g id="Grupo_602" data-name="Grupo 602">
            <g id="Grupo_601" data-name="Grupo 601">
              <ellipse id="Elipse_138" data-name="Elipse 138" cx="0.151" cy="6.583" rx="0.151" ry="6.583" fill="#263238"/>
            </g>
          </g>
        </g>
        <g id="Grupo_606" data-name="Grupo 606" transform="translate(37.77 36.876)">
          <g id="Grupo_605" data-name="Grupo 605">
            <g id="Grupo_604" data-name="Grupo 604">
              <path id="Trazado_297" data-name="Trazado 297" d="M351.536,255.553a1.492,1.492,0,0,1,.5-.079,4.586,4.586,0,0,1,1.39.084,1.651,1.651,0,0,1,.872.493,2.28,2.28,0,0,1,.456,1.05,2.439,2.439,0,0,1-.112,1.256,2.343,2.343,0,0,1-.834,1.07,6.223,6.223,0,0,1-2.388.851,10.848,10.848,0,0,1-2.044.2,3.688,3.688,0,0,1-1.855-.324,9.749,9.749,0,0,0,1.85.11,12.417,12.417,0,0,0,1.993-.258,6.291,6.291,0,0,0,2.266-.823,2.15,2.15,0,0,0,.475-2.972,1.463,1.463,0,0,0-.736-.447,5.536,5.536,0,0,0-1.331-.172A1.818,1.818,0,0,1,351.536,255.553Z" transform="translate(-347.522 -255.457)" fill="#263238"/>
            </g>
          </g>
        </g>
        <g id="Grupo_609" data-name="Grupo 609" transform="translate(37.765 41.744)">
          <g id="Grupo_608" data-name="Grupo 608">
            <g id="Grupo_607" data-name="Grupo 607">
              <path id="Trazado_298" data-name="Trazado 298" d="M354.267,266.668a3.49,3.49,0,0,1-1.184.14,7.52,7.52,0,0,1-2.848-.473,6.147,6.147,0,0,1-1.418-.754,3.406,3.406,0,0,1-.876-.99,2.594,2.594,0,0,1-.422-1.121c.048-.02.2.413.6,1.006a3.538,3.538,0,0,0,.861.88,6.665,6.665,0,0,0,1.363.7,8.89,8.89,0,0,0,2.742.54A7.188,7.188,0,0,1,354.267,266.668Z" transform="translate(-347.514 -263.47)" fill="#263238"/>
            </g>
          </g>
        </g>
        <g id="Grupo_612" data-name="Grupo 612" transform="translate(41.745 30.659)">
          <g id="Grupo_611" data-name="Grupo 611">
            <g id="Grupo_610" data-name="Grupo 610">
              <path id="Trazado_299" data-name="Trazado 299" d="M360.131,245.227a5.748,5.748,0,0,1-.814.977c-.53.581-1.276,1.369-2.113,2.227s-1.606,1.625-2.175,2.168a5.37,5.37,0,0,1-.964.837,5.37,5.37,0,0,1,.811-.985c.529-.582,1.274-1.371,2.111-2.23A29.153,29.153,0,0,1,360.131,245.227Z" transform="translate(-354.065 -245.225)" fill="#263238"/>
            </g>
          </g>
        </g>
        <g id="Grupo_615" data-name="Grupo 615" transform="translate(40.153 20.062)">
          <g id="Grupo_614" data-name="Grupo 614">
            <g id="Grupo_613" data-name="Grupo 613">
              <ellipse id="Elipse_139" data-name="Elipse 139" cx="0.151" cy="3.763" rx="0.151" ry="3.763" fill="#263238"/>
            </g>
          </g>
        </g>
        <g id="Grupo_617" data-name="Grupo 617" transform="translate(9.625 7.694)">
          <g id="Grupo_616" data-name="Grupo 616">
            <path id="Trazado_300" data-name="Trazado 300" d="M334.333,207.585c0,.087-7.419.158-16.567.158s-16.569-.071-16.569-.158,7.417-.158,16.569-.158S334.333,207.5,334.333,207.585Z" transform="translate(-301.198 -207.427)" fill="#fafafa"/>
          </g>
        </g>
        <g id="Grupo_619" data-name="Grupo 619" transform="translate(20.397 3.843)">
          <g id="Grupo_618" data-name="Grupo 618" transform="translate(0 0)">
            <ellipse id="Elipse_140" data-name="Elipse 140" cx="5.714" cy="0.158" rx="5.714" ry="0.158" transform="translate(0.002 0) rotate(0.327)" fill="#263238"/>
          </g>
        </g>
        <g id="Grupo_621" data-name="Grupo 621" transform="translate(6.122 14.388)">
          <g id="Grupo_620" data-name="Grupo 620">
            <path id="Trazado_301" data-name="Trazado 301" d="M335.676,218.6c0,.088-9.009.159-20.121.159s-20.122-.071-20.122-.159,9.007-.158,20.122-.158S335.676,218.515,335.676,218.6Z" transform="translate(-295.433 -218.445)" fill="#fafafa"/>
          </g>
        </g>
        <g id="Grupo_623" data-name="Grupo 623" transform="translate(4.115 21.271)">
          <g id="Grupo_622" data-name="Grupo 622">
            <path id="Trazado_302" data-name="Trazado 302" d="M335.622,229.931c0,.087-9.737.159-21.745.159s-21.747-.071-21.747-.159,9.735-.158,21.747-.158S335.622,229.843,335.622,229.931Z" transform="translate(-292.13 -229.773)" fill="#fafafa"/>
          </g>
        </g>
        <g id="Grupo_625" data-name="Grupo 625" transform="translate(2.49 27.962)">
          <g id="Grupo_624" data-name="Grupo 624">
            <path id="Trazado_303" data-name="Trazado 303" d="M335.352,240.944c0,.087-10.275.158-22.948.158s-22.949-.071-22.949-.158,10.273-.158,22.949-.158S335.352,240.856,335.352,240.944Z" transform="translate(-289.455 -240.786)" fill="#fafafa"/>
          </g>
        </g>
        <g id="Grupo_627" data-name="Grupo 627" transform="translate(0.483 38.859)">
          <g id="Grupo_626" data-name="Grupo 626">
            <path id="Trazado_304" data-name="Trazado 304" d="M337.162,258.879c0,.088-11.42.158-25.5.158s-25.506-.071-25.506-.158,11.418-.158,25.506-.158S337.162,258.792,337.162,258.879Z" transform="translate(-286.152 -258.721)" fill="#fafafa"/>
          </g>
        </g>
        <g id="Grupo_629" data-name="Grupo 629" transform="translate(10.52 46.506)">
          <g id="Grupo_628" data-name="Grupo 628">
            <path id="Trazado_305" data-name="Trazado 305" d="M336.318,271.465c0,.088-7.533.158-16.823.158s-16.824-.071-16.824-.158,7.531-.158,16.824-.158S336.318,271.377,336.318,271.465Z" transform="translate(-302.671 -271.307)" fill="#fafafa"/>
          </g>
        </g>
      </g>
      <g id="Grupo_642" data-name="Grupo 642" transform="translate(30.271 53.929)">
        <g id="Grupo_632" data-name="Grupo 632" transform="translate(0.804 1.008)">
          <g id="Grupo_631" data-name="Grupo 631">
            <path id="Trazado_306" data-name="Trazado 306" d="M335.722,241.521l-.358-.269a8.234,8.234,0,0,0-6.487-1.5h0a11.287,11.287,0,0,0-5.052,2.372L321,244.45l3,5.382,2.044-2.861s1.907,2.589,2.248,2.316a4.369,4.369,0,0,0,.749-1.09l-1.362-1.908,3.27.681,4.768-2.18-2.044-2.588,2.044.681Z" transform="translate(-321 -239.606)" fill="#ffbe9d"/>
          </g>
        </g>
        <g id="Grupo_634" data-name="Grupo 634">
          <g id="Grupo_633" data-name="Grupo 633">
            <path id="Trazado_307" data-name="Trazado 307" d="M330.168,240.377l-10.492,12.706.8.871,17.026-2.6,8.444-12.706-.783-.706Z" transform="translate(-319.676 -237.947)" fill="#00393f"/>
          </g>
        </g>
        <g id="Grupo_636" data-name="Grupo 636" transform="translate(5.366 5.783)">
          <g id="Grupo_635" data-name="Grupo 635">
            <path id="Trazado_308" data-name="Trazado 308" d="M344.762,247.465h0a1.619,1.619,0,0,0-1.513,1.033,3.5,3.5,0,0,1-1.032,1.649,3.655,3.655,0,0,1-2.751.405c-.688-.337-3.439-2.813-3.921-2.538s-.894.894-.413,1.444,3.026,2.2,2.545,2.751-5.847-1.872-6.672-1.658-1.307.721-.826,1.052,4.127,1.707,4.333,2.188c0,0-5.5-1.444-5.709-1.1s-.551.894,0,1.1,5.3,1.444,5.709,1.651a9.994,9.994,0,0,0,2.121.619,22.781,22.781,0,0,1,2.216.7,4.855,4.855,0,0,0,3.423-.092l.557-.227a2.183,2.183,0,0,0,1.356-2.154l-.112-1.876.6-1.548Z" transform="translate(-328.508 -247.465)" fill="#ffbe9d"/>
          </g>
        </g>
        <g id="Grupo_639" data-name="Grupo 639" transform="translate(0.871 0.816)">
          <g id="Grupo_638" data-name="Grupo 638">
            <g id="Grupo_637" data-name="Grupo 637">
              <path id="Trazado_309" data-name="Trazado 309" d="M346.544,239.3a1.3,1.3,0,0,1-.314.077l-.91.162-3.356.539-4.982.761-2.939.445a5.619,5.619,0,0,0-2.85,1.154,18.993,18.993,0,0,0-2.076,2.385l-1.862,2.322-3.167,3.921-2.156,2.627-.6.7a1.255,1.255,0,0,1-.225.233,1.31,1.31,0,0,1,.177-.271l.554-.74,2.08-2.687,3.116-3.961,1.848-2.333A18.781,18.781,0,0,1,331,242.2a5.873,5.873,0,0,1,2.995-1.215l2.949-.428,4.992-.7,3.37-.444.919-.106A1.329,1.329,0,0,1,346.544,239.3Z" transform="translate(-321.109 -239.291)" fill="#455a64"/>
            </g>
          </g>
        </g>
        <g id="Grupo_641" data-name="Grupo 641" transform="translate(17.767 3.606)">
          <g id="Grupo_640" data-name="Grupo 640">
            <path id="Trazado_310" data-name="Trazado 310" d="M349.493,243.882a1.441,1.441,0,0,0-.472.383.492.492,0,0,0-.021.571.527.527,0,0,0,.7.012.686.686,0,0,0,.273-.407.481.481,0,0,0-.146-.455.374.374,0,0,0-.462-.018" transform="translate(-348.917 -243.882)" fill="#fafafa"/>
          </g>
        </g>
      </g>
    </g>
  </g>
  <g id="Speech_Bubble" transform="translate(0 1.377)">
    <g id="Grupo_647" data-name="Grupo 647">
      <g id="Grupo_645" data-name="Grupo 645">
        <g id="Grupo_644" data-name="Grupo 644">
          <path id="Trazado_311" data-name="Trazado 311" d="M277.74,179.039l-3.084-5.435a14.566,14.566,0,1,0-3.488,3.879l0,.007Z" transform="translate(-247.733 -151.453)" fill="#65d6d0"/>
        </g>
      </g>
      <g id="Grupo_646" data-name="Grupo 646" transform="translate(9.474 10.616)">
        <path id="Trazado_312" data-name="Trazado 312" d="M263.326,171.075a1.92,1.92,0,1,1,1.911,2.149A1.929,1.929,0,0,1,263.326,171.075Zm2.713,0c0-.835-.319-1.236-.8-1.236s-.8.412-.8,1.236.329,1.236.8,1.236S266.039,171.91,266.039,171.075Zm3.779-2.06h1.307l-5.251,7.794h-1.308Zm-1.264,5.734a1.92,1.92,0,1,1,1.9,2.149A1.927,1.927,0,0,1,268.555,174.75Zm2.7,0c0-.824-.318-1.236-.8-1.236s-.8.4-.8,1.236.329,1.236.8,1.236S271.257,175.574,271.257,174.75Z" transform="translate(-263.326 -168.926)" fill="#fff"/>
      </g>
    </g>
  </g>
</svg>
