<svg id="Character" xmlns="http://www.w3.org/2000/svg" width="120.841" height="427.601" viewBox="0 0 120.841 427.601">
  <g id="Grupo_643" data-name="Grupo 643">
    <g id="Grupo_398" data-name="Grupo 398" transform="translate(95.384 399.654)">
      <g id="Grupo_361" data-name="Grupo 361">
        <g id="Grupo_360" data-name="Grupo 360">
          <g id="Grupo_359" data-name="Grupo 359">
            <path id="Trazado_250" data-name="Trazado 250" d="M271.727,462.37l2.2,9.242s15.114,19.63,19.776,18.671c3.055-.629-.7-5.75-6.448-20.661l-1.206-6.158Z" transform="translate(-271.727 -462.37)" fill="#455a64"/>
          </g>
        </g>
      </g>
      <g id="Grupo_365" data-name="Grupo 365" transform="translate(1.913 7.022)">
        <g id="Grupo_364" data-name="Grupo 364">
          <g id="Grupo_363" data-name="Grupo 363">
            <g id="Grupo_362" data-name="Grupo 362">
              <path id="Trazado_251" data-name="Trazado 251" d="M292.777,485.863a1.961,1.961,0,0,1-.806.773,2.8,2.8,0,0,1-2.894-.4,84.376,84.376,0,0,1-7.521-7.127c-2.8-2.936-5.149-5.762-6.8-7.843l-1.931-2.488c-.186-.242-.36-.466-.523-.678a1.294,1.294,0,0,0-.2-.226,1.2,1.2,0,0,0,.153.258l.482.708c.426.611,1.058,1.483,1.864,2.543a97.707,97.707,0,0,0,6.757,7.912,73.8,73.8,0,0,0,7.613,7.1,3.565,3.565,0,0,0,1.706.628,2.473,2.473,0,0,0,1.342-.292,1.7,1.7,0,0,0,.635-.59A.843.843,0,0,0,292.777,485.863Z" transform="translate(-272.1 -467.873)" fill="#263238"/>
            </g>
          </g>
        </g>
      </g>
      <g id="Grupo_369" data-name="Grupo 369" transform="translate(13.955 18.554)">
        <g id="Grupo_368" data-name="Grupo 368">
          <g id="Grupo_367" data-name="Grupo 367">
            <g id="Grupo_366" data-name="Grupo 366">
              <path id="Trazado_252" data-name="Trazado 252" d="M280.273,477.058a2.439,2.439,0,0,0-1.243-.136,6.481,6.481,0,0,0-2.848.989,5.229,5.229,0,0,0-2.071,2.189,2.713,2.713,0,0,0-.327,1.207c.047.013.143-.458.5-1.12a5.562,5.562,0,0,1,2.042-2.044,7.188,7.188,0,0,1,2.726-1.03C279.8,477.008,280.265,477.105,280.273,477.058Z" transform="translate(-273.777 -476.909)" fill="#263238"/>
            </g>
          </g>
        </g>
      </g>
      <g id="Grupo_373" data-name="Grupo 373" transform="translate(1.136 4.791)">
        <g id="Grupo_372" data-name="Grupo 372">
          <g id="Grupo_371" data-name="Grupo 371">
            <g id="Grupo_370" data-name="Grupo 370">
              <path id="Trazado_253" data-name="Trazado 253" d="M289.557,475.429a1.555,1.555,0,0,0,.181-.442,8.141,8.141,0,0,0,.3-1.266,6.882,6.882,0,0,0-.7-4.2,6.5,6.5,0,0,0-3.055-2.969,5.09,5.09,0,0,0-1.248-.385,1.354,1.354,0,0,0-.477-.029,10.74,10.74,0,0,1,1.642.588,6.678,6.678,0,0,1,2.9,2.918,7.109,7.109,0,0,1,.757,4.055C289.722,474.768,289.509,475.417,289.557,475.429Z" transform="translate(-284.551 -466.124)" fill="#263238"/>
            </g>
          </g>
        </g>
      </g>
      <g id="Grupo_377" data-name="Grupo 377" transform="translate(0.954 1.568)">
        <g id="Grupo_376" data-name="Grupo 376">
          <g id="Grupo_375" data-name="Grupo 375">
            <g id="Grupo_374" data-name="Grupo 374">
              <path id="Trazado_254" data-name="Trazado 254" d="M288,463.6c-.066.024.276,1.314.558,2.948a10.041,10.041,0,0,0,.787,2.907c.059-.023-.244-1.318-.519-2.958A9.8,9.8,0,0,0,288,463.6Z" transform="translate(-287.989 -463.599)" fill="#263238"/>
            </g>
          </g>
        </g>
      </g>
      <g id="Grupo_381" data-name="Grupo 381" transform="translate(12.105 8.442)">
        <g id="Grupo_380" data-name="Grupo 380">
          <g id="Grupo_379" data-name="Grupo 379">
            <g id="Grupo_378" data-name="Grupo 378">
              <path id="Trazado_255" data-name="Trazado 255" d="M281.116,469.1a4.544,4.544,0,0,0-3.689.851c.041.07.8-.334,1.813-.563S281.111,469.18,281.116,469.1Z" transform="translate(-277.425 -468.986)" fill="#263238"/>
            </g>
          </g>
        </g>
      </g>
      <g id="Grupo_385" data-name="Grupo 385" transform="translate(13.036 9.982)">
        <g id="Grupo_384" data-name="Grupo 384">
          <g id="Grupo_383" data-name="Grupo 383">
            <g id="Grupo_382" data-name="Grupo 382">
              <path id="Trazado_256" data-name="Trazado 256" d="M280.251,470.348a3.073,3.073,0,0,0-3.066.729c.046.066.65-.328,1.5-.523S280.239,470.428,280.251,470.348Z" transform="translate(-277.182 -470.192)" fill="#263238"/>
            </g>
          </g>
        </g>
      </g>
      <g id="Grupo_389" data-name="Grupo 389" transform="translate(14.184 11.835)">
        <g id="Grupo_388" data-name="Grupo 388">
          <g id="Grupo_387" data-name="Grupo 387">
            <g id="Grupo_386" data-name="Grupo 386">
              <path id="Trazado_257" data-name="Trazado 257" d="M279.364,471.934a2.477,2.477,0,0,0-3.124.709,4.223,4.223,0,0,1,3.124-.709Z" transform="translate(-276.235 -471.645)" fill="#263238"/>
            </g>
          </g>
        </g>
      </g>
      <g id="Grupo_393" data-name="Grupo 393" transform="translate(9.247 4.09)">
        <g id="Grupo_392" data-name="Grupo 392">
          <g id="Grupo_391" data-name="Grupo 391">
            <g id="Grupo_390" data-name="Grupo 390">
              <path id="Trazado_258" data-name="Trazado 258" d="M283.749,469.376c.01-.045-.7-.189-1.775-.606a13.606,13.606,0,0,1-1.824-.877c-.329-.19-.669-.4-1-.642-.307-.228-.646-.563-.634-.92s.459-.555.805-.466a2.209,2.209,0,0,1,.934.623c.556.524,1.031,1.025,1.418,1.456.772.864,1.2,1.442,1.235,1.418a1.7,1.7,0,0,0-.256-.439c-.184-.271-.462-.652-.833-1.1a18.983,18.983,0,0,0-1.39-1.511,2.387,2.387,0,0,0-1.048-.7.881.881,0,0,0-1.138.711,1.512,1.512,0,0,0,.75,1.151,11.994,11.994,0,0,0,2.916,1.483,10.421,10.421,0,0,0,1.337.365A1.641,1.641,0,0,0,283.749,469.376Z" transform="translate(-278.24 -465.575)" fill="#263238"/>
            </g>
          </g>
        </g>
      </g>
      <g id="Grupo_397" data-name="Grupo 397" transform="translate(13.944 2.73)">
        <g id="Grupo_396" data-name="Grupo 396">
          <g id="Grupo_395" data-name="Grupo 395">
            <g id="Grupo_394" data-name="Grupo 394">
              <path id="Trazado_259" data-name="Trazado 259" d="M276.7,469.481a16.953,16.953,0,0,0,.277-1.688,7.059,7.059,0,0,1,.514-1.747,3.792,3.792,0,0,1,.564-.891c.231-.262.582-.485.865-.32s.322.578.279.921a4.163,4.163,0,0,1-.295,1.014,5.819,5.819,0,0,1-.988,1.521c-.7.777-1.248,1.15-1.217,1.189a1.374,1.374,0,0,0,.4-.235,7.028,7.028,0,0,0,.96-.823,5.558,5.558,0,0,0,1.076-1.551,4.209,4.209,0,0,0,.329-1.083,1.154,1.154,0,0,0-.412-1.192,1,1,0,0,0-1.194.379,3.888,3.888,0,0,0-.595.965,6.6,6.6,0,0,0-.476,1.822c-.068.53-.088.958-.1,1.254A1.5,1.5,0,0,0,276.7,469.481Z" transform="translate(-276.683 -464.509)" fill="#263238"/>
            </g>
          </g>
        </g>
      </g>
    </g>
    <g id="Grupo_496" data-name="Grupo 496" transform="translate(14.995 391.341)">
      <g id="Grupo_495" data-name="Grupo 495">
        <g id="Grupo_404" data-name="Grupo 404" transform="translate(0.004)">
          <g id="Grupo_403" data-name="Grupo 403">
            <g id="Grupo_402" data-name="Grupo 402">
              <g id="Grupo_401" data-name="Grupo 401">
                <g id="Grupo_400" data-name="Grupo 400">
                  <g id="Grupo_399" data-name="Grupo 399">
                    <path id="Trazado_260" data-name="Trazado 260" d="M343.827,468.459l-.07-12.325,23.086-.279.295,18.03-1.43.11c-6.367.431-32.4,1.742-36.673.5C324.267,473.113,343.827,468.459,343.827,468.459Z" transform="translate(-328.286 -455.855)" fill="#455a64"/>
                  </g>
                </g>
              </g>
            </g>
          </g>
        </g>
        <g id="Grupo_410" data-name="Grupo 410" transform="translate(0 17.486)">
          <g id="Grupo_409" data-name="Grupo 409">
            <g id="Grupo_408" data-name="Grupo 408">
              <g id="Grupo_407" data-name="Grupo 407">
                <g id="Grupo_406" data-name="Grupo 406">
                  <g id="Grupo_405" data-name="Grupo 405">
                    <path id="Trazado_261" data-name="Trazado 261" d="M367.211,469.567a2.152,2.152,0,0,1-.4.048l-1.14.083-4.193.235c-3.543.172-8.439.346-13.85.42s-10.313.031-13.858-.046l-4.2-.121-1.141-.052a2.267,2.267,0,0,1-.4-.037,2.293,2.293,0,0,1,.4-.019h1.142l4.2.032c3.545.027,8.443.037,13.852-.036s10.3-.216,13.846-.337l4.2-.146,1.142-.031A2.219,2.219,0,0,1,367.211,469.567Z" transform="translate(-328.037 -469.558)" fill="#263238"/>
                  </g>
                </g>
              </g>
            </g>
          </g>
        </g>
        <g id="Grupo_416" data-name="Grupo 416" transform="translate(5.82 14.938)">
          <g id="Grupo_415" data-name="Grupo 415">
            <g id="Grupo_414" data-name="Grupo 414">
              <g id="Grupo_413" data-name="Grupo 413">
                <g id="Grupo_412" data-name="Grupo 412">
                  <g id="Grupo_411" data-name="Grupo 411">
                    <path id="Trazado_262" data-name="Trazado 262" d="M354.634,471.149a6.093,6.093,0,0,0-2.26-3.581,3.734,3.734,0,0,1,2.26,3.581Z" transform="translate(-352.372 -467.561)" fill="#263238"/>
                  </g>
                </g>
              </g>
            </g>
          </g>
        </g>
        <g id="Grupo_422" data-name="Grupo 422" transform="translate(13.493 12.968)">
          <g id="Grupo_421" data-name="Grupo 421" transform="translate(0 0)">
            <g id="Grupo_420" data-name="Grupo 420" transform="translate(0 0)">
              <g id="Grupo_419" data-name="Grupo 419">
                <g id="Grupo_418" data-name="Grupo 418">
                  <g id="Grupo_417" data-name="Grupo 417">
                    <ellipse id="Elipse_132" data-name="Elipse 132" cx="1.138" cy="0.14" rx="1.138" ry="0.14" transform="matrix(0.547, 0.837, -0.837, 0.547, 0.235, 0)" fill="#263238"/>
                  </g>
                </g>
              </g>
            </g>
          </g>
        </g>
        <g id="Grupo_428" data-name="Grupo 428" transform="translate(15.154 12.628)">
          <g id="Grupo_427" data-name="Grupo 427" transform="translate(0 0)">
            <g id="Grupo_426" data-name="Grupo 426" transform="translate(0 0)">
              <g id="Grupo_425" data-name="Grupo 425">
                <g id="Grupo_424" data-name="Grupo 424">
                  <g id="Grupo_423" data-name="Grupo 423">
                    <ellipse id="Elipse_133" data-name="Elipse 133" cx="0.969" cy="0.14" rx="0.969" ry="0.14" transform="translate(0.185 0) rotate(41.209)" fill="#263238"/>
                  </g>
                </g>
              </g>
            </g>
          </g>
        </g>
        <g id="Grupo_434" data-name="Grupo 434" transform="translate(15.444 11.65)">
          <g id="Grupo_433" data-name="Grupo 433" transform="translate(0 0)">
            <g id="Grupo_432" data-name="Grupo 432">
              <g id="Grupo_431" data-name="Grupo 431">
                <g id="Grupo_430" data-name="Grupo 430">
                  <g id="Grupo_429" data-name="Grupo 429">
                    <ellipse id="Elipse_134" data-name="Elipse 134" cx="1.206" cy="0.14" rx="1.206" ry="0.14" transform="translate(0 0.058) rotate(-1.37)" fill="#263238"/>
                  </g>
                </g>
              </g>
            </g>
          </g>
        </g>
        <g id="Grupo_440" data-name="Grupo 440" transform="translate(15.517 10.214)">
          <g id="Grupo_439" data-name="Grupo 439">
            <g id="Grupo_438" data-name="Grupo 438">
              <g id="Grupo_437" data-name="Grupo 437">
                <g id="Grupo_436" data-name="Grupo 436">
                  <g id="Grupo_435" data-name="Grupo 435">
                    <path id="Trazado_263" data-name="Trazado 263" d="M347.165,463.881a3.39,3.39,0,0,1-2.728.241,97.59,97.59,0,0,0,2.728-.241Z" transform="translate(-344.436 -463.859)" fill="#263238"/>
                  </g>
                </g>
              </g>
            </g>
          </g>
        </g>
        <g id="Grupo_446" data-name="Grupo 446" transform="translate(9.674 10.939)">
          <g id="Grupo_445" data-name="Grupo 445">
            <g id="Grupo_444" data-name="Grupo 444">
              <g id="Grupo_443" data-name="Grupo 443">
                <g id="Grupo_442" data-name="Grupo 442">
                  <g id="Grupo_441" data-name="Grupo 441">
                    <path id="Trazado_264" data-name="Trazado 264" d="M352.1,466.467a4.241,4.241,0,0,1-1.484.009,8.671,8.671,0,0,1-1.584-.328,4.3,4.3,0,0,1-.909-.361.8.8,0,0,1-.373-.457.584.584,0,0,1,.217-.6,2.719,2.719,0,0,1,3.374.753,2.655,2.655,0,0,1,.5.984.822.822,0,0,1,.043.4,4.224,4.224,0,0,0-.692-1.257,2.686,2.686,0,0,0-1.277-.808,2.3,2.3,0,0,0-1.766.143c-.234.177-.138.453.126.606a4.44,4.44,0,0,0,.838.346,10.168,10.168,0,0,0,1.533.378C351.532,466.428,352.1,466.423,352.1,466.467Z" transform="translate(-347.732 -464.427)" fill="#263238"/>
                  </g>
                </g>
              </g>
            </g>
          </g>
        </g>
        <g id="Grupo_452" data-name="Grupo 452" transform="translate(13.462 10.17)">
          <g id="Grupo_451" data-name="Grupo 451">
            <g id="Grupo_450" data-name="Grupo 450">
              <g id="Grupo_449" data-name="Grupo 449">
                <g id="Grupo_448" data-name="Grupo 448">
                  <g id="Grupo_447" data-name="Grupo 447">
                    <path id="Trazado_265" data-name="Trazado 265" d="M346.734,466.713a1.456,1.456,0,0,1-.185-1.027,2.433,2.433,0,0,1,.392-1.088,1.488,1.488,0,0,1,1.225-.772.59.59,0,0,1,.466.679,1.629,1.629,0,0,1-.244.666,4.428,4.428,0,0,1-.689.906,2.128,2.128,0,0,1-.841.611c-.027-.036.292-.271.7-.745a5.224,5.224,0,0,0,.61-.9c.2-.316.332-.881-.041-.944-.371-.031-.746.343-.969.642a2.419,2.419,0,0,0-.407.97A5.537,5.537,0,0,0,346.734,466.713Z" transform="translate(-346.539 -463.825)" fill="#263238"/>
                  </g>
                </g>
              </g>
            </g>
          </g>
        </g>
        <g id="Grupo_458" data-name="Grupo 458" transform="translate(30.497 11.045)">
          <g id="Grupo_457" data-name="Grupo 457">
            <g id="Grupo_456" data-name="Grupo 456">
              <g id="Grupo_455" data-name="Grupo 455">
                <g id="Grupo_454" data-name="Grupo 454">
                  <g id="Grupo_453" data-name="Grupo 453">
                    <path id="Trazado_266" data-name="Trazado 266" d="M336.594,464.65c-.005.052-.662-.055-1.7.082a7.236,7.236,0,0,0-5.986,4.9c-.339.994-.365,1.659-.417,1.654a1.329,1.329,0,0,1-.006-.466,6.057,6.057,0,0,1,.236-1.248,7.014,7.014,0,0,1,6.151-5.033,6.05,6.05,0,0,1,1.27.017A1.346,1.346,0,0,1,336.594,464.65Z" transform="translate(-328.469 -464.51)" fill="#263238"/>
                  </g>
                </g>
              </g>
            </g>
          </g>
        </g>
        <g id="Grupo_464" data-name="Grupo 464" transform="translate(35.951 1.601)">
          <g id="Grupo_463" data-name="Grupo 463" transform="translate(0 0)">
            <g id="Grupo_462" data-name="Grupo 462" transform="translate(0 0)">
              <g id="Grupo_461" data-name="Grupo 461">
                <g id="Grupo_460" data-name="Grupo 460">
                  <g id="Grupo_459" data-name="Grupo 459">
                    <ellipse id="Elipse_135" data-name="Elipse 135" cx="4.745" cy="0.14" rx="4.745" ry="0.14" transform="matrix(-0.025, -1, 1, -0.025, 0.241, 9.493)" fill="#263238"/>
                  </g>
                </g>
              </g>
            </g>
          </g>
        </g>
        <g id="Grupo_470" data-name="Grupo 470" transform="translate(20.803 15.711)">
          <g id="Grupo_469" data-name="Grupo 469">
            <g id="Grupo_468" data-name="Grupo 468">
              <g id="Grupo_467" data-name="Grupo 467">
                <g id="Grupo_466" data-name="Grupo 466">
                  <g id="Grupo_465" data-name="Grupo 465">
                    <path id="Trazado_267" data-name="Trazado 267" d="M343.892,468.191a18.961,18.961,0,0,1-6.745.151c.006-.082,1.515-.009,3.373-.052S343.884,468.111,343.892,468.191Z" transform="translate(-337.147 -468.167)" fill="#263238"/>
                  </g>
                </g>
              </g>
            </g>
          </g>
        </g>
        <g id="Grupo_476" data-name="Grupo 476" transform="translate(31.427 15.663)">
          <g id="Grupo_475" data-name="Grupo 475">
            <g id="Grupo_474" data-name="Grupo 474">
              <g id="Grupo_473" data-name="Grupo 473">
                <g id="Grupo_472" data-name="Grupo 472">
                  <g id="Grupo_471" data-name="Grupo 471">
                    <path id="Trazado_268" data-name="Trazado 268" d="M334.239,468.138c.057.056-.12.322-.269.669s-.23.656-.31.651-.124-.364.054-.763S334.188,468.083,334.239,468.138Z" transform="translate(-333.592 -468.129)" fill="#263238"/>
                  </g>
                </g>
              </g>
            </g>
          </g>
        </g>
        <g id="Grupo_482" data-name="Grupo 482" transform="translate(32.782 13.455)">
          <g id="Grupo_481" data-name="Grupo 481" transform="translate(0 0)">
            <g id="Grupo_480" data-name="Grupo 480" transform="translate(0)">
              <g id="Grupo_479" data-name="Grupo 479">
                <g id="Grupo_478" data-name="Grupo 478">
                  <g id="Grupo_477" data-name="Grupo 477">
                    <ellipse id="Elipse_136" data-name="Elipse 136" cx="0.616" cy="0.14" rx="0.616" ry="0.14" transform="translate(0 0.889) rotate(-46.122)" fill="#263238"/>
                  </g>
                </g>
              </g>
            </g>
          </g>
        </g>
        <g id="Grupo_488" data-name="Grupo 488" transform="translate(34.867 12.401)">
          <g id="Grupo_487" data-name="Grupo 487">
            <g id="Grupo_486" data-name="Grupo 486">
              <g id="Grupo_485" data-name="Grupo 485">
                <g id="Grupo_484" data-name="Grupo 484">
                  <g id="Grupo_483" data-name="Grupo 483">
                    <path id="Trazado_269" data-name="Trazado 269" d="M331.7,465.7c-.015.078-.322.08-.66.2s-.579.308-.641.255.128-.373.547-.519S331.718,465.628,331.7,465.7Z" transform="translate(-330.383 -465.573)" fill="#263238"/>
                  </g>
                </g>
              </g>
            </g>
          </g>
        </g>
        <g id="Grupo_494" data-name="Grupo 494" transform="translate(37.161 11.882)">
          <g id="Grupo_493" data-name="Grupo 493" transform="translate(0 0)">
            <g id="Grupo_492" data-name="Grupo 492" transform="translate(0)">
              <g id="Grupo_491" data-name="Grupo 491">
                <g id="Grupo_490" data-name="Grupo 490">
                  <g id="Grupo_489" data-name="Grupo 489">
                    <ellipse id="Elipse_137" data-name="Elipse 137" cx="0.373" cy="0.14" rx="0.373" ry="0.14" transform="translate(0 0.278) rotate(-21.912)" fill="#263238"/>
                  </g>
                </g>
              </g>
            </g>
          </g>
        </g>
      </g>
    </g>
    <g id="Grupo_519" data-name="Grupo 519" transform="translate(14.966 167.907)">
      <g id="Grupo_500" data-name="Grupo 500">
        <g id="Grupo_499" data-name="Grupo 499">
          <g id="Grupo_498" data-name="Grupo 498">
            <g id="Grupo_497" data-name="Grupo 497">
              <path id="Trazado_270" data-name="Trazado 270" d="M269.854,280.764l8.264,231.367,33.55.755L306.1,312.413l37.737,202.005h31.9L334.637,281.234Z" transform="translate(-269.854 -280.764)" fill="#00393f"/>
            </g>
          </g>
        </g>
      </g>
      <g id="Grupo_503" data-name="Grupo 503" transform="translate(28.316 8.417)">
        <g id="Grupo_502" data-name="Grupo 502">
          <g id="Grupo_501" data-name="Grupo 501">
            <path id="Trazado_271" data-name="Trazado 271" d="M327.878,287.36a22.9,22.9,0,0,0,.413,3.814c.336,2.343.842,5.571,1.439,9.132a38.332,38.332,0,0,0,1.027,5.024,7.112,7.112,0,0,0,2.348,3.531,5.526,5.526,0,0,0,2.61,1.165,2.1,2.1,0,0,0,1.045-.017,6.459,6.459,0,0,1-5.446-4.857,44.718,44.718,0,0,1-.958-4.951c-.6-3.56-1.174-6.777-1.623-9.1A22.925,22.925,0,0,0,327.878,287.36Z" transform="translate(-327.855 -287.36)" fill="#455a64"/>
          </g>
        </g>
      </g>
      <g id="Grupo_506" data-name="Grupo 506" transform="translate(32.979 8.927)">
        <g id="Grupo_505" data-name="Grupo 505">
          <g id="Grupo_504" data-name="Grupo 504">
            <path id="Trazado_272" data-name="Trazado 272" d="M331.188,288.36c-.079.057.216.429.047,1.04a1.219,1.219,0,0,1-.6.773,1.088,1.088,0,0,1-1.42-1.247,1.222,1.222,0,0,1,.689-.7c.583-.246.99,0,1.037-.088.074-.035-.332-.527-1.173-.339a1.6,1.6,0,0,0-1.1.921,1.627,1.627,0,0,0,2.24,1.966,1.593,1.593,0,0,0,.771-1.211C331.753,288.621,331.212,288.282,331.188,288.36Z" transform="translate(-328.566 -287.76)" fill="#455a64"/>
          </g>
        </g>
      </g>
      <g id="Grupo_509" data-name="Grupo 509" transform="translate(52.797 6.402)">
        <g id="Grupo_508" data-name="Grupo 508">
          <g id="Grupo_507" data-name="Grupo 507">
            <path id="Trazado_273" data-name="Trazado 273" d="M314.138,292.206c.156.051.679-1.422.472-3.3s-1.017-3.207-1.159-3.124c-.17.078.351,1.438.528,3.192C314.177,290.726,313.956,292.167,314.138,292.206Z" transform="translate(-313.418 -285.781)" fill="#455a64"/>
          </g>
        </g>
      </g>
      <g id="Grupo_512" data-name="Grupo 512" transform="translate(48.966 5.854)">
        <g id="Grupo_511" data-name="Grupo 511">
          <g id="Grupo_510" data-name="Grupo 510">
            <path id="Trazado_274" data-name="Trazado 274" d="M317.3,292.048c.159.045.658-1.469.517-3.4s-.833-3.361-.985-3.295c-.175.063.234,1.512.352,3.34C317.32,290.518,317.118,292.011,317.3,292.048Z" transform="translate(-316.788 -285.351)" fill="#455a64"/>
          </g>
        </g>
      </g>
      <g id="Grupo_515" data-name="Grupo 515" transform="translate(15.006 6.542)">
        <g id="Grupo_514" data-name="Grupo 514">
          <g id="Grupo_513" data-name="Grupo 513">
            <path id="Trazado_275" data-name="Trazado 275" d="M347.139,292.843c.177-.047-.111-1.577-.2-3.475s.025-3.448-.156-3.477c-.163-.033-.584,1.533-.477,3.509S346.979,292.893,347.139,292.843Z" transform="translate(-346.286 -285.891)" fill="#455a64"/>
          </g>
        </g>
      </g>
      <g id="Grupo_518" data-name="Grupo 518" transform="translate(9.997 6.14)">
        <g id="Grupo_517" data-name="Grupo 517">
          <g id="Grupo_516" data-name="Grupo 516">
            <path id="Trazado_276" data-name="Trazado 276" d="M351.151,292.67c.172-.073-.388-1.585-.513-3.527-.147-1.942.2-3.516.018-3.565-.151-.061-.8,1.534-.65,3.609C350.143,291.262,351.011,292.752,351.151,292.67Z" transform="translate(-349.983 -285.576)" fill="#455a64"/>
          </g>
        </g>
      </g>
    </g>
    <g id="Grupo_587" data-name="Grupo 587" transform="translate(27.82)">
      <g id="Grupo_575" data-name="Grupo 575" transform="translate(2.946 13.549)">
        <g id="Grupo_574" data-name="Grupo 574">
          <g id="Grupo_530" data-name="Grupo 530">
            <g id="Grupo_529" data-name="Grupo 529">
              <g id="Grupo_528" data-name="Grupo 528">
                <g id="Grupo_523" data-name="Grupo 523">
                  <g id="Grupo_522" data-name="Grupo 522">
                    <g id="Grupo_521" data-name="Grupo 521">
                      <g id="Grupo_520" data-name="Grupo 520">
                        <path id="Trazado_277" data-name="Trazado 277" d="M348.188,217.9l-22.2-1.773c-.138-2.592.047-12.617.047-12.617s-9.235-1.436-9.349-10.669,1.487-30.434,1.487-30.434h0a32.089,32.089,0,0,1,32.243,4.053l1.368,1.053Z" transform="translate(-316.686 -159.803)" fill="#ffbe9d"/>
                      </g>
                    </g>
                  </g>
                </g>
                <g id="Grupo_527" data-name="Grupo 527" transform="translate(9.32 40.157)">
                  <g id="Grupo_526" data-name="Grupo 526">
                    <g id="Grupo_525" data-name="Grupo 525">
                      <g id="Grupo_524" data-name="Grupo 524">
                        <path id="Trazado_278" data-name="Trazado 278" d="M327.462,194.693a21.47,21.47,0,0,0,12.037-3.421s-2.846,6.645-12.058,5.813Z" transform="translate(-327.442 -191.272)" fill="#eb996e"/>
                      </g>
                    </g>
                  </g>
                </g>
              </g>
            </g>
          </g>
          <g id="Grupo_573" data-name="Grupo 573" transform="translate(3.22 9.238)">
            <g id="Grupo_572" data-name="Grupo 572" transform="translate(0)">
              <g id="Grupo_563" data-name="Grupo 563" transform="translate(0 4.973)">
                <g id="Grupo_562" data-name="Grupo 562">
                  <g id="Grupo_561" data-name="Grupo 561">
                    <g id="Grupo_540" data-name="Grupo 540">
                      <g id="Grupo_534" data-name="Grupo 534" transform="translate(1.868 1.676)">
                        <g id="Grupo_533" data-name="Grupo 533">
                          <g id="Grupo_532" data-name="Grupo 532">
                            <g id="Grupo_531" data-name="Grupo 531">
                              <path id="Trazado_279" data-name="Trazado 279" d="M338.146,173.446a1.317,1.317,0,0,0,1.271,1.33,1.262,1.262,0,0,0,1.359-1.189,1.318,1.318,0,0,0-1.27-1.331A1.263,1.263,0,0,0,338.146,173.446Z" transform="translate(-338.145 -172.253)" fill="#263238"/>
                            </g>
                          </g>
                        </g>
                      </g>
                      <g id="Grupo_539" data-name="Grupo 539">
                        <g id="Grupo_538" data-name="Grupo 538">
                          <g id="Grupo_537" data-name="Grupo 537">
                            <g id="Grupo_536" data-name="Grupo 536">
                              <g id="Grupo_535" data-name="Grupo 535">
                                <path id="Trazado_280" data-name="Trazado 280" d="M337.592,172.326c.163.172,1.163-.568,2.582-.564,1.418-.017,2.459.713,2.612.54.075-.077-.091-.387-.545-.717a3.614,3.614,0,0,0-2.092-.644,3.475,3.475,0,0,0-2.055.664C337.66,171.938,337.512,172.248,337.592,172.326Z" transform="translate(-337.571 -170.94)" fill="#263238"/>
                              </g>
                            </g>
                          </g>
                        </g>
                      </g>
                    </g>
                    <g id="Grupo_550" data-name="Grupo 550" transform="translate(13.947 0.265)">
                      <g id="Grupo_544" data-name="Grupo 544" transform="translate(2.252 1.744)">
                        <g id="Grupo_543" data-name="Grupo 543">
                          <g id="Grupo_542" data-name="Grupo 542">
                            <g id="Grupo_541" data-name="Grupo 541">
                              <path id="Trazado_281" data-name="Trazado 281" d="M326.916,173.707a1.317,1.317,0,0,0,1.271,1.33,1.261,1.261,0,0,0,1.359-1.189,1.319,1.319,0,0,0-1.27-1.331A1.264,1.264,0,0,0,326.916,173.707Z" transform="translate(-326.915 -172.514)" fill="#263238"/>
                            </g>
                          </g>
                        </g>
                      </g>
                      <g id="Grupo_549" data-name="Grupo 549">
                        <g id="Grupo_548" data-name="Grupo 548">
                          <g id="Grupo_547" data-name="Grupo 547">
                            <g id="Grupo_546" data-name="Grupo 546">
                              <g id="Grupo_545" data-name="Grupo 545">
                                <path id="Trazado_282" data-name="Trazado 282" d="M326.663,172.533c.163.172,1.164-.567,2.582-.563,1.416-.017,2.459.713,2.612.54.075-.077-.089-.387-.545-.717a3.614,3.614,0,0,0-2.092-.644,3.474,3.474,0,0,0-2.054.664C326.732,172.145,326.583,172.456,326.663,172.533Z" transform="translate(-326.642 -171.148)" fill="#263238"/>
                              </g>
                            </g>
                          </g>
                        </g>
                      </g>
                    </g>
                    <g id="Grupo_555" data-name="Grupo 555" transform="translate(5.207 0.35)">
                      <g id="Grupo_554" data-name="Grupo 554">
                        <g id="Grupo_553" data-name="Grupo 553">
                          <g id="Grupo_552" data-name="Grupo 552">
                            <g id="Grupo_551" data-name="Grupo 551">
                              <path id="Trazado_283" data-name="Trazado 283" d="M337.851,183.037a9.391,9.391,0,0,0-2.3-.416c-.362-.037-.7-.11-.766-.356a1.843,1.843,0,0,1,.242-1.075q.511-1.315,1.072-2.759c1.488-3.928,2.565-7.158,2.407-7.216s-1.493,3.078-2.981,7.006q-.538,1.453-1.026,2.775a2.1,2.1,0,0,0-.188,1.422.909.909,0,0,0,.6.53,2.471,2.471,0,0,0,.615.086A9.221,9.221,0,0,0,337.851,183.037Z" transform="translate(-334.239 -171.214)" fill="#263238"/>
                            </g>
                          </g>
                        </g>
                      </g>
                    </g>
                    <g id="Grupo_560" data-name="Grupo 560" transform="translate(8.472 13.154)">
                      <g id="Grupo_559" data-name="Grupo 559">
                        <g id="Grupo_558" data-name="Grupo 558">
                          <g id="Grupo_557" data-name="Grupo 557">
                            <g id="Grupo_556" data-name="Grupo 556">
                              <path id="Trazado_284" data-name="Trazado 284" d="M335.83,181.248c-.231-.013-.234,1.526-1.552,2.62s-2.958.924-2.969,1.14c-.022.1.366.3,1.058.318a3.839,3.839,0,0,0,2.479-.864,3.337,3.337,0,0,0,1.2-2.2C336.109,181.621,335.936,181.239,335.83,181.248Z" transform="translate(-331.308 -181.248)" fill="#263238"/>
                            </g>
                          </g>
                        </g>
                      </g>
                    </g>
                  </g>
                </g>
              </g>
              <g id="Grupo_567" data-name="Grupo 567" transform="translate(13.594)">
                <g id="Grupo_566" data-name="Grupo 566">
                  <g id="Grupo_565" data-name="Grupo 565">
                    <g id="Grupo_564" data-name="Grupo 564">
                      <path id="Trazado_285" data-name="Trazado 285" d="M325.946,168.106c.14.385,1.557.2,3.221.4,1.669.167,3.012.655,3.232.309.1-.166-.135-.528-.677-.9a5.643,5.643,0,0,0-4.916-.542C326.194,167.62,325.886,167.922,325.946,168.106Z" transform="translate(-325.939 -167.043)" fill="#263238"/>
                    </g>
                  </g>
                </g>
              </g>
              <g id="Grupo_571" data-name="Grupo 571" transform="translate(0.506 0.783)">
                <g id="Grupo_570" data-name="Grupo 570">
                  <g id="Grupo_569" data-name="Grupo 569">
                    <g id="Grupo_568" data-name="Grupo 568">
                      <path id="Trazado_286" data-name="Trazado 286" d="M337.5,169.126c.25.322,1.226-.013,2.4-.028,1.175-.057,2.171.217,2.4-.12.1-.163-.056-.486-.491-.791a3.477,3.477,0,0,0-3.869.12C337.522,168.636,337.386,168.969,337.5,169.126Z" transform="translate(-337.46 -167.657)" fill="#263238"/>
                    </g>
                  </g>
                </g>
              </g>
            </g>
          </g>
        </g>
      </g>
      <g id="Grupo_585" data-name="Grupo 585" transform="translate(36.553 30.538)">
        <g id="Grupo_579" data-name="Grupo 579">
          <g id="Grupo_578" data-name="Grupo 578">
            <g id="Grupo_577" data-name="Grupo 577">
              <g id="Grupo_576" data-name="Grupo 576">
                <path id="Trazado_287" data-name="Trazado 287" d="M313.12,173.407c.157-.068,6.343-1.876,6.142,4.436s-6.5,4.808-6.5,4.626S313.12,173.407,313.12,173.407Z" transform="translate(-312.759 -173.116)" fill="#ffbe9d"/>
              </g>
            </g>
          </g>
        </g>
        <g id="Grupo_584" data-name="Grupo 584" transform="translate(1.999 2.066)">
          <g id="Grupo_583" data-name="Grupo 583">
            <g id="Grupo_582" data-name="Grupo 582">
              <g id="Grupo_581" data-name="Grupo 581">
                <g id="Grupo_580" data-name="Grupo 580">
                  <path id="Trazado_288" data-name="Trazado 288" d="M314.024,179.691c.028-.019.107.08.291.172a1.106,1.106,0,0,0,.822.043,2.723,2.723,0,0,0,1.337-2.4,3.636,3.636,0,0,0-.258-1.585,1.267,1.267,0,0,0-.8-.87.56.56,0,0,0-.658.281c-.091.174-.055.3-.088.31-.018.015-.133-.11-.073-.369a.706.706,0,0,1,.26-.388.834.834,0,0,1,.614-.142,1.543,1.543,0,0,1,1.118,1.016,3.737,3.737,0,0,1,.325,1.771,2.858,2.858,0,0,1-1.691,2.675,1.183,1.183,0,0,1-1-.2C314.03,179.844,314,179.7,314.024,179.691Z" transform="translate(-314.018 -174.735)" fill="#eb996e"/>
                </g>
              </g>
            </g>
          </g>
        </g>
      </g>
      <g id="Grupo_586" data-name="Grupo 586">
        <path id="Trazado_289" data-name="Trazado 289" d="M312.013,157.367a9.764,9.764,0,0,1,15.164-2.916,9.558,9.558,0,0,1,15.706-2.038c1.77,2,2.686,4.729,4.76,6.418,1.794,1.461,4.228,1.946,6.033,3.394a6.97,6.97,0,0,1-2.488,12.148,7.488,7.488,0,0,1-3.684,10.168l-.92-.382a13.14,13.14,0,0,1-1.912-14.5c-.114.006-.219-.012-.33-.015a7.378,7.378,0,0,1-9.608-2.2,8.194,8.194,0,0,1-8.8.37,3.4,3.4,0,0,0-1.326-.6,3.151,3.151,0,0,0-1.653.5,7.764,7.764,0,0,1-4.469.9,4.323,4.323,0,0,1-3.356-2.4c-.036-.005-.07-.006-.1-.013a4.965,4.965,0,0,1-3.7-3.581A7.379,7.379,0,0,1,312.013,157.367Z" transform="translate(-311.108 -149.186)" fill="#263238"/>
      </g>
    </g>
    <g id="Grupo_630" data-name="Grupo 630" transform="translate(0 58.162)">
      <g id="Grupo_588" data-name="Grupo 588" transform="translate(15.19)">
        <path id="Trazado_290" data-name="Trazado 290" d="M287.677,255.607,286.871,214c7.382-7.257,11.325-9.427,21.607-10.641,1.085-.129,2.01-.225,2.8-.311l.88-6.853,25.221-1.429-1.261,8.134h0c3.657.156,6.687,1.281,9.8,1.877,9.8,1.877,16.85,9.013,18.808,15.6,1.613,5.426,11.967,45.636,11.967,45.636l2.106,12.138-23.127-8.4.017,8.739L355.63,310.6H285.383C285.2,302.951,287.677,255.607,287.677,255.607Z" transform="translate(-285.373 -194.764)" fill="#e8505b"/>
      </g>
      <g id="Grupo_589" data-name="Grupo 589" transform="translate(15.19)">
        <path id="Trazado_291" data-name="Trazado 291" d="M287.677,255.607,286.871,214c7.382-7.257,11.325-9.427,21.607-10.641,1.085-.129,2.01-.225,2.8-.311l.88-6.853,25.221-1.429-1.261,8.134h0c3.657.156,6.687,1.281,9.8,1.877,9.8,1.877,16.85,9.013,18.808,15.6,1.613,5.426,11.967,45.636,11.967,45.636l2.106,12.138-23.127-8.4.017,8.739L355.63,310.6H285.383C285.2,302.951,287.677,255.607,287.677,255.607Z" transform="translate(-285.373 -194.764)" fill="#65d6d0"/>
      </g>
      <g id="Grupo_591" data-name="Grupo 591" transform="translate(56.839 66.912)">
        <g id="Grupo_590" data-name="Grupo 590">
          <path id="Trazado_292" data-name="Trazado 292" d="M326.564,252.12,291.939,247.2l-6.582,11.789L317.545,273.5a13.9,13.9,0,0,0,5.711,1.228h0a13.894,13.894,0,0,0,12.854-8.62l1.041-2.539Z" transform="translate(-285.357 -247.199)" fill="#65d6d0"/>
        </g>
      </g>
      <g id="Grupo_593" data-name="Grupo 593" transform="translate(56.839 66.912)" opacity="0.2">
        <g id="Grupo_592" data-name="Grupo 592">
          <path id="Trazado_293" data-name="Trazado 293" d="M326.564,252.12,291.939,247.2l-6.582,11.789L317.545,273.5a13.9,13.9,0,0,0,5.711,1.228h0a13.894,13.894,0,0,0,12.854-8.62l1.041-2.539Z" transform="translate(-285.357 -247.199)"/>
        </g>
      </g>
      <g id="Grupo_595" data-name="Grupo 595" transform="translate(0 11.133)">
        <g id="Grupo_594" data-name="Grupo 594">
          <path id="Trazado_294" data-name="Trazado 294" d="M372.218,203.488s-9.784,3.333-13.893,12.743c-2.681,6.141-6.622,35.693-6.622,35.693l-4.969,9.584a16.157,16.157,0,0,0-1.813,7.438v1.461a16.158,16.158,0,0,0,3.624,10.2h0a16.171,16.171,0,0,0,11.106,5.9c4.96.444,10.959.639,12.24-.824,2.261-2.584,5.653-9.529,5.653-9.529l-14.465-7.683,6.229-11.535Z" transform="translate(-344.921 -203.488)" fill="#65d6d0"/>
        </g>
      </g>
      <g id="Grupo_597" data-name="Grupo 597" transform="translate(0 11.133)" opacity="0.2">
        <g id="Grupo_596" data-name="Grupo 596">
          <path id="Trazado_295" data-name="Trazado 295" d="M372.218,203.488s-9.784,3.333-13.893,12.743c-2.681,6.141-6.622,35.693-6.622,35.693l-4.969,9.584a16.157,16.157,0,0,0-1.813,7.438v1.461a16.158,16.158,0,0,0,3.624,10.2h0a16.171,16.171,0,0,0,11.106,5.9c4.96.444,10.959.639,12.24-.824,2.261-2.584,5.653-9.529,5.653-9.529l-14.465-7.683,6.229-11.535Z" transform="translate(-344.921 -203.488)"/>
        </g>
      </g>
      <g id="Grupo_600" data-name="Grupo 600" transform="translate(56.405 66.578)">
        <g id="Grupo_599" data-name="Grupo 599">
          <g id="Grupo_598" data-name="Grupo 598">
            <path id="Trazado_296" data-name="Trazado 296" d="M323.082,272.482a2.724,2.724,0,0,0-.559-.314l-1.658-.805-6.213-2.9-21.215-9.684.143.434c1.312-2.344,2.67-4.774,4.062-7.262.864-1.549,1.715-3.077,2.523-4.524l-.306.16,25.364,2.49,7.539.675,2.037.153a3.387,3.387,0,0,0,.712.014,3.191,3.191,0,0,0-.7-.131l-2.025-.263-7.519-.865-25.343-2.7-.205-.022-.1.181c-.809,1.447-1.662,2.972-2.527,4.521-1.388,2.491-2.744,4.922-4.05,7.269l-.166.3.309.138,21.306,9.485c2.624,1.141,4.748,2.065,6.29,2.733l1.7.71A2.687,2.687,0,0,0,323.082,272.482Z" transform="translate(-292.874 -246.937)" fill="#263238"/>
          </g>
        </g>
      </g>
      <g id="Grupo_603" data-name="Grupo 603" transform="translate(80.149 40.761)">
        <g id="Grupo_602" data-name="Grupo 602">
          <g id="Grupo_601" data-name="Grupo 601">
            <ellipse id="Elipse_138" data-name="Elipse 138" cx="0.316" cy="13.825" rx="0.316" ry="13.825" fill="#263238"/>
          </g>
        </g>
      </g>
      <g id="Grupo_606" data-name="Grupo 606" transform="translate(14.037 77.45)">
        <g id="Grupo_605" data-name="Grupo 605">
          <g id="Grupo_604" data-name="Grupo 604">
            <path id="Trazado_297" data-name="Trazado 297" d="M354.358,255.66a3.133,3.133,0,0,0-1.053-.166,9.63,9.63,0,0,0-2.92.176,3.469,3.469,0,0,0-1.832,1.036,4.788,4.788,0,0,0-.957,2.205,5.123,5.123,0,0,0,.236,2.638,4.921,4.921,0,0,0,1.752,2.247,13.07,13.07,0,0,0,5.015,1.788,22.783,22.783,0,0,0,4.293.417,7.747,7.747,0,0,0,3.9-.68,20.48,20.48,0,0,1-3.886.231,26.074,26.074,0,0,1-4.186-.541,13.214,13.214,0,0,1-4.759-1.729,4.515,4.515,0,0,1-1-6.241,3.072,3.072,0,0,1,1.547-.939,11.623,11.623,0,0,1,2.8-.361A3.816,3.816,0,0,0,354.358,255.66Z" transform="translate(-347.522 -255.457)" fill="#263238"/>
          </g>
        </g>
      </g>
      <g id="Grupo_609" data-name="Grupo 609" transform="translate(15.131 87.676)">
        <g id="Grupo_608" data-name="Grupo 608">
          <g id="Grupo_607" data-name="Grupo 607">
            <path id="Trazado_298" data-name="Trazado 298" d="M347.514,270.186a7.327,7.327,0,0,0,2.487.295,15.8,15.8,0,0,0,5.981-.993,12.91,12.91,0,0,0,2.977-1.584,7.154,7.154,0,0,0,1.84-2.079,5.449,5.449,0,0,0,.887-2.354c-.1-.042-.429.868-1.265,2.113a7.429,7.429,0,0,1-1.808,1.849,14,14,0,0,1-2.862,1.464,18.673,18.673,0,0,1-5.759,1.134A15.092,15.092,0,0,0,347.514,270.186Z" transform="translate(-347.514 -263.47)" fill="#263238"/>
          </g>
        </g>
      </g>
      <g id="Grupo_612" data-name="Grupo 612" transform="translate(8.209 64.393)">
        <g id="Grupo_611" data-name="Grupo 611">
          <g id="Grupo_610" data-name="Grupo 610">
            <path id="Trazado_299" data-name="Trazado 299" d="M354.07,245.23a12.069,12.069,0,0,0,1.709,2.052c1.113,1.22,2.68,2.876,4.437,4.678s3.374,3.412,4.567,4.554a11.274,11.274,0,0,0,2.024,1.757,11.278,11.278,0,0,0-1.7-2.07c-1.11-1.222-2.676-2.88-4.435-4.685C357.157,247.916,354.191,245.082,354.07,245.23Z" transform="translate(-354.065 -245.225)" fill="#263238"/>
          </g>
        </g>
      </g>
      <g id="Grupo_615" data-name="Grupo 615" transform="translate(23.667 42.136)">
        <g id="Grupo_614" data-name="Grupo 614">
          <g id="Grupo_613" data-name="Grupo 613">
            <ellipse id="Elipse_139" data-name="Elipse 139" cx="0.316" cy="7.904" rx="0.316" ry="7.904" fill="#263238"/>
          </g>
        </g>
      </g>
      <g id="Grupo_617" data-name="Grupo 617" transform="translate(18.824 16.159)">
        <g id="Grupo_616" data-name="Grupo 616">
          <path id="Trazado_300" data-name="Trazado 300" d="M301.2,207.759c0,.184,15.581.332,34.8.332s34.8-.149,34.8-.332-15.577-.332-34.8-.332S301.2,207.576,301.2,207.759Z" transform="translate(-301.198 -207.427)" fill="#fafafa"/>
        </g>
      </g>
      <g id="Grupo_619" data-name="Grupo 619" transform="translate(41.788 8.07)">
        <g id="Grupo_618" data-name="Grupo 618" transform="translate(0 0)">
          <ellipse id="Elipse_140" data-name="Elipse 140" cx="12.001" cy="0.332" rx="12.001" ry="0.332" transform="matrix(-1, 0.006, -0.006, -1, 24.005, 0.664)" fill="#263238"/>
        </g>
      </g>
      <g id="Grupo_621" data-name="Grupo 621" transform="translate(11.253 30.219)">
        <g id="Grupo_620" data-name="Grupo 620">
          <path id="Trazado_301" data-name="Trazado 301" d="M295.433,218.777c0,.184,18.922.333,42.259.333s42.263-.149,42.263-.333-18.918-.332-42.263-.332S295.433,218.593,295.433,218.777Z" transform="translate(-295.433 -218.445)" fill="#fafafa"/>
        </g>
      </g>
      <g id="Grupo_623" data-name="Grupo 623" transform="translate(8.643 44.675)">
        <g id="Grupo_622" data-name="Grupo 622">
          <path id="Trazado_302" data-name="Trazado 302" d="M292.13,230.1c0,.184,20.451.333,45.672.333s45.675-.149,45.675-.333-20.446-.332-45.675-.332S292.13,229.921,292.13,230.1Z" transform="translate(-292.13 -229.773)" fill="#fafafa"/>
        </g>
      </g>
      <g id="Grupo_625" data-name="Grupo 625" transform="translate(7.006 58.729)">
        <g id="Grupo_624" data-name="Grupo 624">
          <path id="Trazado_303" data-name="Trazado 303" d="M289.455,241.118c0,.184,21.581.332,48.2.332s48.2-.149,48.2-.332-21.576-.332-48.2-.332S289.455,240.934,289.455,241.118Z" transform="translate(-289.455 -240.786)" fill="#fafafa"/>
        </g>
      </g>
      <g id="Grupo_627" data-name="Grupo 627" transform="translate(0.482 81.616)">
        <g id="Grupo_626" data-name="Grupo 626">
          <path id="Trazado_304" data-name="Trazado 304" d="M286.152,259.053c0,.184,23.986.332,53.566.332s53.571-.149,53.571-.332-23.98-.332-53.571-.332S286.152,258.869,286.152,259.053Z" transform="translate(-286.152 -258.721)" fill="#fafafa"/>
        </g>
      </g>
      <g id="Grupo_629" data-name="Grupo 629" transform="translate(15.87 97.677)">
        <g id="Grupo_628" data-name="Grupo 628">
          <path id="Trazado_305" data-name="Trazado 305" d="M302.671,271.639c0,.184,15.821.332,35.333.332s35.337-.149,35.337-.332-15.817-.332-35.337-.332S302.671,271.455,302.671,271.639Z" transform="translate(-302.671 -271.307)" fill="#fafafa"/>
        </g>
      </g>
    </g>
    <g id="Grupo_642" data-name="Grupo 642" transform="translate(9.589 113.268)">
      <g id="Grupo_632" data-name="Grupo 632" transform="translate(22.641 2.118)">
        <g id="Grupo_631" data-name="Grupo 631">
          <path id="Trazado_306" data-name="Trazado 306" d="M321,243.628l.752-.564a17.3,17.3,0,0,1,13.625-3.149h0a23.706,23.706,0,0,1,10.611,4.982l5.933,4.884-6.31,11.3-4.293-6.009s-4.006,5.437-4.722,4.864a9.175,9.175,0,0,1-1.573-2.289l2.861-4.007-6.868,1.431L321,250.495l4.293-5.436L321,246.489Z" transform="translate(-321 -239.606)" fill="#ffbe9d"/>
        </g>
      </g>
      <g id="Grupo_634" data-name="Grupo 634" transform="translate(0.066)">
        <g id="Grupo_633" data-name="Grupo 633">
          <path id="Trazado_307" data-name="Trazado 307" d="M352.824,243.05l22.036,26.687-1.69,1.83-35.76-5.451L319.676,239.43l1.645-1.483Z" transform="translate(-319.676 -237.947)" fill="#00393f"/>
        </g>
      </g>
      <g id="Grupo_636" data-name="Grupo 636" transform="translate(9.84 12.146)">
        <g id="Grupo_635" data-name="Grupo 635">
          <path id="Trazado_308" data-name="Trazado 308" d="M328.508,247.465h0a3.4,3.4,0,0,1,3.179,2.171c.531,1.381,1.307,2.994,2.167,3.463,1.589.866,4.333,1.558,5.778.851s7.223-5.908,8.235-5.33,1.878,1.878.867,3.033-6.356,4.623-5.346,5.778,12.28-3.932,14.013-3.482,2.745,1.515,1.734,2.21-8.669,3.585-9.1,4.6c0,0,11.558-3.033,11.99-2.311s1.156,1.878,0,2.311-11.124,3.033-11.99,3.467a20.994,20.994,0,0,1-4.455,1.3A47.837,47.837,0,0,0,340.923,267a10.2,10.2,0,0,1-7.188-.193l-1.17-.476a4.586,4.586,0,0,1-2.848-4.524l.236-3.941-1.261-3.251Z" transform="translate(-328.508 -247.465)" fill="#ffbe9d"/>
        </g>
      </g>
      <g id="Grupo_639" data-name="Grupo 639" transform="translate(0 1.715)">
        <g id="Grupo_638" data-name="Grupo 638">
          <g id="Grupo_637" data-name="Grupo 637">
            <path id="Trazado_309" data-name="Trazado 309" d="M321.109,239.3a2.728,2.728,0,0,0,.66.161l1.912.339,7.048,1.132,10.464,1.6,6.174.934a11.8,11.8,0,0,1,5.985,2.425,39.894,39.894,0,0,1,4.36,5.009l3.911,4.877,6.651,8.236c1.868,2.278,3.4,4.146,4.527,5.518l1.256,1.48a2.635,2.635,0,0,0,.472.489,2.752,2.752,0,0,0-.371-.569L373,269.375l-4.369-5.644-6.545-8.32-3.882-4.9a39.442,39.442,0,0,0-4.437-5.106,12.336,12.336,0,0,0-6.29-2.552l-6.193-.9-10.484-1.464-7.077-.933-1.929-.222A2.789,2.789,0,0,0,321.109,239.3Z" transform="translate(-321.109 -239.291)" fill="#455a64"/>
          </g>
        </g>
      </g>
      <g id="Grupo_641" data-name="Grupo 641" transform="translate(15.695 7.574)">
        <g id="Grupo_640" data-name="Grupo 640">
          <path id="Trazado_310" data-name="Trazado 310" d="M349.949,243.882a3.026,3.026,0,0,1,.992.805,1.034,1.034,0,0,1,.043,1.2,1.106,1.106,0,0,1-1.474.024,1.441,1.441,0,0,1-.573-.855,1.01,1.01,0,0,1,.306-.956.785.785,0,0,1,.97-.038" transform="translate(-348.917 -243.882)" fill="#fafafa"/>
        </g>
      </g>
    </g>
  </g>
</svg>
