<svg xmlns="http://www.w3.org/2000/svg" width="386.5" height="287.989" viewBox="0 0 386.5 287.989">
  <g id="Grupo_939" data-name="Grupo 939" transform="translate(-27 -300)">
    <g id="Grupo_928" data-name="Grupo 928" transform="translate(27 245)" opacity="0.467">
      <g id="freepik--background-complete--inject-13" transform="translate(0 55)">
        <rect id="Rectángulo_1585" data-name="Rectángulo 1585" width="386.5" height="0.193" transform="translate(0 253.08)" fill="#ebebeb"/>
        <rect id="Rectángulo_1586" data-name="Rectángulo 1586" width="25.602" height="0.193" transform="translate(322.171 265.518)" fill="#ebebeb"/>
        <rect id="Rectángulo_1587" data-name="Rectángulo 1587" width="6.717" height="0.193" transform="translate(249.316 267.62)" fill="#ebebeb"/>
        <rect id="Rectángulo_1588" data-name="Rectángulo 1588" width="14.834" height="0.193" transform="translate(306.564 258.344)" fill="#ebebeb"/>
        <rect id="Rectángulo_1589" data-name="Rectángulo 1589" width="33.386" height="0.193" transform="translate(40.552 259.643)" fill="#ebebeb"/>
        <rect id="Rectángulo_1590" data-name="Rectángulo 1590" width="4.893" height="0.193" transform="translate(80.825 259.643)" fill="#ebebeb"/>
        <rect id="Rectángulo_1591" data-name="Rectángulo 1591" width="72.415" height="0.193" transform="translate(101.626 262.905)" fill="#ebebeb"/>
        <path id="Trazado_617" data-name="Trazado 617" d="M191.875,273.6H42.616a4.414,4.414,0,0,1-4.406-4.414V59.375A4.414,4.414,0,0,1,42.616,55H191.875a4.413,4.413,0,0,1,4.414,4.414h0V269.191A4.413,4.413,0,0,1,191.875,273.6ZM42.616,55.155A4.22,4.22,0,0,0,38.4,59.375V269.191a4.22,4.22,0,0,0,4.213,4.221H191.875a4.229,4.229,0,0,0,4.221-4.221V59.375a4.229,4.229,0,0,0-4.221-4.221Z" transform="translate(-8.674 -55)" fill="#ebebeb"/>
        <path id="Trazado_618" data-name="Trazado 618" d="M408.18,273.6H258.914a4.422,4.422,0,0,1-4.414-4.414V59.375A4.421,4.421,0,0,1,258.914,55H408.18a4.414,4.414,0,0,1,4.4,4.375V269.191A4.414,4.414,0,0,1,408.18,273.6ZM258.914,55.155a4.228,4.228,0,0,0-4.221,4.221V269.191a4.228,4.228,0,0,0,4.221,4.221H408.18a4.229,4.229,0,0,0,4.221-4.221V59.375a4.229,4.229,0,0,0-4.221-4.221Z" transform="translate(-57.771 -55)" fill="#ebebeb"/>
        <rect id="Rectángulo_1592" data-name="Rectángulo 1592" width="14.393" height="98.844" transform="translate(169.364 154.237)" fill="#e6e6e6"/>
        <path id="Trazado_619" data-name="Trazado 619" d="M224.171,376.884H219.1V358.1h10.381Z" transform="translate(-49.736 -123.804)" fill="#f0f0f0"/>
        <rect id="Rectángulo_1593" data-name="Rectángulo 1593" width="14.393" height="98.844" transform="translate(321.591 154.237)" fill="#e6e6e6"/>
        <rect id="Rectángulo_1594" data-name="Rectángulo 1594" width="156.641" height="93.719" transform="translate(169.372 154.229)" fill="#f0f0f0"/>
        <path id="Trazado_620" data-name="Trazado 620" d="M413.63,376.884H418.7V358.1H408.32Z" transform="translate(-92.689 -123.804)" fill="#f0f0f0"/>
        <rect id="Rectángulo_1595" data-name="Rectángulo 1595" width="46.434" height="77.524" transform="translate(274.369 161.99)" fill="#e6e6e6"/>
        <path id="Trazado_621" data-name="Trazado 621" d="M375.908,266.935h9.183A15.574,15.574,0,0,0,395.666,263H365.38A15.589,15.589,0,0,0,375.908,266.935Z" transform="translate(-82.941 -102.216)" fill="#f0f0f0"/>
        <rect id="Rectángulo_1596" data-name="Rectángulo 1596" width="46.434" height="77.524" transform="translate(224.471 161.99)" fill="#e6e6e6"/>
        <path id="Trazado_622" data-name="Trazado 622" d="M310.774,266.935h9.191A15.592,15.592,0,0,0,330.516,263H300.23A15.567,15.567,0,0,0,310.774,266.935Z" transform="translate(-68.152 -102.216)" fill="#f0f0f0"/>
        <rect id="Rectángulo_1597" data-name="Rectángulo 1597" width="46.434" height="77.524" transform="translate(174.574 161.998)" fill="#e6e6e6"/>
        <path id="Trazado_623" data-name="Trazado 623" d="M246.231,266.935h9.183A15.592,15.592,0,0,0,265.966,263H235.68A15.574,15.574,0,0,0,246.231,266.935Z" transform="translate(-53.499 -102.216)" fill="#f0f0f0"/>
        <rect id="Rectángulo_1598" data-name="Rectángulo 1598" width="98.217" height="220.784" transform="translate(57.666 32.296)" fill="#f0f0f0"/>
        <rect id="Rectángulo_1599" data-name="Rectángulo 1599" width="96.146" height="220.784" transform="translate(57.666 32.296)" fill="#f5f5f5"/>
        <rect id="Rectángulo_1600" data-name="Rectángulo 1600" width="84.427" height="210.766" transform="translate(63.525 37.305)" fill="#f0f0f0"/>
        <path id="Trazado_624" data-name="Trazado 624" d="M160.751,147.24h0a23.012,23.012,0,0,0-23-23.02H115.94a23.02,23.02,0,0,0-23.02,23.02Z" transform="translate(-21.093 -70.713)" fill="#fafafa"/>
        <rect id="Rectángulo_1601" data-name="Rectángulo 1601" width="67.831" height="50.353" transform="translate(71.835 184.616)" fill="#f5f5f5"/>
        <rect id="Rectángulo_1602" data-name="Rectángulo 1602" width="29.923" height="87.419" transform="translate(109.743 90.696)" fill="#f5f5f5"/>
        <rect id="Rectángulo_1603" data-name="Rectángulo 1603" width="29.923" height="87.419" transform="translate(71.827 90.696)" fill="#f5f5f5"/>
        <path id="Trazado_625" data-name="Trazado 625" d="M102.832,227.253H90.542a1.9,1.9,0,0,1-1.9-1.9h0a1.909,1.909,0,0,1,1.9-1.9h12.291a1.909,1.909,0,0,1,1.9,1.9h0a1.9,1.9,0,0,1-1.9,1.9Z" transform="translate(-20.121 -93.238)" fill="#e0e0e0"/>
        <rect id="Rectángulo_1604" data-name="Rectángulo 1604" width="1.523" height="210.766" transform="translate(63.525 37.305)" fill="#f0f0f0"/>
        <rect id="Rectángulo_1605" data-name="Rectángulo 1605" width="104.154" height="108.877" transform="translate(218.017 21.126)" fill="#e6e6e6"/>
        <rect id="Rectángulo_1606" data-name="Rectángulo 1606" width="104.154" height="108.877" transform="translate(215.389 21.126)" fill="#f5f5f5"/>
        <rect id="Rectángulo_1607" data-name="Rectángulo 1607" width="112.866" height="5.658" transform="translate(209.305 130.003)" fill="#e6e6e6"/>
        <rect id="Rectángulo_1608" data-name="Rectángulo 1608" width="107.053" height="5.658" transform="translate(206.345 130.003)" fill="#f5f5f5"/>
        <rect id="Rectángulo_1609" data-name="Rectángulo 1609" width="94.731" height="98.712" transform="translate(220.104 26.212)" fill="#fff"/>
        <rect id="Rectángulo_1610" data-name="Rectángulo 1610" width="5.249" height="98.712" transform="translate(264.845 26.212)" fill="#f5f5f5"/>
        <rect id="Rectángulo_1611" data-name="Rectángulo 1611" width="1.987" height="98.712" transform="translate(220.096 26.212)" fill="#e6e6e6"/>
        <rect id="Rectángulo_1612" data-name="Rectángulo 1612" width="1.987" height="98.712" transform="translate(270.094 26.212)" fill="#e6e6e6"/>
        <path id="Trazado_626" data-name="Trazado 626" d="M299.393,207.732c-1.917-19.851-3.254-52.054-2.219-62.829a1.336,1.336,0,0,1,.541-.928h0a1.322,1.322,0,0,1,2.1,1.105c-.178,5.341-.387,18.683.773,41.7.564,11.456,1.376,19.325.819,20.956Z" transform="translate(-67.377 -75.139)" fill="#e6e6e6"/>
        <path id="Trazado_627" data-name="Trazado 627" d="M282.5,164.313c-5.457-6.06-16.6-10.366-27.944-10.343-4.46,0,13.558,7.042,21.049,14.811,5.821,6.029,12.368,16.179,14.617,21.814C288.752,178.729,287.979,170.365,282.5,164.313Z" transform="translate(-57.625 -77.466)" fill="#e6e6e6"/>
        <path id="Trazado_628" data-name="Trazado 628" d="M303.733,166.3c4.53-6.308,14.981-11.162,26.282-11.711,4.437-.216-12.461,7.73-18.768,15.816-4.893,6.3-9.918,16.743-11.3,22.463C299.629,180.987,299.172,172.607,303.733,166.3Z" transform="translate(-68.045 -77.606)" fill="#e6e6e6"/>
        <path id="Trazado_629" data-name="Trazado 629" d="M283.475,136.168c-4.638-5.133-14.053-8.781-23.669-8.758-3.772,0,11.479,5.968,17.825,12.538,4.932,5.11,10.49,13.705,12.368,18.475C288.786,148.389,288.09,141.293,283.475,136.168Z" transform="translate(-58.842 -71.437)" fill="#e6e6e6"/>
        <path id="Trazado_630" data-name="Trazado 630" d="M301.46,145.637c3.865-5.341,12.685-9.454,22.27-9.918,3.757-.178-10.551,6.524-15.893,13.4-4.143,5.334-8.4,14.177-9.57,19.024C298.028,158.074,297.626,150.978,301.46,145.637Z" transform="translate(-67.674 -73.322)" fill="#e6e6e6"/>
        <path id="Trazado_631" data-name="Trazado 631" d="M297.542,246.342h0a11.27,11.27,0,0,1-11.255-10.629l-1-17.253H309.8l-1,17.253A11.27,11.27,0,0,1,297.542,246.342Z" transform="translate(-64.761 -92.105)" fill="#e6e6e6"/>
        <path id="Trazado_632" data-name="Trazado 632" d="M310.687,221.421H283.006l-.8-7.181h29.266Z" transform="translate(-64.062 -91.147)" fill="#e6e6e6"/>
      </g>
      <g id="freepik--Shadow--inject-13" transform="translate(43.373 325.488)">
        <ellipse id="freepik--path--inject-13" cx="149.877" cy="8.75" rx="149.877" ry="8.75" fill="#f5f5f5"/>
      </g>
      <path id="Trazado_633" data-name="Trazado 633" d="M52.3,112.1a4.87,4.87,0,0,1,4.854-4.854h216.61a4.87,4.87,0,0,1,4.854,4.854v15.622H52.3Z" transform="translate(-11.872 -11.861)" fill="#263238"/>
      <path id="Trazado_634" data-name="Trazado 634" d="M101.867,123.384a4.1,4.1,0,1,1,4.1-4.1,4.1,4.1,0,0,1-4.1,4.1Zm0-7.336a3.239,3.239,0,1,0,3.239,3.239A3.239,3.239,0,0,0,101.867,116.048Z" transform="translate(-22.194 -13.663)" fill="#f0f0f0"/>
      <path id="Trazado_635" data-name="Trazado 635" d="M85.039,123.384a4.1,4.1,0,1,1,.008,0Zm0-7.336a3.239,3.239,0,1,0,3.247,3.239A3.239,3.239,0,0,0,85.039,116.048Z" transform="translate(-18.376 -13.663)" fill="#f0f0f0"/>
      <path id="Trazado_636" data-name="Trazado 636" d="M68.219,123.384a4.1,4.1,0,1,1,.008,0Zm0-7.336a3.239,3.239,0,1,0,3.239,3.239A3.239,3.239,0,0,0,68.219,116.048Z" transform="translate(-14.558 -13.663)" fill="#f0f0f0"/>
      <path id="Trazado_637" data-name="Trazado 637" d="M273.764,282.8H57.154a4.87,4.87,0,0,1-4.854-4.854V133.74H278.619v144.2A4.87,4.87,0,0,1,273.764,282.8Z" transform="translate(-11.872 -17.874)" fill="#84ded9"/>
      <rect id="Rectángulo_1613" data-name="Rectángulo 1613" width="223.567" height="127.8" transform="translate(41.804 120.017)" fill="#fff"/>
      <rect id="Rectángulo_1614" data-name="Rectángulo 1614" width="91.052" height="17.261" rx="3.81" transform="translate(52.757 130.97)" fill="#407bff"/>
      <path id="Trazado_638" data-name="Trazado 638" d="M299.447,154.053a2.172,2.172,0,0,1,2.172,2.172V167.6a2.172,2.172,0,0,1-2.172,2.172H214.285a2.172,2.172,0,0,1-2.172-2.172V156.225a2.172,2.172,0,0,1,2.172-2.172h85.161m0-.773H214.285a2.952,2.952,0,0,0-2.945,2.945V167.6a2.945,2.945,0,0,0,2.945,2.945h85.161a2.945,2.945,0,0,0,2.945-2.945V156.225A2.952,2.952,0,0,0,299.447,153.28Z" transform="translate(-47.974 -22.31)" fill="#407bff"/>
      <path id="Trazado_639" data-name="Trazado 639" d="M268.352,246.641a72.279,72.279,0,0,0,1.384,14.084,29.049,29.049,0,0,0-14.215,24.914,28.758,28.758,0,0,0,.773,6.818h63.6a4.87,4.87,0,0,0,4.854-4.854V176.29A72.144,72.144,0,0,0,268.352,246.641Z" transform="translate(-58.003 -27.533)" opacity="0.1" style="isolation: isolate"/>
      <circle id="Elipse_153" data-name="Elipse 153" cx="64.306" cy="64.306" r="64.306" transform="translate(218.078 157.842)" fill="#65d6d0"/>
      <circle id="Elipse_154" data-name="Elipse 154" cx="58.624" cy="58.624" r="58.624" transform="translate(224.059 163.443)" fill="#fff"/>
      <path id="Trazado_640" data-name="Trazado 640" d="M333.942,220.25l-3.741,4.793a21.28,21.28,0,0,0-4.53,4.638c-1.453,1.438-2.783,2.914-4.1,4.468a61.51,61.51,0,0,0-4.205,5.573,32.317,32.317,0,0,0-3.494,6.64A14.037,14.037,0,0,0,312.94,251a8.613,8.613,0,0,0,.588,3.285,7.729,7.729,0,0,0,2.45,3.247l.819.618,1.229.232a41.468,41.468,0,0,0,7.359.727l.974-.085-1-9.8c-.827,0-2.605.162-3.417.147a2,2,0,0,1,.1-.464,29.237,29.237,0,0,1,2.01-5.411c.866-1.878,1.863-3.757,2.9-5.627.912-1.654,1.894-3.316,2.845-4.939l4.638-2.922,2.713-4.816Zm-12.067,30.533a1.354,1.354,0,0,1,0-.224.589.589,0,0,1,.07.178C321.968,250.923,321.914,250.93,321.875,250.783Z" transform="translate(-71.037 -37.512)" fill="#7f3e3b"/>
      <path id="Trazado_641" data-name="Trazado 641" d="M370.086,233.177c.116-.6-3.95-2.636-6.748-.974-2.419,1.438-2.729,3.4-1.847,5.743a3.57,3.57,0,0,0,.085.487c.054.379.1.773.124,1.129.178,2.466-.472,4.762-3.247,6.068,0,.155-.379.317-.5.425a5.531,5.531,0,0,0-1.84,3.517c0,1,.951,1.8,2.056,2.76l1.546,1.044,2.118-.2c6.5-1.909,9.539-7.846,9.4-8.287C369.56,242.136,369.583,237.312,370.086,233.177Z" transform="translate(-80.837 -40.08)" fill="#7f3e3b"/>
      <path id="Trazado_642" data-name="Trazado 642" d="M377.683,251.194l-1.175-.2c-1.546-.247-8.441-1.809-11.773-2.1h0c-.773,1.646-3.308,5.666-9.809,7.575l-1.608.379-1.546-.773a4.1,4.1,0,0,1-1.685-2.968,4.4,4.4,0,0,1,1.685-3.092.506.506,0,0,0,.131-.178v-.325c-.487.062-6.656,1-7.173,1.082a100.467,100.467,0,0,0-17.06,4.738l.062.557,1.121,9.732.417,3.687s3.092-.348,7.15-1.059c-1.105,9.848-1.322,24.118,2.056,42.461l13.2-.247,22.927-.425c.093-1.546-.077-4.746-.24-9.121l-.209-6.756c-.124-5.968-.1-13.141.433-20.809.085-1.214.186-2.435.294-3.672h0c4.684,5.063,9.376,9.9,9.376,9.9l2.219-2.133a18.38,18.38,0,0,0,7.019-6.764l2.605-2.512S384.022,252.26,377.683,251.194Z" transform="translate(-74.381 -44.013)" fill="#65d6d0"/>
      <path id="Trazado_643" data-name="Trazado 643" d="M384.16,270.64a11.522,11.522,0,0,0,1.507,4.561l1.778,3.046c.085-1.214.186-2.435.294-3.672C386.518,273.237,385.3,271.915,384.16,270.64Z" transform="translate(-87.204 -48.95)" opacity="0.3" style="isolation: isolate"/>
      <path id="Trazado_644" data-name="Trazado 644" d="M388.714,275.74h0c-.108,1.237-.209,2.458-.294,3.672h0C388.5,278.2,388.606,276.969,388.714,275.74Z" transform="translate(-88.171 -50.108)" opacity="0.3" style="isolation: isolate"/>
      <path id="Trazado_645" data-name="Trazado 645" d="M363.07,239.82a2.683,2.683,0,0,0,.085.487A2.68,2.68,0,0,0,363.07,239.82Z" transform="translate(-82.417 -41.954)" fill="#7f3e3b"/>
      <path id="Trazado_646" data-name="Trazado 646" d="M363.3,241.579a7.756,7.756,0,0,0-.124-1.129C363.234,240.829,363.28,241.208,363.3,241.579Z" transform="translate(-82.442 -42.097)" opacity="0.2" style="isolation: isolate"/>
      <path id="Trazado_647" data-name="Trazado 647" d="M368.087,237.45c-.155.108-.3.224-.464.332a8.919,8.919,0,0,1-4.553,1.5,2.683,2.683,0,0,0,.085.487c.054.379.1.773.124,1.129v.07A7.792,7.792,0,0,0,368.087,237.45Z" transform="translate(-82.417 -41.416)" fill="#7f3e3b"/>
      <path id="Trazado_648" data-name="Trazado 648" d="M373.669,249.9a1.724,1.724,0,0,0-1.283-1.314l-1.608-.387a.958.958,0,0,0-1.051.456l-.054.07c-.773,1.647-3.308,5.666-9.809,7.575l-.5.116h0l-1.105.263-1.546-.773a4.1,4.1,0,0,1-1.685-2.968,4.4,4.4,0,0,1,1.685-3.092,1.641,1.641,0,0,0,.224-.286c.07-.178.054-.263-.07-.34-1.708-1.229-5.527.665-5.682.989-.162.162-.325.332-.487.526a5.359,5.359,0,0,0-1.237,4.1,8.262,8.262,0,0,0,3.919,6,.173.173,0,0,0,.108,0,.224.224,0,0,0,.124,0,.255.255,0,0,0,.108-.209,4.639,4.639,0,0,1,2.86-4.267l1.353.727c-5.813,23.855-1.871,52.448-1.762,53.221h.448c0-.294-4.1-29.134,1.762-53.121l1.415-.34c1.647,2.01.866,4.994.858,5.025a.231.231,0,0,0,.07.232.239.239,0,0,0,.155.054.159.159,0,0,0,.085,0c.309-.139,7.622-3.339,10.18-6.393a12.217,12.217,0,0,0,2.489-5.024A1.636,1.636,0,0,0,373.669,249.9Z" transform="translate(-79.319 -43.851)" fill="#fff"/>
      <path id="Trazado_649" data-name="Trazado 649" d="M368.087,237.45c-.155.108-.3.224-.464.332a8.919,8.919,0,0,1-4.553,1.5,2.683,2.683,0,0,0,.085.487c.054.379.1.773.124,1.129v.07A7.792,7.792,0,0,0,368.087,237.45Z" transform="translate(-82.417 -41.416)" opacity="0.2" style="isolation: isolate"/>
      <path id="Trazado_650" data-name="Trazado 650" d="M356.252,213.613c3.022-3.865,1.105-6.184-.178-5.968-1.214.572-2.365,2.188-2.961,5.805a9.115,9.115,0,0,0-.062,2.582C354.3,215.971,356.252,213.613,356.252,213.613Z" transform="translate(-80.128 -34.647)" fill="#263238"/>
      <path id="Trazado_651" data-name="Trazado 651" d="M368.561,222.124c8.372-14.726-8.163-16.442-11.533-13.141a14.342,14.342,0,0,0-2.837,3.649l-.7,1.384a21.065,21.065,0,0,0-.773,2,23.683,23.683,0,0,0-1.314,7.6,8.843,8.843,0,0,0,8.8,8.884l.242,0h0A8.919,8.919,0,0,0,365,231c.162-.108.309-.224.464-.332a10.562,10.562,0,0,0,2.775-2.922C369.952,224.969,369.5,223.57,368.561,222.124Z" transform="translate(-79.768 -34.632)" fill="#7f3e3b"/>
      <path id="Trazado_652" data-name="Trazado 652" d="M353.531,214.936a.325.325,0,0,0,.054.448.332.332,0,0,0,.2.07.285.285,0,0,0,.17-.062.2.2,0,0,0,.077-.062,2.676,2.676,0,0,1,2.11-1.059.325.325,0,0,0,.34-.3.317.317,0,0,0-.292-.34h0a3.264,3.264,0,0,0-1.546.379A3.532,3.532,0,0,0,353.531,214.936Z" transform="translate(-80.236 -36.009)" fill="#263238"/>
      <path id="Trazado_653" data-name="Trazado 653" d="M363.114,227.287a.163.163,0,0,0-.224,0,4.537,4.537,0,0,1-3.865.959.162.162,0,0,0-.185.124.17.17,0,0,0,.124.193,5.294,5.294,0,0,0,1.121.1,4.635,4.635,0,0,0,3.007-1.144.162.162,0,0,0,.026-.228Z" transform="translate(-81.456 -39.099)" fill="#263238"/>
      <path id="Trazado_654" data-name="Trazado 654" d="M357.935,220.16a20.34,20.34,0,0,1-3.625,4.027,3.139,3.139,0,0,0,2.443.989Z" transform="translate(-80.428 -37.491)" fill="#630f0f"/>
      <path id="Trazado_655" data-name="Trazado 655" d="M355.33,219.835c.348.07.773-.3.858-.835s-.054-1.013-.4-1.082-.734.3-.858.835S354.975,219.765,355.33,219.835Z" transform="translate(-80.56 -36.98)" fill="#263238"/>
      <path id="Trazado_656" data-name="Trazado 656" d="M363.148,221.435c.348.07.727-.3.858-.835s-.062-1.013-.41-1.082-.734.3-.858.835S362.793,221.334,363.148,221.435Z" transform="translate(-82.333 -37.344)" fill="#263238"/>
      <path id="Trazado_657" data-name="Trazado 657" d="M374.924,208.6c3.27-2.8-4.182-8.5-4.182-8.5s.835,2.041-.9,2.605-13.914-3.981-13.736,1.175a3.96,3.96,0,0,0,.673,2.033,5.884,5.884,0,0,0,1.314,1.353c2.829,2.149,7.977,2.806,10.76,2.806a14.343,14.343,0,0,0-.92,3.355,8.926,8.926,0,0,0,1.693,6.957c1.546,2.69,3.61,2.613,5.372.564C377.831,218.273,380.559,212.855,374.924,208.6Z" transform="translate(-80.836 -32.938)" fill="#263238"/>
      <path id="Trazado_658" data-name="Trazado 658" d="M376.829,225.013a3.944,3.944,0,0,0-3.865,1.028,7.484,7.484,0,0,0-1.6,1.755c-1.09,1.708-.7,3.695,1.252,3.865h.8a6.734,6.734,0,0,0,4.074-1.932,3.131,3.131,0,0,0,.843-3.092A2.514,2.514,0,0,0,376.829,225.013Z" transform="translate(-84.164 -38.549)" fill="#7f3e3b"/>
      <path id="Trazado_659" data-name="Trazado 659" d="M341.543,328.61s-.209,1.809-.533,4.847a58.679,58.679,0,0,0,36.555.34c.077-3.672.131-5.867.131-5.867l-22.958.433h-.448Z" transform="translate(-77.409 -61.955)" fill="#263238"/>
      <path id="Trazado_660" data-name="Trazado 660" d="M409.4,285.936a7.654,7.654,0,0,0-.448-1.925,7.173,7.173,0,0,0-.394-.9l-.224-.417-.124-.216a64.722,64.722,0,0,0-3.556-5.411l-7.019,6.764c.928,1.159,1.832,2.319,2.667,3.509a5.542,5.542,0,0,1-.6,1.121,25.52,25.52,0,0,1-3.865,4.259,114.023,114.023,0,0,1-9.5,7.676l-1.075.139-4.313.587-4.244,2.868,2.791,5.674,3.509-1.793a13.421,13.421,0,0,0,2.466-.58,5.272,5.272,0,0,0,3.038-2.149,64.237,64.237,0,0,0,6.022-2.752,59.652,59.652,0,0,0,6.107-3.625q1.492-1.02,2.953-2.234a22.651,22.651,0,0,0,2.86-2.806,12.9,12.9,0,0,0,2.52-4.306A8.293,8.293,0,0,0,409.4,285.936Zm-9.036,1.221v-.116c0-.185.07-.255.07-.147a.829.829,0,0,1-.054.263Z" transform="translate(-85.513 -50.41)" fill="#7f3e3b"/>
      <circle id="Elipse_155" data-name="Elipse 155" cx="21.219" cy="21.219" r="21.219" transform="translate(205.261 233.761)" fill="#263238"/>
      <path id="Trazado_661" data-name="Trazado 661" d="M300.626,307.695h-9.678v-9.678a1.987,1.987,0,0,0-3.973,0v9.678H277.3a1.987,1.987,0,1,0,0,3.973h9.678v9.678a1.987,1.987,0,0,0,3.973,0v-9.678h9.678a1.987,1.987,0,1,0,0-3.973Z" transform="translate(-62.495 -54.714)" fill="#fff"/>
      <path id="Trazado_662" data-name="Trazado 662" d="M364.689,216.582a2.442,2.442,0,0,1,1.762,1.438.325.325,0,0,0,.294.186.271.271,0,0,0,.131,0,.317.317,0,0,0,.157-.42l0-.005a3.1,3.1,0,0,0-2.257-1.8.32.32,0,0,0-.085.634h0Z" transform="translate(-82.721 -36.542)" fill="#263238"/>
      <path id="Trazado_13" data-name="Trazado 13" d="M217,225.808a33.155,33.155,0,1,0,0,.532Q217.005,226.074,217,225.808Z" transform="translate(-34.104 -31.204)" fill="#c1efec"/>
      <path id="Trazado_14" data-name="Trazado 14" d="M201.4,221.781s-7.838,4.108-9.537,5.181a.446.446,0,0,0-.2.492c.123,1.5.623,7.615.786,10.58,0,0,.107.9,1.857-.292l7.583-5.039a.561.561,0,0,0,.311-.489l.184-10.088S202.34,221.4,201.4,221.781Z" transform="translate(-43.505 -37.834)" fill="#fdfdfd"/>
      <path id="Trazado_15" data-name="Trazado 15" d="M170.9,238.655s.055,15.172,6.767,22.7c0,0,.489.655,1.362-.1,0,0,7.538-5.816,8.738-6.912a73.639,73.639,0,0,1-3.333-23.183s.037-.78-1.123-.232S174.108,236.589,170.9,238.655Z" transform="translate(-38.793 -39.892)" fill="#fdfdfd"/>
      <path id="Trazado_16" data-name="Trazado 16" d="M172.283,217.784a68.077,68.077,0,0,0-1.39,12.208s.27.8,1.517,0a219.539,219.539,0,0,1,19.883-11.41s.827-8.054,1.4-10.771c0,0,.246-.826-1.838-.107A98.114,98.114,0,0,0,172.283,217.784Z" transform="translate(-38.793 -34.597)" fill="#f2f2f2"/>
      <path id="Trazado_17" data-name="Trazado 17" d="M202.526,206.146c-.136,1.19-.82,7.265-.807,9.768,0,0-.064,1.13.91.618.873-.458,6.462-3.173,7.839-3.822a.524.524,0,0,0,.311-.412c.073-1.313.391-6.925.56-8.306,0,0,.1-.778-1.486-.3-1.507.458-4.963,1.265-7,2.114C202.75,205.854,202.562,205.9,202.526,206.146Z" transform="translate(-45.79 -33.718)" fill="#f2f2f2"/>
    </g>
  </g>
</svg>
