<svg xmlns="http://www.w3.org/2000/svg" width="131.238" height="131.469" viewBox="0 0 131.238 131.469">
  <g id="Grupo_928" data-name="Grupo 928" opacity="0.999">
    <g id="freepik--Shadow--inject-13" transform="translate(21.406 116.072)">
      <ellipse id="freepik--path--inject-13" cx="52.376" cy="7.698" rx="52.376" ry="7.698" fill="#f5f5f5"/>
    </g>
    <path id="Trazado_639" data-name="Trazado 639" d="M266.809,238.182a63.589,63.589,0,0,0,1.217,12.391,25.557,25.557,0,0,0-12.506,21.918,25.3,25.3,0,0,0,.68,6h55.956a4.284,4.284,0,0,0,4.271-4.271V176.29A63.47,63.47,0,0,0,266.809,238.182Z" transform="translate(-255.519 -176.29)" opacity="0.1" style="isolation: isolate"/>
    <circle id="Elipse_153" data-name="Elipse 153" cx="56.574" cy="56.574" r="56.574" transform="translate(18.089 7.992)" fill="#65d6d0"/>
    <circle id="Elipse_154" data-name="Elipse 154" cx="51.576" cy="51.576" r="51.576" transform="translate(23.352 12.92)" fill="#fff"/>
    <path id="Trazado_640" data-name="Trazado 640" d="M331.417,220.25l-3.292,4.216a18.721,18.721,0,0,0-3.985,4.08c-1.279,1.265-2.448,2.564-3.6,3.931a54.111,54.111,0,0,0-3.7,4.9,28.432,28.432,0,0,0-3.074,5.842,12.349,12.349,0,0,0-.823,4.08,7.577,7.577,0,0,0,.517,2.89,6.8,6.8,0,0,0,2.156,2.856l.721.544,1.081.2a36.483,36.483,0,0,0,6.474.639l.857-.075-.884-8.623c-.728,0-2.292.143-3.006.129a1.754,1.754,0,0,1,.088-.408,25.721,25.721,0,0,1,1.768-4.76c.762-1.653,1.639-3.305,2.55-4.951.8-1.455,1.666-2.917,2.5-4.346l4.08-2.571,2.387-4.237ZM320.8,247.112a1.189,1.189,0,0,1,0-.2.518.518,0,0,1,.061.156C320.883,247.235,320.835,247.242,320.8,247.112Z" transform="translate(-273.89 -190.354)" fill="#7f3e3b"/>
    <path id="Trazado_641" data-name="Trazado 641" d="M368.406,232.983c.1-.524-3.475-2.319-5.937-.857-2.129,1.265-2.4,2.992-1.625,5.053a3.138,3.138,0,0,0,.075.428c.048.333.088.68.109.993.156,2.169-.415,4.189-2.856,5.338,0,.136-.333.279-.442.374a4.866,4.866,0,0,0-1.619,3.094c0,.884.836,1.585,1.809,2.428l1.36.918,1.863-.177c5.719-1.68,8.392-6.9,8.27-7.29C367.943,240.865,367.964,236.621,368.406,232.983Z" transform="translate(-287.702 -193.974)" fill="#7f3e3b"/>
    <path id="Trazado_642" data-name="Trazado 642" d="M371.67,250.917l-1.034-.177c-1.36-.218-7.426-1.591-10.357-1.85h0c-.68,1.449-2.911,4.985-8.63,6.665l-1.415.333-1.36-.68a3.6,3.6,0,0,1-1.483-2.611,3.87,3.87,0,0,1,1.483-2.72.445.445,0,0,0,.116-.156v-.286c-.428.054-5.855.877-6.311.952a88.388,88.388,0,0,0-15.009,4.169l.054.49.986,8.562.367,3.244s2.72-.306,6.291-.932c-.973,8.664-1.163,21.218,1.809,37.356l11.609-.218,20.171-.374c.082-1.36-.068-4.176-.211-8.025l-.184-5.944c-.109-5.25-.088-11.561.381-18.307.075-1.068.163-2.142.258-3.23h0c4.121,4.454,8.249,8.712,8.249,8.712l1.952-1.877a16.171,16.171,0,0,0,6.175-5.951l2.292-2.21S377.247,251.855,371.67,250.917Z" transform="translate(-278.603 -199.517)" fill="#65d6d0"/>
    <path id="Trazado_643" data-name="Trazado 643" d="M384.16,270.64a10.137,10.137,0,0,0,1.326,4.012l1.564,2.679c.075-1.068.163-2.142.258-3.23C386.234,272.925,385.16,271.762,384.16,270.64Z" transform="translate(-296.676 -206.476)" opacity="0.3" style="isolation: isolate"/>
    <path id="Trazado_644" data-name="Trazado 644" d="M388.678,275.74h0c-.1,1.088-.184,2.163-.258,3.23h0C388.488,277.9,388.583,276.821,388.678,275.74Z" transform="translate(-298.039 -208.108)" opacity="0.3" style="isolation: isolate"/>
    <path id="Trazado_645" data-name="Trazado 645" d="M363.07,239.82a2.361,2.361,0,0,0,.075.428A2.359,2.359,0,0,0,363.07,239.82Z" transform="translate(-289.929 -196.616)" fill="#7f3e3b"/>
    <path id="Trazado_646" data-name="Trazado 646" d="M363.289,241.443a6.823,6.823,0,0,0-.109-.993C363.228,240.783,363.268,241.116,363.289,241.443Z" transform="translate(-289.964 -196.817)" opacity="0.2" style="isolation: isolate"/>
    <path id="Trazado_647" data-name="Trazado 647" d="M367.484,237.45c-.136.1-.265.2-.408.292a7.847,7.847,0,0,1-4.006,1.319,2.361,2.361,0,0,0,.075.428c.048.333.088.68.109.993v.061A6.855,6.855,0,0,0,367.484,237.45Z" transform="translate(-289.929 -195.857)" fill="#7f3e3b"/>
    <path id="Trazado_648" data-name="Trazado 648" d="M370.754,249.7a1.516,1.516,0,0,0-1.129-1.156l-1.415-.34a.843.843,0,0,0-.925.4l-.048.061c-.68,1.449-2.911,4.985-8.63,6.665l-.442.1h0l-.973.231-1.36-.68a3.6,3.6,0,0,1-1.483-2.611,3.87,3.87,0,0,1,1.483-2.72,1.445,1.445,0,0,0,.2-.252c.061-.156.048-.231-.061-.3-1.5-1.081-4.862.585-5,.87-.143.143-.286.292-.428.462a4.715,4.715,0,0,0-1.088,3.6,7.269,7.269,0,0,0,3.448,5.277.152.152,0,0,0,.1,0,.2.2,0,0,0,.109,0,.225.225,0,0,0,.1-.184,4.081,4.081,0,0,1,2.516-3.754l1.19.639c-5.114,20.987-1.646,46.142-1.551,46.822h.394c0-.258-3.6-25.632,1.551-46.734l1.245-.3c1.449,1.768.762,4.393.755,4.42a.2.2,0,0,0,.061.2.21.21,0,0,0,.136.048.14.14,0,0,0,.075,0c.272-.122,6.705-2.938,8.956-5.624a10.748,10.748,0,0,0,2.19-4.42A1.44,1.44,0,0,0,370.754,249.7Z" transform="translate(-285.562 -199.289)" fill="#fff"/>
    <path id="Trazado_649" data-name="Trazado 649" d="M367.484,237.45c-.136.1-.265.2-.408.292a7.847,7.847,0,0,1-4.006,1.319,2.361,2.361,0,0,0,.075.428c.048.333.088.68.109.993v.061A6.855,6.855,0,0,0,367.484,237.45Z" transform="translate(-289.929 -195.857)" opacity="0.2" style="isolation: isolate"/>
    <path id="Trazado_650" data-name="Trazado 650" d="M355.859,212.894c2.659-3.4.973-5.44-.156-5.25-1.068.5-2.081,1.925-2.6,5.107a8.02,8.02,0,0,0-.054,2.271C354.139,214.969,355.859,212.894,355.859,212.894Z" transform="translate(-286.703 -186.317)" fill="#263238"/>
    <path id="Trazado_651" data-name="Trazado 651" d="M366.5,220.374c7.365-12.955-7.181-14.465-10.147-11.561a12.617,12.617,0,0,0-2.5,3.21l-.619,1.217a18.533,18.533,0,0,0-.68,1.761,20.835,20.835,0,0,0-1.156,6.685,7.78,7.78,0,0,0,7.744,7.816l.213,0h0a7.846,7.846,0,0,0,4.006-1.319c.143-.1.272-.2.408-.292a9.292,9.292,0,0,0,2.441-2.571C367.721,222.876,367.327,221.645,366.5,220.374Z" transform="translate(-286.195 -186.296)" fill="#7f3e3b"/>
    <path id="Trazado_652" data-name="Trazado 652" d="M353.523,214.779a.286.286,0,0,0,.048.394.292.292,0,0,0,.177.061.251.251,0,0,0,.15-.054.172.172,0,0,0,.068-.054,2.355,2.355,0,0,1,1.857-.932.286.286,0,0,0,.3-.265.279.279,0,0,0-.257-.3h0a2.872,2.872,0,0,0-1.36.333A3.107,3.107,0,0,0,353.523,214.779Z" transform="translate(-286.856 -188.236)" fill="#263238"/>
    <path id="Trazado_653" data-name="Trazado 653" d="M362.6,227.282a.143.143,0,0,0-.2,0,3.992,3.992,0,0,1-3.4.843.142.142,0,0,0-.163.109.15.15,0,0,0,.109.17,4.659,4.659,0,0,0,.986.088,4.078,4.078,0,0,0,2.645-1.007.143.143,0,0,0,.023-.2Z" transform="translate(-288.574 -192.592)" fill="#263238"/>
    <path id="Trazado_654" data-name="Trazado 654" d="M357.5,220.16a17.9,17.9,0,0,1-3.189,3.543,2.761,2.761,0,0,0,2.149.87Z" transform="translate(-287.126 -190.326)" fill="#630f0f"/>
    <path id="Trazado_655" data-name="Trazado 655" d="M355.277,219.6c.306.061.68-.265.755-.734s-.048-.891-.354-.952-.646.265-.755.734S354.964,219.542,355.277,219.6Z" transform="translate(-287.311 -189.606)" fill="#263238"/>
    <path id="Trazado_656" data-name="Trazado 656" d="M363.094,221.2c.306.061.639-.265.755-.734s-.054-.891-.36-.952-.646.265-.755.734S362.781,221.115,363.094,221.2Z" transform="translate(-289.81 -190.117)" fill="#263238"/>
    <path id="Trazado_657" data-name="Trazado 657" d="M372.662,207.581c2.877-2.462-3.679-7.481-3.679-7.481s.734,1.8-.789,2.292-12.241-3.5-12.085,1.034a3.484,3.484,0,0,0,.592,1.789,5.177,5.177,0,0,0,1.156,1.19c2.489,1.891,7.018,2.469,9.466,2.469a12.619,12.619,0,0,0-.809,2.951A7.853,7.853,0,0,0,368,217.945c1.36,2.367,3.176,2.3,4.726.5C375.219,216.088,377.62,211.321,372.662,207.581Z" transform="translate(-287.701 -183.908)" fill="#263238"/>
    <path id="Trazado_658" data-name="Trazado 658" d="M376.1,224.99a3.47,3.47,0,0,0-3.4.9,6.585,6.585,0,0,0-1.408,1.544c-.959,1.5-.619,3.251,1.1,3.4h.707a5.924,5.924,0,0,0,3.584-1.7,2.755,2.755,0,0,0,.741-2.72A2.211,2.211,0,0,0,376.1,224.99Z" transform="translate(-292.391 -191.817)" fill="#7f3e3b"/>
    <path id="Trazado_659" data-name="Trazado 659" d="M341.479,328.528s-.184,1.591-.469,4.264a51.624,51.624,0,0,0,32.16.3c.068-3.23.116-5.162.116-5.162l-20.2.381h-.394Z" transform="translate(-282.871 -224.805)" fill="#263238"/>
    <path id="Trazado_660" data-name="Trazado 660" d="M405.47,284.87a6.736,6.736,0,0,0-.394-1.693,6.311,6.311,0,0,0-.347-.789l-.2-.367-.109-.19a56.938,56.938,0,0,0-3.128-4.76l-6.175,5.951c.816,1.02,1.612,2.04,2.346,3.087a4.876,4.876,0,0,1-.524.986,22.453,22.453,0,0,1-3.4,3.747,100.314,100.314,0,0,1-8.358,6.753l-.945.122-3.795.517-3.734,2.523,2.455,4.992,3.087-1.578a11.808,11.808,0,0,0,2.169-.51,4.638,4.638,0,0,0,2.673-1.891,56.514,56.514,0,0,0,5.3-2.421,52.479,52.479,0,0,0,5.372-3.189q1.313-.9,2.6-1.965a19.928,19.928,0,0,0,2.516-2.469,11.35,11.35,0,0,0,2.217-3.788A7.3,7.3,0,0,0,405.47,284.87Zm-7.95,1.074v-.1c0-.163.061-.224.061-.129a.73.73,0,0,1-.048.231Z" transform="translate(-294.293 -208.533)" fill="#7f3e3b"/>
    <circle id="Elipse_155" data-name="Elipse 155" cx="18.668" cy="18.668" r="18.668" transform="translate(6.814 74.784)" fill="#263238"/>
    <path id="Trazado_661" data-name="Trazado 661" d="M297.582,306.292h-8.514v-8.514a1.748,1.748,0,1,0-3.5,0v8.514h-8.514a1.748,1.748,0,1,0,0,3.5h8.514V318.3a1.748,1.748,0,0,0,3.5,0v-8.514h8.514a1.748,1.748,0,1,0,0-3.5Z" transform="translate(-261.851 -214.599)" fill="#fff"/>
    <path id="Trazado_662" data-name="Trazado 662" d="M364.655,216.509a2.148,2.148,0,0,1,1.551,1.265.286.286,0,0,0,.258.163.238.238,0,0,0,.116,0,.279.279,0,0,0,.138-.369l0,0a2.723,2.723,0,0,0-1.986-1.585.281.281,0,0,0-.075.558h0Z" transform="translate(-290.358 -188.987)" fill="#263238"/>
  </g>
</svg>
