<svg xmlns="http://www.w3.org/2000/svg" xmlns:xlink="http://www.w3.org/1999/xlink" width="118.688" height="118.688" viewBox="0 0 118.688 118.688">
  <defs>
    <clipPath id="clip-path">
      <rect id="Rect치ngulo_1559" data-name="Rect치ngulo 1559" width="118.688" height="118.688" rx="24.697" fill="none"/>
    </clipPath>
    <linearGradient id="linear-gradient" x1="0.5" y1="0.195" x2="0.5" y2="0.788" gradientUnits="objectBoundingBox">
      <stop offset="0.652" stop-color="#fff" stop-opacity="0.102"/>
      <stop offset="0.813" stop-color="#fff" stop-opacity="0"/>
    </linearGradient>
  </defs>
  <g id="Grupo_937" data-name="Grupo 937" transform="translate(-119.141 -394.079)">
    <g id="Grupo_905" data-name="Grupo 905" transform="translate(119.141 394.079)">
      <rect id="Rect치ngulo_1558" data-name="Rect치ngulo 1558" width="118.688" height="118.688" rx="24.697" fill="#65d6d0"/>
      <g id="Grupo_904" data-name="Grupo 904">
        <g id="Grupo_903" data-name="Grupo 903" clip-path="url(#clip-path)">
          <path id="Trazado_568" data-name="Trazado 568" d="M422.005,403.477s9.344,25.3,29.373.775,28.965-27.848,54.848-8.159,42.831,18.934,54.54-2.72,35.742-15.48,33.875,10.879-55.137,71.413-78.554,71.515-59.04-2.127-61.412-4.094-25.345-24.153-25.345-24.153l-5.754-2.295Z" transform="translate(-459.141 -321.949)" fill="url(#linear-gradient)"/>
        </g>
      </g>
    </g>
    <g id="money-bag" transform="translate(149.295 412)">
      <path id="Trazado_200" data-name="Trazado 200" d="M24.274,196.585a44.032,44.032,0,0,0,13.124-1.6,6.366,6.366,0,0,1,1.846-5.834,6.468,6.468,0,0,1,0-9.289,6.468,6.468,0,0,1,0-9.289,6.458,6.458,0,0,1,.709-9.873,26.351,26.351,0,0,0-3.524-2.716,3.64,3.64,0,0,0,.849-2.272A3.715,3.715,0,0,0,33.563,152H14.986a3.715,3.715,0,0,0-3.715,3.715,3.64,3.64,0,0,0,.845,2.267A26.589,26.589,0,0,0,0,179.866c0,14.987,13.906,16.719,24.274,16.719Zm-.02-18.033a5.559,5.559,0,0,1-1.838-10.81V165a1.858,1.858,0,1,1,3.715,0v2.751a5.564,5.564,0,0,1,3.7,5.224,1.858,1.858,0,0,1-3.715,0,1.858,1.858,0,1,0-1.858,1.858,5.56,5.56,0,0,1,1.878,10.8V187.3a1.858,1.858,0,1,1-3.715,0v-1.65a5.563,5.563,0,0,1-3.735-5.237,1.858,1.858,0,1,1,3.715,0,1.858,1.858,0,1,0,1.858-1.858Zm0,0" transform="translate(0 -133.175)" fill="#fff"/>
      <path id="Trazado_201" data-name="Trazado 201" d="M350.63,467H333.787a2.787,2.787,0,1,0,0,5.573H350.63a2.787,2.787,0,1,0,0-5.573Zm0,0" transform="translate(-290.006 -409.163)" fill="#fff"/>
      <path id="Trazado_202" data-name="Trazado 202" d="M350.63,392H333.787a2.787,2.787,0,1,0,0,5.573H350.63a2.787,2.787,0,0,0,0-5.573Zm0,0" transform="translate(-290.006 -343.452)" fill="#fff"/>
      <path id="Trazado_203" data-name="Trazado 203" d="M350.63,317H333.787a2.787,2.787,0,1,0,0,5.573H350.63a2.787,2.787,0,1,0,0-5.573Zm0,0" transform="translate(-290.006 -277.74)" fill="#fff"/>
      <path id="Trazado_204" data-name="Trazado 204" d="M350.63,242H333.787a2.787,2.787,0,1,0,0,5.573H350.63a2.787,2.787,0,1,0,0-5.573Zm0,0" transform="translate(-290.006 -212.029)" fill="#fff"/>
      <path id="Trazado_205" data-name="Trazado 205" d="M109.235,3.715a5.558,5.558,0,0,0-10.487,0h-5.89A1.856,1.856,0,0,0,91.1,6.161L94,15.109h20.015l2.9-8.948a1.856,1.856,0,0,0-1.761-2.445Zm0,0" transform="translate(-79.729)" fill="#fff"/>
    </g>
    <text id="Pagar_antes_mi_Credito" data-name="Pagar antes mi
Credito" transform="translate(136 494)" fill="#fff" font-size="12" font-family="Poppins-Medium, Poppins" font-weight="500"><tspan x="0" y="0">Pagar antes mi</tspan><tspan x="0" y="12">Credito</tspan></text>
  </g>
</svg>
