<svg xmlns="http://www.w3.org/2000/svg" width="144.555" height="192.649" viewBox="0 0 144.555 192.649">
  <g id="Grupo_927" data-name="Grupo 927" transform="translate(-882.5 -180.358)">
    <path id="Trazado_592" data-name="Trazado 592" d="M1135.114,867.1a141.4,141.4,0,0,1-17.172,4.4,1.907,1.907,0,0,0,.354,3.781,1.93,1.93,0,0,0,.359-.034,145.243,145.243,0,0,0,17.637-4.521,1.907,1.907,0,1,0-1.179-3.628Z" transform="translate(-171.089 -502.276)" fill="#2d2d2d"/>
    <path id="Trazado_593" data-name="Trazado 593" d="M1256.8,760a143.069,143.069,0,0,1-39.314,26.057,1.907,1.907,0,1,0,1.553,3.483,146.886,146.886,0,0,0,40.365-26.754,1.907,1.907,0,0,0-2.6-2.787Z" transform="translate(-244.212 -423.627)" fill="#2d2d2d"/>
    <path id="Trazado_594" data-name="Trazado 594" d="M1097.328,815.793a1.905,1.905,0,0,0-2.545-.891,134.365,134.365,0,0,1-51.3,13.083,1.907,1.907,0,0,0,.1,3.812l.1,0a138.156,138.156,0,0,0,52.75-13.456A1.907,1.907,0,0,0,1097.328,815.793Z" transform="translate(-116.436 -464.022)" fill="#2d2d2d"/>
    <path id="Trazado_595" data-name="Trazado 595" d="M1310.61,692.536A135.442,135.442,0,0,1,1279,718.952a1.907,1.907,0,1,0,1.971,3.265,139.226,139.226,0,0,0,32.5-27.159,1.907,1.907,0,0,0-2.86-2.522Z" transform="translate(-289.358 -374.179)" fill="#2d2d2d"/>
    <path id="Trazado_596" data-name="Trazado 596" d="M1031.162,825.455a1.906,1.906,0,0,0-2.288-1.428,131.365,131.365,0,0,1-29.551,3.319c-1.733,0-3.493-.035-5.383-.106a1.907,1.907,0,0,0-.143,3.811c1.937.073,3.745.108,5.525.108a135.143,135.143,0,0,0,30.41-3.417A1.907,1.907,0,0,0,1031.162,825.455Z" transform="translate(-80.071 -470.8)" fill="#2d2d2d"/>
    <path id="Trazado_597" data-name="Trazado 597" d="M1231.37,635.66a1.907,1.907,0,0,0-2.663.431,127.794,127.794,0,0,1-64.374,47.059,1.907,1.907,0,1,0,1.173,3.629,131.615,131.615,0,0,0,66.3-48.457A1.907,1.907,0,0,0,1231.37,635.66Z" transform="translate(-205.191 -332.784)" fill="#2d2d2d"/>
    <path id="Trazado_598" data-name="Trazado 598" d="M1079.714,583.293a1.907,1.907,0,0,0-2.613.667,121.774,121.774,0,0,1-48.051,45.846,119.723,119.723,0,0,1-56.2,13.658,128.049,128.049,0,0,1-14.949-.88,1.907,1.907,0,0,0-.447,3.788,131.761,131.761,0,0,0,15.4.906,123.5,123.5,0,0,0,57.976-14.094,125.586,125.586,0,0,0,49.559-47.278A1.907,1.907,0,0,0,1079.714,583.293Z" transform="translate(-53.595 -294.547)" fill="#2d2d2d"/>
    <path id="Trazado_599" data-name="Trazado 599" d="M925.57,260.55a1.906,1.906,0,0,0,.416-.046,65.334,65.334,0,0,1,11.065-1.482,1.907,1.907,0,0,0,1.812-1.771,66.113,66.113,0,0,1,2.528-14.02,1.907,1.907,0,0,0-3.658-1.079,69.9,69.9,0,0,0-2.536,13.159,69.253,69.253,0,0,0-10.039,1.469,1.907,1.907,0,0,0,.412,3.769Z" transform="translate(-30.112 -44.201)" fill="#2d2d2d"/>
    <path id="Trazado_600" data-name="Trazado 600" d="M1007.532,581.228c23.62-12.392,42.019-32.209,53.208-57.307a1.907,1.907,0,0,0-3.483-1.553c-10.836,24.308-28.644,43.493-51.5,55.483A112.164,112.164,0,0,1,953.1,590.638a121.752,121.752,0,0,1-17.782-1.315c-1.362-.2-2.783-.461-4.222-.783a1.907,1.907,0,0,0-.831,3.722c1.532.342,3.048.623,4.5.834a125.548,125.548,0,0,0,18.335,1.355A115.942,115.942,0,0,0,1007.532,581.228Z" transform="translate(-33.852 -249.348)" fill="#2d2d2d"/>
    <path id="Trazado_601" data-name="Trazado 601" d="M995.849,240.735h.067a1.908,1.908,0,0,0,1.9-1.841,58.422,58.422,0,0,1,6.088-24.108,1.907,1.907,0,0,0-3.417-1.7,62.22,62.22,0,0,0-6.483,25.671A1.907,1.907,0,0,0,995.849,240.735Z" transform="translate(-81.567 -23.168)" fill="#2d2d2d"/>
    <path id="Trazado_602" data-name="Trazado 602" d="M906.878,329.755a1.9,1.9,0,0,0,.625-.106,57.952,57.952,0,0,1,19.033-3.205,1.907,1.907,0,1,0,0-3.814,61.746,61.746,0,0,0-20.283,3.416,1.907,1.907,0,0,0,.625,3.709Z" transform="translate(-16.437 -104.07)" fill="#2d2d2d"/>
    <path id="Trazado_603" data-name="Trazado 603" d="M937.955,523.02a108.43,108.43,0,0,0,50.889-12.348c27.253-14.307,47.532-40.142,56.022-71.205.426-1.532,1.7-4.435-.291-5.3a1.915,1.915,0,0,0-2.609,1.291c-7.7,31.38-27.708,57.563-54.895,71.836a104.654,104.654,0,0,1-49.117,11.911,114.991,114.991,0,0,1-16.663-1.231,51.75,51.75,0,0,1-10.645-2.744,1.907,1.907,0,0,0-1.344,3.57,55.633,55.633,0,0,0,11.433,2.947A118.868,118.868,0,0,0,937.955,523.02Z" transform="translate(-18.702 -185.545)" fill="#2d2d2d"/>
    <path id="Trazado_604" data-name="Trazado 604" d="M1022.283,227.816a1.907,1.907,0,0,0,1.905,1.857h.051a1.907,1.907,0,0,0,1.857-1.956,51.6,51.6,0,0,1,10.563-32.562,1.907,1.907,0,0,0-3.031-2.316A55.432,55.432,0,0,0,1022.283,227.816Z" transform="translate(-102.237 -8.581)" fill="#2d2d2d"/>
    <path id="Trazado_605" data-name="Trazado 605" d="M892.217,359.029a1.914,1.914,0,0,0,2.594.973,50.587,50.587,0,0,1,22.288-5.148,51.71,51.71,0,0,1,7.54.552,1.907,1.907,0,1,0,.558-3.773,55.552,55.552,0,0,0-8.1-.592,54.37,54.37,0,0,0-23.853,5.482A1.919,1.919,0,0,0,892.217,359.029Z" transform="translate(-7 -124.852)" fill="#2d2d2d"/>
    <path id="Trazado_606" data-name="Trazado 606" d="M927.191,454.656a100.872,100.872,0,0,0,47.342-11.478c32.554-17.085,53.551-50.791,56.169-90.163a1.907,1.907,0,0,0-3.806-.253c-2.528,38.038-22.765,70.576-54.134,87.039a97.094,97.094,0,0,1-45.57,11.041,107.222,107.222,0,0,1-15.549-1.147,43.634,43.634,0,0,1-15.432-5.335,1.907,1.907,0,1,0-1.9,3.306,47.456,47.456,0,0,0,16.777,5.8A111.11,111.11,0,0,0,927.191,454.656Z" transform="translate(-7.938 -124.809)" fill="#2d2d2d"/>
    <path id="Trazado_607" data-name="Trazado 607" d="M886.512,245.763a1.9,1.9,0,0,0,1.052-.318,43.642,43.642,0,0,1,30.5-6.828,18.446,18.446,0,0,0,2.715.2,10.551,10.551,0,0,0,4.821-.988c3.876-2.033,7.673-9,7.429-18.375a43.654,43.654,0,0,1,16.019-35.011,1.907,1.907,0,1,0-2.425-2.944,47.445,47.445,0,0,0-17.407,38.053c.213,8.215-3.022,13.658-5.386,14.9a6.65,6.65,0,0,1-3.051.553,14.617,14.617,0,0,1-2.16-.163,47.415,47.415,0,0,0-33.159,7.422,1.907,1.907,0,0,0,1.055,3.5Z" transform="translate(-1.539 -0.519)" fill="#2d2d2d"/>
    <path id="Trazado_608" data-name="Trazado 608" d="M920.853,406.122a93.3,93.3,0,0,0,43.794-10.6c33.341-17.495,53.391-53.844,52.327-94.859-.03-1.237-.122-2.5-.281-3.861a1.907,1.907,0,0,0-3.807.169,1.889,1.889,0,0,0,.013.224c.149,1.262.234,2.427.262,3.564,1.026,39.555-18.242,74.572-50.286,91.387a89.527,89.527,0,0,1-42.023,10.164,98.343,98.343,0,0,1-14.43-1.071,35.992,35.992,0,0,1-18.57-8.555,1.907,1.907,0,0,0-2.517,2.866,39.8,39.8,0,0,0,20.529,9.462A102.122,102.122,0,0,0,920.853,406.122Z" transform="translate(-1.601 -83.902)" fill="#2d2d2d"/>
    <path id="Trazado_609" data-name="Trazado 609" d="M884.408,255.32a1.9,1.9,0,0,0,1.287-.5,35.977,35.977,0,0,1,29.717-9.17,26.351,26.351,0,0,0,3.826.28,17.784,17.784,0,0,0,8.368-1.865c7.181-3.762,11.8-13.94,11.5-25.324a36.391,36.391,0,0,1,23.047-34.7,1.907,1.907,0,1,0-1.391-3.551A40.216,40.216,0,0,0,935.3,218.839c.264,9.965-3.538,18.745-9.464,21.849a14.044,14.044,0,0,1-6.593,1.428,22.5,22.5,0,0,1-3.266-.238,39.793,39.793,0,0,0-32.852,10.129,1.907,1.907,0,0,0,1.288,3.314Z" transform="translate(-0.001)" fill="#2d2d2d"/>
    <path id="Trazado_610" data-name="Trazado 610" d="M905.381,327.237a95.4,95.4,0,0,0,13.872,1.028,85.757,85.757,0,0,0,40.255-9.731c30.743-16.131,49.226-49.815,48.239-87.906a32.137,32.137,0,0,0-10.246-22.9l-.264-.256-.053-.026a31.793,31.793,0,0,0-9.512-6c-.466-.188-.94-.364-1.417-.531l-.32-.155h-.14a32.52,32.52,0,0,0-10.467-1.709c-.259,0-.518,0-.836.008a32.469,32.469,0,0,0-31.568,33.255c.34,13-4.978,24.309-13.55,28.8a20.541,20.541,0,0,1-7.732,2.192,1.907,1.907,0,0,0,.346,3.8,24.323,24.323,0,0,0,9.158-2.613c9.849-5.165,15.968-17.836,15.59-32.281a28.652,28.652,0,0,1,27.854-29.343c.279-.007.5-.005.738-.007a28.7,28.7,0,0,1,9.446,1.573,67.39,67.39,0,0,1,10.155,6.1,28.4,28.4,0,0,1,9.006,20.186c.95,36.627-16.753,68.979-46.2,84.429a81.984,81.984,0,0,1-38.483,9.294,91.593,91.593,0,0,1-13.315-.987,28.425,28.425,0,0,1-18.782-11.228c-.4-.547-.787-1.105-1.143-1.66a1.907,1.907,0,1,0-3.211,2.058c.4.625.832,1.252,1.288,1.871A32.213,32.213,0,0,0,905.381,327.237Z" transform="translate(0 -13.673)" fill="#2d2d2d"/>
    <path id="Trazado_611" data-name="Trazado 611" d="M883.376,453.912a1.907,1.907,0,0,0,2.636-.572A28.96,28.96,0,0,1,910.1,440.08a28.5,28.5,0,0,1,4.2.307,1.907,1.907,0,1,0,.563-3.772A32.36,32.36,0,0,0,882.8,451.277,1.907,1.907,0,0,0,883.376,453.912Z" transform="translate(0 -187.193)" fill="#2d2d2d"/>
    <path id="Trazado_612" data-name="Trazado 612" d="M940.6,288.654a29.132,29.132,0,0,1-13.683,3.175,37.793,37.793,0,0,1-5.5-.408,24.779,24.779,0,0,0-28.148,20.908,24.789,24.789,0,0,0,20.9,28.142,87.6,87.6,0,0,0,12.758.942,78.186,78.186,0,0,0,36.709-8.853c28.151-14.771,45.072-45.791,44.159-80.954a24.661,24.661,0,0,0-24.792-24.147c-.2,0-.4,0-.636.008A24.824,24.824,0,0,0,958.23,252.9C958.644,268.783,951.724,282.819,940.6,288.654ZM962.042,252.8a21.006,21.006,0,0,1,20.423-21.516c.2,0,.369-.006.54-.006a20.867,20.867,0,0,1,20.98,20.432c.875,33.7-15.264,63.386-42.118,77.477A74.406,74.406,0,0,1,926.93,337.6a83.771,83.771,0,0,1-12.2-.9,20.975,20.975,0,0,1-17.688-23.813A20.964,20.964,0,0,1,920.859,295.2a41.631,41.631,0,0,0,6.058.449,32.9,32.9,0,0,0,15.455-3.612C954.773,285.526,962.494,270.126,962.042,252.8Z" transform="translate(-7.679 -34.455)" fill="#2d2d2d"/>
    <path id="Trazado_613" data-name="Trazado 613" d="M941.085,319.749A17.15,17.15,0,0,0,921.6,334.224a17.162,17.162,0,0,0,14.473,19.483,79.96,79.96,0,0,0,11.643.86,69.726,69.726,0,0,0,48.17-18.588,1.907,1.907,0,0,0-2.59-2.8,65.914,65.914,0,0,1-45.58,17.574,76.193,76.193,0,0,1-11.087-.819,13.349,13.349,0,0,1-11.256-15.154,13.336,13.336,0,0,1,15.156-11.258,49.382,49.382,0,0,0,7.174.531,40.441,40.441,0,0,0,19-4.485c14.954-7.846,24.277-25.976,23.751-46.187a13.367,13.367,0,0,1,13-13.692c.121,0,.231,0,.342,0a13.281,13.281,0,0,1,13.354,13c.535,20.593-5.814,39.849-17.877,54.221a1.907,1.907,0,0,0,2.922,2.452c12.661-15.086,19.326-35.247,18.768-56.772a17.074,17.074,0,0,0-17.166-16.717c-.14,0-.281,0-.437.006a17.185,17.185,0,0,0-16.712,17.6c.488,18.77-8.033,35.535-21.711,42.711a36.666,36.666,0,0,1-17.228,4.049A45.549,45.549,0,0,1,941.085,319.749Z" transform="translate(-28.464 -55.236)" fill="#2d2d2d"/>
    <path id="Trazado_614" data-name="Trazado 614" d="M989.258,343.725c-10.512,5.518-21.3,5.412-28.5,4.351a9.535,9.535,0,1,0-2.783,18.866,72.321,72.321,0,0,0,10.529.778,63.066,63.066,0,0,0,29.62-7.107c22.964-12.049,36.757-37.739,36-67.047a9.535,9.535,0,0,0-19.064.5C1015.613,315.715,1005.489,335.209,989.258,343.725Zm29.6-49.762a5.722,5.722,0,0,1,11.439-.3c.723,27.843-12.288,52.2-33.955,63.57a59.3,59.3,0,0,1-27.848,6.67,68.508,68.508,0,0,1-9.972-.737,5.722,5.722,0,0,1,.82-11.382,5.833,5.833,0,0,1,.85.063c7.762,1.143,19.412,1.247,30.833-4.746C1008.538,337.917,1019.464,317.058,1018.863,293.962Z" transform="translate(-49.248 -76.016)" fill="#2d2d2d"/>
    <path id="Trazado_615" data-name="Trazado 615" d="M1216,334.785a1.9,1.9,0,0,0,2.281-1.438,76.158,76.158,0,0,0,1.824-18.8,1.907,1.907,0,0,0-3.812.1,72.372,72.372,0,0,1-1.731,17.858A1.907,1.907,0,0,0,1216,334.785Z" transform="translate(-242.867 -96.799)" fill="#2d2d2d"/>
    <path id="Trazado_616" data-name="Trazado 616" d="M980.425,453.95a1.907,1.907,0,1,0-.557,3.773,64.7,64.7,0,0,0,9.41.7,55.8,55.8,0,0,0,26.081-6.233c11.915-6.251,21.459-17.216,26.875-30.875a1.907,1.907,0,1,0-3.545-1.406c-5.08,12.811-13.995,23.076-25.1,28.9C1001.251,455.28,988.745,455.175,980.425,453.95Z" transform="translate(-70.032 -174.344)" fill="#2d2d2d"/>
  </g>
</svg>
