<svg xmlns="http://www.w3.org/2000/svg" width="316" height="75.321" viewBox="0 0 316 75.321">
  <g id="Grupo_919" data-name="Grupo 919" transform="translate(-56 -131.339)">
    <path id="Trazado_1" data-name="Trazado 1" d="M335.192,263.362c0-5.864-.009-11.728,0-17.592.006-2.71.782-3.506,3.471-3.511q11.62-.023,23.239,0c2.117,0,3.144.763,3.3,2.335a2.5,2.5,0,0,1-2.083,2.833,9.98,9.98,0,0,1-1.733.062q-9.23.006-18.46.006c-2.04,0-2.056.019-2.065,2-.014,3.113-.02,6.226,0,9.339.013,1.666.044,1.7,1.7,1.708,4.127.021,8.253.007,12.38.009a15.677,15.677,0,0,1,1.736.031,2.558,2.558,0,0,1,2.433,2.775,2.344,2.344,0,0,1-2.534,2.4c-2.1.076-4.2.025-6.3.026-2.606,0-5.212-.02-7.818.009-1.543.017-1.585.051-1.594,1.588-.024,4.271-.009,8.543-.01,12.814,0,.507.03,1.017-.018,1.519a2.923,2.923,0,0,1-2.924,2.9,2.74,2.74,0,0,1-2.713-3.014c-.035-5.646-.014-11.293-.014-16.94Z" transform="translate(-194.77 -92.431)" fill="#65d6d0"/>
    <path id="Trazado_2" data-name="Trazado 2" d="M421.688,269.65a14.51,14.51,0,0,1,6.8-3c7.251-1.019,14.432,3.094,15.058,11.791.349,4.845.158,9.689.186,14.534.014,2.336-1.089,3.65-2.814,3.675-1.814.027-2.923-1.372-2.937-3.779-.025-4.341.021-8.684-.049-13.024-.062-3.829-1.738-6.376-4.786-7.529a9.076,9.076,0,0,0-10.027,1.941,6.828,6.828,0,0,0-1.757,4.977c-.018,4.414-.007,8.828-.009,13.242,0,.506.023,1.015-.013,1.519a2.659,2.659,0,0,1-2.6,2.652,3,3,0,0,1-2.943-2.4,9.235,9.235,0,0,1-.045-1.516q0-11.071,0-22.143c0-.29-.011-.579,0-.868a2.688,2.688,0,0,1,2.145-2.846,2.763,2.763,0,0,1,3.395,1.952C421.4,269.074,421.338,269.388,421.688,269.65Z" transform="translate(-234.398 -104.358)" fill="#65d6d0"/>
    <path id="Trazado_3" data-name="Trazado 3" d="M703.307,281.185c-.041,6.354-2.124,10.673-6.772,13.511a14.068,14.068,0,0,1-9.127,1.916,14.963,14.963,0,0,1-5.392-1.445A13.22,13.22,0,0,1,674.6,284.2a15.821,15.821,0,0,1,1.379-9.036,12.927,12.927,0,0,1,8.855-7.026,16.155,16.155,0,0,1,9.143.291C699.733,270.365,703.487,276.036,703.307,281.185Zm-14.374-9.555c-5.278-.363-10.2,3.458-10.239,10.427-.037,6.565,3.861,10.677,9.991,10.791,6.6.122,10.241-4.669,10.307-10.655C699.059,276.3,694.77,271.193,688.933,271.63Z" transform="translate(-361.655 -104.909)" fill="#7b7b7b"/>
    <path id="Trazado_4" data-name="Trazado 4" d="M571.157,293.017a2.623,2.623,0,0,0-1.474.963c-4,3.383-8.514,3.734-13.218,1.983a10.87,10.87,0,0,1-7.373-10.09c-.322-5.193-.122-10.42-.1-15.631a2,2,0,0,1,1.641-2.227,2.371,2.371,0,0,1,2.8,1.511,5.007,5.007,0,0,1,.268,2.134c0,4.126.124,8.257-.027,12.378-.2,5.424,3.793,8.989,9,8.816a9.323,9.323,0,0,0,5.984-2.127,6.843,6.843,0,0,0,2.5-5.536c-.017-4.416,0-8.832,0-13.247,0-.507-.017-1.014.005-1.52.069-1.568.762-2.34,2.164-2.433a2.272,2.272,0,0,1,2.433,2,5.85,5.85,0,0,1,.1,1.293q.008,10.968,0,21.935a6.059,6.059,0,0,1-.131,1.505,2.233,2.233,0,0,1-2.314,1.879,2.17,2.17,0,0,1-2.24-2.175A11.185,11.185,0,0,1,571.157,293.017Z" transform="translate(-299.895 -105.074)" fill="#7b7b7b"/>
    <path id="Trazado_5" data-name="Trazado 5" d="M742.375,271.753a13.453,13.453,0,0,1,5.993-3.782c5.656-1.583,11.835.658,14.521,5.4a11.768,11.768,0,0,1,1.489,4.05c.783,5.387.428,10.819.423,16.235a3.682,3.682,0,0,1-.309,1.26,2.163,2.163,0,0,1-2.579,1.46,1.89,1.89,0,0,1-1.76-2.091c-.054-3.038.007-6.077-.033-9.114a36.037,36.037,0,0,0-.317-6.7,8.068,8.068,0,0,0-7.982-6.88,11.233,11.233,0,0,0-3.446.225c-4,1.135-5.908,3.672-5.974,8.2-.061,4.267-.013,8.536-.015,12.8a12.978,12.978,0,0,1-.035,1.734,2,2,0,0,1-2.264,1.83,1.893,1.893,0,0,1-2.1-1.957,10.71,10.71,0,0,1-.014-1.085q0-11.284,0-22.569a9.293,9.293,0,0,1,.021-1.084,1.945,1.945,0,0,1,1.938-1.927,2.216,2.216,0,0,1,2.435,1.936A19.628,19.628,0,0,1,742.375,271.753Z" transform="translate(-392.886 -104.835)" fill="#7b7b7b"/>
    <path id="Trazado_6" data-name="Trazado 6" d="M619.487,296.867a20.851,20.851,0,0,1-10.312-2.9,6.534,6.534,0,0,1-1.2-.923,1.973,1.973,0,0,1-.243-2.89,2.193,2.193,0,0,1,3.234-.5c.59.415,1.122.916,1.724,1.312,3.261,2.14,6.8,2.194,10.422,1.254a3.882,3.882,0,0,0,3.067-3.294c.226-1.418-.889-3.141-2.568-3.938a21.071,21.071,0,0,0-5.186-1.521,20.883,20.883,0,0,1-5.753-1.872c-2.6-1.345-4.3-3.306-4.2-6.5a6.294,6.294,0,0,1,3.265-5.511,14.427,14.427,0,0,1,8.517-1.82,14.245,14.245,0,0,1,7.154,2.2,8.151,8.151,0,0,1,1.934,1.724,1.9,1.9,0,0,1,.188,2.41,1.986,1.986,0,0,1-2.168.633,4.174,4.174,0,0,1-1.871-1.043c-3.023-2.605-6.526-2.365-10.057-1.55a3.027,3.027,0,0,0-2.614,2.806,3.47,3.47,0,0,0,2.214,3.622A19.529,19.529,0,0,0,620,280.045a23.348,23.348,0,0,1,7.146,2.432c4.86,2.788,4.292,9.508-.021,12.3A15.741,15.741,0,0,1,619.487,296.867Z" transform="translate(-328.574 -104.961)" fill="#7b7b7b"/>
    <path id="Trazado_7" data-name="Trazado 7" d="M489.3,292.642a8.263,8.263,0,0,0,6.079-1.825,4.475,4.475,0,0,1,1.134-.621,1.767,1.767,0,0,1,2.1.718,1.62,1.62,0,0,1-.042,2.189,8.318,8.318,0,0,1-2.772,2.053c-7.089,3.55-16.306,1.013-19.749-6.514-2.9-6.342-1.491-14.8,5.2-18.966a14.262,14.262,0,0,1,16.729,1.364c1.567,1.393,1.869,2.477,1,3.482s-2.038.933-3.52-.5c-3.354-3.239-9.654-3.2-12.791-.437a10.923,10.923,0,0,0-3.536,10.4,9.451,9.451,0,0,0,10.173,8.653Z" transform="translate(-263.351 -104.897)" fill="#7b7b7b"/>
    <path id="Trazado_8" data-name="Trazado 8" d="M527.642,260.77q0-7.38,0-14.76a2.541,2.541,0,0,1,.629-2.2,2.378,2.378,0,0,1,3.8.821,5.746,5.746,0,0,1,.3,2.561q.008,13.35,0,26.7c0,.651-.014,1.3.017,1.953.123,2.578,1.147,3.619,3.719,3.81,1.722.128,2.363.684,2.433,2.11a1.9,1.9,0,0,1-1.806,2.255c-4.249.539-6.956-1.067-8.539-5.3a10.68,10.68,0,0,1-.562-3.839C527.662,270.176,527.643,265.473,527.642,260.77Z" transform="translate(-289.428 -92.89)" fill="#7b7b7b"/>
    <path id="Trazado_9" data-name="Trazado 9" d="M402.117,282.048c0,3.691-.072,7.384.024,11.073.069,2.625-1.389,3.772-2.931,3.805-1.8.038-2.9-1.4-2.909-3.807-.016-7.382-.005-14.764-.011-22.146a6.044,6.044,0,0,1,.246-1.927,2.887,2.887,0,0,1,5.327-.208,5.3,5.3,0,0,1,.251,2.138Q402.12,276.512,402.117,282.048Z" transform="translate(-224.825 -104.685)" fill="#65d6d0"/>
    <path id="Trazado_10" data-name="Trazado 10" d="M658.519,282.2c0-3.827-.017-7.655.005-11.482.011-1.9.6-2.627,2.062-2.673a2.545,2.545,0,0,1,2.64,2.568,11.656,11.656,0,0,1,.018,1.3q0,10.615,0,21.23a8.038,8.038,0,0,1-.056,1.512,2.484,2.484,0,0,1-2.69,2c-1.318-.083-1.949-.75-1.963-2.322C658.5,290.293,658.52,286.248,658.519,282.2Z" transform="translate(-353.806 -105.121)" fill="#7b7b7b"/>
    <path id="Trazado_11" data-name="Trazado 11" d="M395.074,247.022a3.591,3.591,0,0,1,3.584-3.593,3.852,3.852,0,0,1,3.63,3.644,3.727,3.727,0,0,1-3.8,3.643A3.468,3.468,0,0,1,395.074,247.022Z" transform="translate(-224.227 -93.011)" fill="#65d6d0"/>
    <path id="Trazado_12" data-name="Trazado 12" d="M659.508,250.624a3.309,3.309,0,0,1-3.225-3.162,3.7,3.7,0,0,1,3.113-3.132,3.382,3.382,0,0,1,3.174,3A3.271,3.271,0,0,1,659.508,250.624Z" transform="translate(-352.709 -93.455)" fill="#7b7b7b"/>
    <g id="Grupo_884" data-name="Grupo 884">
      <path id="Trazado_13" data-name="Trazado 13" d="M244.245,243.566c.529-19.4-15.59-37.77-37.577-37.682a37.66,37.66,0,0,0-.045,75.321C229.311,281.241,244.786,262.37,244.245,243.566Z" transform="translate(-113.052 -74.544)" fill="#65d6d0"/>
      <path id="Trazado_14" data-name="Trazado 14" d="M250.985,256.3s-8.828,4.628-10.741,5.835a.5.5,0,0,0-.225.555c.14,1.694.7,8.577.885,11.916,0,0,.119,1.016,2.092-.328l8.542-5.675a.634.634,0,0,0,.35-.551l.2-11.363S252.044,255.863,250.985,256.3Z" transform="translate(-147.954 -99.279)" fill="#fdfdfd"/>
      <path id="Trazado_15" data-name="Trazado 15" d="M204.44,280.625s.061,17.087,7.621,25.568c0,0,.551.738,1.534-.11,0,0,8.493-6.551,9.842-7.784a82.946,82.946,0,0,1-3.754-26.111s.042-.878-1.266-.261S208.059,278.3,204.44,280.625Z" transform="translate(-130.459 -106.921)" fill="#fdfdfd"/>
      <path id="Trazado_16" data-name="Trazado 16" d="M206,243.425a76.739,76.739,0,0,0-1.565,13.751s.3.9,1.708,0,14.553-9.251,22.4-12.851c0,0,.931-9.072,1.579-12.131,0,0,.278-.929-2.061-.119A110.493,110.493,0,0,0,206,243.425Z" transform="translate(-130.456 -87.264)" fill="#f2f2f2"/>
      <path id="Trazado_17" data-name="Trazado 17" d="M258.16,228.044c-.154,1.339-.923,8.182-.91,11,0,0-.073,1.272,1.024.7.983-.516,7.278-3.573,8.829-4.3a.589.589,0,0,0,.351-.464c.082-1.479.441-7.8.632-9.355,0,0,.115-.876-1.672-.334-1.7.516-5.589,1.425-7.882,2.38C258.412,227.714,258.2,227.765,258.16,228.044Z" transform="translate(-156.434 -84)" fill="#f2f2f2"/>
    </g>
  </g>
</svg>
