<svg xmlns="http://www.w3.org/2000/svg" width="63.41" height="63.41" viewBox="0 0 63.41 63.41">
  <g id="money-bag" transform="translate(0)">
    <path id="Trazado_200" data-name="Trazado 200" d="M24.274,196.585a44.032,44.032,0,0,0,13.124-1.6,6.366,6.366,0,0,1,1.846-5.834,6.468,6.468,0,0,1,0-9.289,6.468,6.468,0,0,1,0-9.289,6.458,6.458,0,0,1,.709-9.873,26.351,26.351,0,0,0-3.524-2.716,3.64,3.64,0,0,0,.849-2.272A3.715,3.715,0,0,0,33.563,152H14.986a3.715,3.715,0,0,0-3.715,3.715,3.64,3.64,0,0,0,.845,2.267A26.589,26.589,0,0,0,0,179.866c0,14.987,13.906,16.719,24.274,16.719Zm-.02-18.033a5.559,5.559,0,0,1-1.838-10.81V165a1.858,1.858,0,1,1,3.715,0v2.751a5.564,5.564,0,0,1,3.7,5.224,1.858,1.858,0,0,1-3.715,0,1.858,1.858,0,1,0-1.858,1.858,5.56,5.56,0,0,1,1.878,10.8V187.3a1.858,1.858,0,1,1-3.715,0v-1.65a5.563,5.563,0,0,1-3.735-5.237,1.858,1.858,0,1,1,3.715,0,1.858,1.858,0,1,0,1.858-1.858Zm0,0" transform="translate(0 -133.175)" fill="#fff"/>
    <path id="Trazado_201" data-name="Trazado 201" d="M350.63,467H333.787a2.787,2.787,0,1,0,0,5.573H350.63a2.787,2.787,0,1,0,0-5.573Zm0,0" transform="translate(-290.006 -409.163)" fill="#fff"/>
    <path id="Trazado_202" data-name="Trazado 202" d="M350.63,392H333.787a2.787,2.787,0,1,0,0,5.573H350.63a2.787,2.787,0,0,0,0-5.573Zm0,0" transform="translate(-290.006 -343.452)" fill="#fff"/>
    <path id="Trazado_203" data-name="Trazado 203" d="M350.63,317H333.787a2.787,2.787,0,1,0,0,5.573H350.63a2.787,2.787,0,1,0,0-5.573Zm0,0" transform="translate(-290.006 -277.74)" fill="#fff"/>
    <path id="Trazado_204" data-name="Trazado 204" d="M350.63,242H333.787a2.787,2.787,0,1,0,0,5.573H350.63a2.787,2.787,0,1,0,0-5.573Zm0,0" transform="translate(-290.006 -212.029)" fill="#fff"/>
    <path id="Trazado_205" data-name="Trazado 205" d="M109.235,3.715a5.558,5.558,0,0,0-10.487,0h-5.89A1.856,1.856,0,0,0,91.1,6.161L94,15.109h20.015l2.9-8.948a1.856,1.856,0,0,0-1.761-2.445Zm0,0" transform="translate(-79.729)" fill="#fff"/>
  </g>
</svg>
