<svg xmlns="http://www.w3.org/2000/svg" xmlns:xlink="http://www.w3.org/1999/xlink" width="380.772" height="368.559" viewBox="0 0 380.772 368.559">
  <defs>
    <linearGradient id="linear-gradient" y1="0.5" x2="1" y2="0.5" gradientUnits="objectBoundingBox">
      <stop offset="0" stop-color="#e2f4ff"/>
      <stop offset="1" stop-color="#d7ecff"/>
    </linearGradient>
  </defs>
  <g id="Grupo_941" data-name="Grupo 941" transform="translate(-26.297 -328.016)">
    <path id="Trazado_545" data-name="Trazado 545" d="M744.2,203.4H445.641c-4.208,0-7.62,5.618-7.62,12.548v38.793h.016V559.42c0,6.928,3.409,12.542,7.617,12.542H744.205c4.207,0,7.617-5.614,7.617-12.542V215.949C751.822,209.02,748.411,203.4,744.2,203.4Z" transform="translate(-344.753 124.614)" fill="#e6e6e6"/>
    <g id="Grupo_902" data-name="Grupo 902" transform="translate(26.297 330.896)">
      <g id="Grupo_897" data-name="Grupo 897" transform="translate(1.236 118.718)">
        <g id="Grupo_896" data-name="Grupo 896">
          <g id="Grupo_893" data-name="Grupo 893" transform="translate(25.569)">
            <path id="Trazado_546" data-name="Trazado 546" d="M390.31,376.318c-15.607.595-7.775,15.076-4.725,27.828,5.541,20.033,2.7,46.088,10.818,48.865,21.643,6.368,14.016-70.283,7.995-73.74C401.568,377.692,395.556,376.807,390.31,376.318Z" transform="translate(-380.904 -376.318)" fill="#f9d8c7"/>
            <g id="Grupo_892" data-name="Grupo 892" transform="translate(11.848 69.049)">
              <path id="Trazado_547" data-name="Trazado 547" d="M410.133,475.4c-15.242-10.742-13.391,78.827-9.169,99.189s8.392-10.532,11.086-43.143S416.13,479.626,410.133,475.4Z" transform="translate(-397.82 -474.508)" fill="#f9d8c7"/>
              <path id="Trazado_548" data-name="Trazado 548" d="M398.618,611.866l.3,8.966,11.245.152v-8.054Z" transform="translate(-398.01 -515.273)" fill="#f9d8c7"/>
              <path id="Trazado_549" data-name="Trazado 549" d="M410.9,624.751s2.371,4.578,10.214,10.548,9.9,4.68,10.078,6.9-33.437.293-33.437.293l.684-18.286S410.895,624.274,410.9,624.751Z" transform="translate(-397.753 -518.937)" fill="#231f20"/>
            </g>
          </g>
          <g id="Grupo_895" data-name="Grupo 895" transform="translate(0 0.01)">
            <path id="Trazado_550" data-name="Trazado 550" d="M363.82,376.7c-15.318-3.049-15.144,13.462-15.142,26.575.733,20.772-4.01,44.846,3.24,49.434,19.57,11.225,25.124-67.57,20.072-72.332C369.6,378.184,368.808,378.4,363.82,376.7Z" transform="translate(-345.518 -376.332)" fill="#f9d8c7"/>
            <g id="Grupo_894" data-name="Grupo 894" transform="translate(2.353 69.039)">
              <path id="Trazado_551" data-name="Trazado 551" d="M360.045,475.4c-15.242-10.742-13.391,78.827-9.169,99.189s8.391-10.532,11.086-43.143S366.042,479.626,360.045,475.4Z" transform="translate(-347.89 -474.508)" fill="#f9d8c7"/>
              <path id="Trazado_552" data-name="Trazado 552" d="M349.437,617.205l-.038,7.467,11.962.09-.028-6.586Z" transform="translate(-348.338 -516.858)" fill="#f9d8c7"/>
            </g>
            <path id="Trazado_553" data-name="Trazado 553" d="M347.843,627.674c-.155,2.95-3.231,13.032-3.3,15.59,19.014.481,18.479,4.306,15.411-15.531Z" transform="translate(-344.544 -450.926)" fill="#231f20"/>
          </g>
        </g>
      </g>
      <path id="Trazado_554" data-name="Trazado 554" d="M399.2,384.256s5.418,63.009,5.143,72.361-9.247,89.158-9.247,89.158l-12.209-.539s-4.951-44.974-1.1-88.16l-7.152-40.068L360.97,548.5H348.042s-.458-80.512-1.284-93.165,2.126-72.906,2.126-72.906Z" transform="translate(-343.922 -259.414)" fill="#231f20"/>
      <path id="Trazado_555" data-name="Trazado 555" d="M398.368,349.621c.166,3.074-24.831,2.992-39.635,1.219-6.246-.748-10.678-1.8-10.678-3.046,1.537-22.85-1.039-39.718-2.8-52.029-2.756-19.333-3.531-27.462,16.674-30.038l15.386,1.551C408.81,272.928,392.871,303.311,398.368,349.621Z" transform="translate(-343.094 -224.779)" fill="#65d6d0"/>
      <path id="Trazado_556" data-name="Trazado 556" d="M359.339,363.166c-6.246-.748-10.678-1.8-10.678-3.046,1.537-22.85-1.039-39.718-2.8-52.029l7.908-.831s-3.074,17.976-2.534,32.337C351.75,353.112,352.373,360.742,359.339,363.166Z" transform="translate(-343.7 -237.105)" opacity="0.5" fill="url(#linear-gradient)"/>
      <path id="Trazado_557" data-name="Trazado 557" d="M383.571,247.889v.156l-.02,2.377-.078,6.2a.073.073,0,0,1-.019.058c-.741,7.949-13.269-.682-14.672-3.994-.974-2.124.468-3.2.507-7.677.039-4.462.039-4.968.039-4.968-15.022-23.888,10.054-33.61,19.64-16.659,0,5.553.584,10.95.681,15.295C389.844,245.181,388.968,249.292,383.571,247.889Z" transform="translate(-349.273 -209.678)" fill="#ffbe9d"/>
      <path id="Trazado_558" data-name="Trazado 558" d="M392.191,216.265a6.594,6.594,0,0,1-3.168,6.285,7.975,7.975,0,0,1-7.137.134c-2.369-.965-4.863-2.354-7.407-1.092-3.526,1.749-.8,7.3-.8,10.1v.07c-.623.277-1.385.609-1.994.831-.319-2.036-.969-3.933-2.3-3.892-1.9.083.083,9.071-.263,9.168-.207.051-2.4-3.148-3.831-7.177a24.57,24.57,0,0,1-.749-2.5c-1.339-5.566-.906-14.281,5.792-16.127a52.035,52.035,0,0,0,8.3-2.671c2.6-1.215,5.257-2.629,8.164-1.454C389.888,209.188,392.033,212.808,392.191,216.265Z" transform="translate(-349.061 -207.498)" fill="#263238"/>
      <g id="Grupo_901" data-name="Grupo 901" transform="translate(0 45.434)">
        <path id="Trazado_559" data-name="Trazado 559" d="M349.008,276.284c-8.407,5.925,4.824,60.1,11.381,57.073C372.112,333.733,364.416,269.491,349.008,276.284Z" transform="translate(-343.828 -273.197)" fill="#f9d8c7"/>
        <path id="Trazado_560" data-name="Trazado 560" d="M367.275,324.937l1.967,11.664,34.586-7.959,3.423,5.975s-42.224,19.55-47.635,14.28-8.993-21.923-8.993-21.923Z" transform="translate(-345.112 -287.786)" fill="#ffbe9d"/>
        <path id="Trazado_561" data-name="Trazado 561" d="M360.33,280.487l5.616,29.057-18.655,3.173s-5.079-26.558-4.451-33.2a9.377,9.377,0,0,1,1.688-4.072l.117-.173C349.015,268.885,358.578,272.947,360.33,280.487Z" transform="translate(-342.786 -272.107)" fill="#65d6d0"/>
        <path id="Trazado_562" data-name="Trazado 562" d="M360.33,280.487l5.616,29.057-18.655,3.173s-5.079-26.558-4.451-33.2a9.377,9.377,0,0,1,1.688-4.072l.117-.173C349.015,268.885,358.578,272.947,360.33,280.487Z" transform="translate(-342.786 -272.107)" opacity="0.2"/>
        <g id="Grupo_900" data-name="Grupo 900" transform="translate(13.955 34.081)">
          <g id="Grupo_898" data-name="Grupo 898" transform="translate(0 6.37)">
            <path id="Trazado_563" data-name="Trazado 563" d="M362.967,349.04a4.393,4.393,0,0,0,3.674,2.248c11.876.687,53-19.08,50.422-21.373C416.024,327.693,357.705,338.879,362.967,349.04Z" transform="translate(-362.631 -329.63)" fill="#ffbe9d"/>
          </g>
          <g id="Grupo_899" data-name="Grupo 899" transform="translate(44.565)">
            <path id="Trazado_564" data-name="Trazado 564" d="M426.139,328.308l-.134-.864,1.232-1.7.011-.01,2.27-2.841a5.686,5.686,0,0,1,2.188-1.662l4.067-.659s1.038.731-1.106,1.68a4.533,4.533,0,0,0-1.522,1.738l2.228-.649,5.042-1.324c1.424-.314,3.025,6.216.773,7.8l-1.146.914c-1.746,1.011-2.909,2.12-4.912,2.373l-5.508.222Z" transform="translate(-426.005 -320.571)" fill="#ffbe9d"/>
          </g>
        </g>
      </g>
      <path id="Trazado_565" data-name="Trazado 565" d="M389.4,260.782l-.02,2.533c-1.871-1.832-5.1-5.027-5.1-5.027A18.2,18.2,0,0,0,389.4,260.782Z" transform="translate(-355.099 -222.571)" fill="#d7cfbb" style="mix-blend-mode: multiply;isolation: isolate"/>
      <path id="Trazado_566" data-name="Trazado 566" d="M386.633,255.947v.156a18.7,18.7,0,0,1-5.124-2.65c-2.961-2.63-6.547-10.619-6.547-10.619L376.95,242s2.1,5.787,6.04,5.709c3.76-.1,7.52-2.221,9.722-.974C392.907,253.239,392.031,257.35,386.633,255.947Z" transform="translate(-352.335 -217.737)" fill="#263238"/>
      <path id="Trazado_567" data-name="Trazado 567" d="M392,253.724a5.78,5.78,0,0,1,3.69-1.146A2.8,2.8,0,0,1,397.407,254S394.061,256.085,392,253.724Z" transform="translate(-357.391 -220.874)" fill="#f9d8c7"/>
    </g>
    <path id="Trazado_570" data-name="Trazado 570" d="M625.5,243.826H483.241a3.164,3.164,0,0,1,0-6.329H625.5a3.164,3.164,0,0,1,0,6.329Z" transform="translate(-357.235 114.495)" fill="#fff"/>
    <path id="Trazado_571" data-name="Trazado 571" d="M785.8,243.826H730.044a3.164,3.164,0,0,1,0-6.329H785.8a3.164,3.164,0,0,1,0,6.329Z" transform="translate(-430.481 114.495)" fill="#fff"/>
  </g>
</svg>
