<svg xmlns="http://www.w3.org/2000/svg" xmlns:xlink="http://www.w3.org/1999/xlink" width="35" height="36" viewBox="0 0 35 36">
  <defs>
    <filter id="Elipse_149" x="0" y="0" width="35" height="36" filterUnits="userSpaceOnUse">
      <feOffset input="SourceAlpha"/>
      <feGaussianBlur stdDeviation="1" result="blur"/>
      <feFlood flood-opacity="0.161"/>
      <feComposite operator="in" in2="blur"/>
      <feComposite in="SourceGraphic"/>
    </filter>
  </defs>
  <g id="Grupo_938" data-name="Grupo 938" transform="translate(-376 -14)">
    <g transform="matrix(1, 0, 0, 1, 376, 14)" filter="url(#Elipse_149)">
      <g id="Elipse_149-2" data-name="Elipse 149" transform="translate(3 3)" fill="#65d6d0" stroke="#fff" stroke-width="2">
        <ellipse cx="14.5" cy="15" rx="14.5" ry="15" stroke="none"/>
        <ellipse cx="14.5" cy="15" rx="13.5" ry="14" fill="none"/>
      </g>
    </g>
    <g id="alarm" transform="translate(383.721 22.671)">
      <g id="Grupo_921" data-name="Grupo 921" transform="translate(0 0)">
        <g id="Grupo_920" data-name="Grupo 920">
          <path id="Trazado_587" data-name="Trazado 587" d="M77.095,29.926V28.7A5.737,5.737,0,0,0,73,23.211V22.97a1.637,1.637,0,1,0-3.274,0v.241A5.737,5.737,0,0,0,65.637,28.7v1.228c0,2.724-.641,3.681-1.109,4.38A2.317,2.317,0,0,0,64,35.655c0,1.334,2.781,1.8,5.036,1.963a2.438,2.438,0,0,0,4.66,0c2.255-.161,5.036-.629,5.036-1.963a2.317,2.317,0,0,0-.527-1.349C77.736,33.608,77.095,32.651,77.095,29.926Zm-4.911-6.891a5.156,5.156,0,0,0-1.637,0V22.97a.818.818,0,0,1,1.637,0Z" transform="translate(-61.545 -21.333)" fill="#fff"/>
          <path id="Trazado_588" data-name="Trazado 588" d="M479.294,171.445a.409.409,0,0,0-.777.259,8.493,8.493,0,0,1,0,5.432.409.409,0,0,0,.777.259,9.319,9.319,0,0,0,0-5.95Z" transform="translate(-460.139 -165.417)" fill="#fff"/>
          <path id="Trazado_589" data-name="Trazado 589" d="M438.338,184.685a.41.41,0,0,0-.259.518,6.89,6.89,0,0,1,0,4.4.41.41,0,0,0,.259.518.418.418,0,0,0,.129.021.409.409,0,0,0,.388-.28,7.71,7.71,0,0,0,0-4.915A.411.411,0,0,0,438.338,184.685Z" transform="translate(-421.253 -178.399)" fill="#fff"/>
          <path id="Trazado_590" data-name="Trazado 590" d="M.818,174.44a8.569,8.569,0,0,1,.445-2.716.409.409,0,0,0-.777-.259,9.327,9.327,0,0,0,0,5.95.409.409,0,0,0,.777-.259A8.565,8.565,0,0,1,.818,174.44Z" transform="translate(0 -165.437)" fill="#fff"/>
          <path id="Trazado_591" data-name="Trazado 591" d="M43.846,189.6a6.888,6.888,0,0,1,0-4.4.409.409,0,1,0-.777-.258,7.711,7.711,0,0,0,0,4.915.409.409,0,0,0,.388.28.417.417,0,0,0,.129-.021A.41.41,0,0,0,43.846,189.6Z" transform="translate(-41.03 -178.394)" fill="#fff"/>
        </g>
      </g>
    </g>
  </g>
</svg>
