<svg xmlns="http://www.w3.org/2000/svg" width="197.206" height="175.049" viewBox="0 0 197.206 175.049">
  <g id="Grupo_938" data-name="Grupo 938" transform="translate(-110.012 -44.892)">
    <g id="OBJECTS" transform="translate(-64.692 -36.524)">
      <ellipse id="XMLID_738_" cx="57.437" cy="5.112" rx="57.437" ry="5.112" transform="translate(257.037 220.4)" fill="#6795ff" opacity="0.3"/>
      <g id="Grupo_94" data-name="Grupo 94" transform="translate(274.637 88.914)">
        <path id="Trazado_213" data-name="Trazado 213" d="M439.814,163.419V110.848a17.633,17.633,0,0,0-1.138-6.44c-2.026-5.239-6.409-8.535-11.47-8.539q-23.731-.023-47.461,0A10.866,10.866,0,0,0,372.6,98.45,15.074,15.074,0,0,0,367.2,110.6q-.038,52.819.018,105.635a18.573,18.573,0,0,0,.739,5.027c1.8,6.277,6.46,9.713,12.965,9.715q22.994,0,45.987,0a11.579,11.579,0,0,0,9.148-4.2,15.78,15.78,0,0,0,3.748-10.7Q439.821,189.752,439.814,163.419ZM428.705,102.31a2.115,2.115,0,0,1,2.124,2.115,2.139,2.139,0,0,1-2.13,2.121,2.118,2.118,0,0,1,.006-4.235Zm-40.191,1.944a5.313,5.313,0,0,1,1.26-.554,21.387,21.387,0,0,1,3.31-.356q10.415-.048,20.831,0a21.643,21.643,0,0,1,3.312.356,5.389,5.389,0,0,1,1.26.552c0,.114,0,.23,0,.344a6.927,6.927,0,0,1-1.451.6,16.89,16.89,0,0,1-2.826.279q-10.66.033-21.32,0a17.786,17.786,0,0,1-2.924-.279,6.911,6.911,0,0,1-1.453-.6v-.344Zm15.009,121.5a4.567,4.567,0,1,1,4.542-4.542A4.521,4.521,0,0,1,403.524,225.757Zm31.426-12.419a5.291,5.291,0,0,1-3.495,1.04q-22.891-.018-45.782-.008c-3.44,0-6.876.008-10.316,0a4.916,4.916,0,0,1-5.216-5.244q-.006-47.5,0-95a4.99,4.99,0,0,1,5.352-5.336q27.852-.006,55.7,0c3.683,0,5.654,1.957,5.654,5.621q0,23.628,0,47.256t.008,47.255A5.272,5.272,0,0,1,434.949,213.338Z" transform="translate(-367.188 -95.858)" fill="#263238"/>
        <path id="XMLID_1075_" d="M434.55,133.7H388.307a1.539,1.539,0,0,1-1.534-1.534h0a1.539,1.539,0,0,1,1.534-1.534H434.55a1.539,1.539,0,0,1,1.534,1.534h0A1.538,1.538,0,0,1,434.55,133.7Z" transform="translate(-376.605 -112.576)" fill="#65d6d0" opacity="0.4"/>
        <path id="XMLID_1081_" d="M434.55,141.837H388.307a1.539,1.539,0,0,1-1.534-1.534h0a1.539,1.539,0,0,1,1.534-1.534H434.55a1.539,1.539,0,0,1,1.534,1.534h0A1.538,1.538,0,0,1,434.55,141.837Z" transform="translate(-376.605 -116.491)" fill="#65d6d0" opacity="0.4"/>
        <path id="XMLID_1085_" d="M434.55,281.382H388.307a1.539,1.539,0,0,1-1.534-1.534h0a1.539,1.539,0,0,1,1.534-1.534H434.55a1.539,1.539,0,0,1,1.534,1.534h0A1.538,1.538,0,0,1,434.55,281.382Z" transform="translate(-376.605 -183.588)" fill="#65d6d0" opacity="0.4"/>
        <path id="XMLID_1082_" d="M434.55,292.415H388.307a1.539,1.539,0,0,1-1.534-1.534h0a1.539,1.539,0,0,1,1.534-1.534H434.55a1.539,1.539,0,0,1,1.534,1.534h0A1.538,1.538,0,0,1,434.55,292.415Z" transform="translate(-376.605 -188.893)" fill="#65d6d0" opacity="0.4"/>
        <path id="XMLID_1092_" d="M434.55,303.447H388.307a1.539,1.539,0,0,1-1.534-1.534h0a1.539,1.539,0,0,1,1.534-1.534H434.55a1.539,1.539,0,0,1,1.534,1.534h0A1.538,1.538,0,0,1,434.55,303.447Z" transform="translate(-376.605 -194.197)" fill="#65d6d0" opacity="0.4"/>
        <path id="XMLID_1099_" d="M434.55,314.48H388.307a1.539,1.539,0,0,1-1.534-1.534h0a1.539,1.539,0,0,1,1.534-1.534H434.55a1.539,1.539,0,0,1,1.534,1.534h0A1.538,1.538,0,0,1,434.55,314.48Z" transform="translate(-376.605 -199.502)" fill="#65d6d0" opacity="0.4"/>
      </g>
      <g id="XMLID_86_" transform="translate(332.545 173.917)">
        <path id="XMLID_130_" d="M487.913,262.061a.537.537,0,0,1-.311.148.563.563,0,0,1-.107,0,.534.534,0,0,1-.35-.164,5.072,5.072,0,0,0-2.255-1.146,9.438,9.438,0,0,0-5.444.409.544.544,0,0,1-.35-1.03,10.447,10.447,0,0,1,6.149-.41,6.271,6.271,0,0,1,2.6,1.344c.043.038.07.066.079.075A.545.545,0,0,1,487.913,262.061Z" transform="translate(-478.728 -259.586)" fill="#263238"/>
      </g>
      <path id="XMLID_82_" d="M493.553,261.482c-.085.347-.17.689-.244.993a.563.563,0,0,1-.107,0,.534.534,0,0,1-.35-.164,5.071,5.071,0,0,0-2.255-1.146,1.153,1.153,0,0,1,.377-.318,2.39,2.39,0,0,1-.022-.713A6.268,6.268,0,0,1,493.553,261.482Z" transform="translate(-151.89 -85.934)" fill="#2f539b" opacity="0.5"/>
      <path id="XMLID_78_" d="M493.293,262.285c-.091.37-.18.736-.259,1.057a8.42,8.42,0,0,0-2.981-.387,1.343,1.343,0,0,1,.413-1.107A9.8,9.8,0,0,1,493.293,262.285Z" transform="translate(-151.627 -86.756)" fill="#2f539b" opacity="0.5"/>
      <path id="XMLID_330_" d="M246.377,389.974c2.632-.789,4.126-1.682,4.126-2.628,0-3.2-16.968-5.793-37.9-5.793s-37.9,2.594-37.9,5.793c0,2.14,7.594,4.007,18.883,5.011-2.633.789-4.126,1.682-4.126,2.628,0,3.2,16.968,5.793,37.9,5.793s37.9-2.594,37.9-5.793C265.26,392.845,257.665,390.978,246.377,389.974Z" transform="translate(0 -144.314)" fill="#65d6d0" opacity="0.3"/>
      <path id="XMLID_1978_" d="M246.787,189.551a144.794,144.794,0,0,1-18.043.62c-1.109-.02-2.167-.059-3.179-.111a50,50,0,0,1-12.455-1.984,19.8,19.8,0,0,1-4.759-2.148,31.126,31.126,0,0,1,1.2-4.132l2.742.17a7.56,7.56,0,0,1-.078-2.291l33.619,2.121S246.318,184.922,246.787,189.551Z" transform="translate(-16.179 -47.245)" fill="#2f539b" opacity="0.5"/>
      <g id="Grupo_96" data-name="Grupo 96" transform="translate(177.039 81.416)">
        <path id="XMLID_2124_" d="M193.077,90.319a11.222,11.222,0,0,1-.327,1.175,6.723,6.723,0,0,0-.186,1.2c-.145,1.918-2.883,4.219-3.254,5.108a7.834,7.834,0,0,0-.221,2.044,16.779,16.779,0,0,0,.206,3.882c-.306.211-6.252,4.309-6.634,4.816.035-.377-.216-2.893-.452-5.906-.321-4.2-.622-9.361-.08-11.054.964-3.034,2.446-2.666,2.446-2.666,1.7-1.255,2.069-1.255,2.069-1.255,1.7-.964,2.441-.592,2.441-.592l.668-.517c2-.668,3.184,1.251,3.329,2.812A3.65,3.65,0,0,1,193.077,90.319Z" transform="translate(-180.466 -83.821)" fill="#ffbe9d"/>
        <path id="XMLID_2011_" d="M189.648,116.166c-.308.213-6.252,4.31-6.637,4.819.036-.379-.213-2.9-.45-5.909a18.594,18.594,0,0,1,6.88-2.789A16.637,16.637,0,0,0,189.648,116.166Z" transform="translate(-180.817 -96.26)" fill="#eb996e"/>
        <path id="XMLID_2028_" d="M180.438,121.514l-.784-2.835a17.656,17.656,0,0,1,9.322-3.841l.784,2.973Z" transform="translate(-179.419 -97.486)" fill="#fff"/>
        <path id="XMLID_1977_" d="M242.463,120.051a1,1,0,0,1-.018-.71c.154-.271.959-.574.959-.574l6.55-.753-.345,1.956-5.451,1.748s-1.862-.91-1.852-.91S242.463,120.051,242.463,120.051Z" transform="translate(-209.544 -99.013)" fill="#999"/>
        <path id="XMLID_2047_" d="M250.161,117.155a35.441,35.441,0,0,1-4.472,16.085c-2.6-7.343-2.546-16.961-2.546-16.961s-.032-1.935-.023-3.673a11.742,11.742,0,0,1,.166-2.694l6.693.151.12,4.679Z" transform="translate(-209.935 -95.118)" fill="#ffbe9d"/>
        <path id="XMLID_2037_" d="M250.1,114.742a10.032,10.032,0,0,1-6.98-2.136,11.742,11.742,0,0,1,.166-2.694l6.693.151Z" transform="translate(-209.936 -95.118)" fill="#eb996e"/>
        <g id="XMLID_2050_" transform="translate(29.888 1.968)">
          <path id="XMLID_2065_" d="M258.117,93.869s.935-6.787-5.153-8.18l.427,7.7Z" transform="translate(-244.557 -85.438)" fill="#263238"/>
          <path id="XMLID_2062_" d="M259.662,103.2a1.376,1.376,0,0,0,.692-.047c1.3-.4,2.278-2.478,1.519-3.174a.924.924,0,0,0-.522-.262c-.684-.1-1.249.717-1.249.717Z" transform="translate(-247.778 -92.176)" fill="#db9c94"/>
          <path id="XMLID_2061_" d="M259.662,103.2a1.376,1.376,0,0,0,.692-.047,11.191,11.191,0,0,0,1-3.436c-.684-.1-1.249.717-1.249.717Z" transform="translate(-247.778 -92.176)" fill="#db9c94"/>
          <path id="XMLID_2048_" d="M237.905,94.716c-.084,4.146,2.483,7.557,5.733,7.622s5.954-3.238,6.038-7.383a8.483,8.483,0,0,0-1.9-5.691c-.02-.026-.045-.052-.065-.078a4.979,4.979,0,0,0-7.794.042,7.974,7.974,0,0,0-1.744,3.42A9.132,9.132,0,0,0,237.905,94.716Z" transform="translate(-237.315 -86.226)" fill="#ffbe9d"/>
          <path id="XMLID_1970_" d="M238.431,94.368a15.819,15.819,0,0,0,9.38-1.514l.222-1.87.007-.077-.072,0-7.794.042A7.981,7.981,0,0,0,238.431,94.368Z" transform="translate(-237.569 -87.947)" fill="#db9c94"/>
          <path id="XMLID_1924_" d="M237.468,88.319s-.311-.484.359-1.5c.794-1.2,3.077-1.7,5.4-1.606l.03,0c3.841-.168,7.277,3.552,6.435,8.726a17.844,17.844,0,0,1-1.154,3.369l-1.467-1a9.348,9.348,0,0,0,1.119-2.6,9.972,9.972,0,0,0,.043-2.1,3.132,3.132,0,0,1-2.059-1.584,9.084,9.084,0,0,1-3.243.611l0,0C233.893,91.492,237.468,88.319,237.468,88.319Z" transform="translate(-236.771 -85.206)" fill="#263238"/>
        </g>
        <path id="XMLID_2026_" d="M185.853,127.148c-.01-.005-.005-.021.01-.042C185.863,127.137,185.858,127.153,185.853,127.148Z" transform="translate(-182.397 -103.385)" fill="#fff" stroke="#231f20" stroke-miterlimit="10" stroke-width="0.77"/>
        <path id="XMLID_2023_" d="M185.853,127.148c-.01-.005-.005-.021.01-.042C185.863,127.137,185.858,127.153,185.853,127.148Z" transform="translate(-182.397 -103.385)" fill="#fff" stroke="#231f20" stroke-miterlimit="10" stroke-width="0.77"/>
        <path id="XMLID_2009_" d="M205.927,120.8l-3.681,4.716-2.73,14.95a29.01,29.01,0,0,1-6.692,2.512c-2.564.546-5.159.473-6.354-1.471C183.7,137,179.2,122.972,179.2,122.972c3.728-3.983,10.577-4.68,10.577-4.68.952,2.948,3.451,11,3.451,11s-.01.655,2.08-1.5a54.9,54.9,0,0,1,6.354-5.673,22.68,22.68,0,0,1,2.9-1.934Z" transform="translate(-179.202 -99.147)" fill="#65d6d0"/>
        <path id="XMLID_2008_" d="M218.543,122.557l-3.681,4.716-2.73,14.95a29.009,29.009,0,0,1-6.692,2.512,54.715,54.715,0,0,1,3.526-12.392,28.5,28.5,0,0,1,5.314-8.471,22.683,22.683,0,0,1,2.9-1.934Z" transform="translate(-191.818 -100.9)" fill="#65d6d0" opacity="0.5"/>
        <path id="XMLID_2005_" d="M291.151,83.317a2.191,2.191,0,0,0-1.38-1.843c-1.38-.457-2.371,1.843-1.38,5.417Z" transform="translate(-231.51 -81.416)" fill="#db9c94"/>
        <path id="XMLID_1915_" d="M291.151,83.317a2.191,2.191,0,0,0-1.38-1.843c-1.38-.457-2.371,1.843-1.38,5.417Z" transform="translate(-231.51 -81.416)" fill="#eb996e"/>
        <path id="XMLID_2004_" d="M299.533,105.757a13.434,13.434,0,0,1-7.218.458l-1.031-5.05-1.059-5.208a5.842,5.842,0,0,1-1.427-3.652,26.275,26.275,0,0,1,.425-3.114c.085-.979-1.432-1.364-1.155-2.485s.283-2.689,1.936-3.629,3.114-2.219,4.857-1.132,1.795,1.93,3.284,3.255-.261,3.487-.968,5.611c-.685,2.05-.4,7.79-.039,8.951a1.113,1.113,0,0,0,.039.107C297.552,100.718,299.533,105.757,299.533,105.757Z" transform="translate(-231.532 -81.47)" fill="#ffbe9d"/>
        <path id="XMLID_2003_" d="M302.543,122.644a13.434,13.434,0,0,1-7.218.458l-1.031-5.05a15.691,15.691,0,0,0,5.854-1.4,1.113,1.113,0,0,0,.039.107C300.561,117.606,302.543,122.644,302.543,122.644Z" transform="translate(-234.541 -98.357)" fill="#eb996e"/>
        <path id="XMLID_2001_" d="M197.627,228.455a34.118,34.118,0,0,1,4.226-1.313,46.708,46.708,0,0,1,7.864-1.157l5.07-16.9h-11.57Z" transform="translate(-188.061 -142.803)" fill="#333"/>
        <path id="XMLID_2000_" d="M239.319,375.529s-1.213,1.993-4.853,3.206-5.287,1.906-5.373,4.333,14.56.693,19.5,0l1.82-.52-2.349-7.367Z" transform="translate(-203.191 -222.666)" fill="#231f20"/>
        <path id="XMLID_1998_" d="M242.385,300.577H230.1l-1.217-3.64a89.159,89.159,0,0,1-6.131-14.69c-2.08-7.15-8.19-28.6-8.97-43.29a68.884,68.884,0,0,1,1.342-19.068,24.81,24.81,0,0,1,.957-3.292l2.184.135,10.337.645s.078,2.018.234,5.8c.047,1.357.109,2.948.187,4.753.1,2.46.219,5.319.359,8.554.52,12.22,6.24,30.55,7.8,41.21A192.644,192.644,0,0,0,242.385,300.577Z" transform="translate(-195.769 -146.415)" fill="#333"/>
        <path id="XMLID_1997_" d="M248.719,309.163h-10.9c-4.04-14.763-10.036-47.611-10.681-55.208a165.47,165.47,0,0,1,0-19.5l8.221,2.064c.1,2.46.219,5.319.359,8.554.52,12.22,6.24,30.55,7.8,41.21A192.625,192.625,0,0,0,248.719,309.163Z" transform="translate(-202.104 -155.001)" fill="#65d6d0" opacity="0.5"/>
        <path id="XMLID_1980_" d="M254.412,386.143c-.52.26-.923,3.77-4.362,7.41s-3.959,6.24-1.359,6.89,8.19.13,14.17-5.2a8.224,8.224,0,0,0,3.02-1.839c.75-1.021.75-5.83-1.2-8.04S254.412,386.143,254.412,386.143Z" transform="translate(-211.826 -227.17)" fill="#231f20"/>
        <path id="XMLID_1_" d="M255.269,303.953c-4.914,3.77-12.9,1.95-12.9,1.95a75.259,75.259,0,0,1-3.411-6.89,35.694,35.694,0,0,1-2.829-9.23c-.78-6.63-6.89-37.18-9.36-53.69-1.1-7.363-1.893-12.527-2.407-16.058-.322-2.221-.541-3.8-.65-4.867a6.011,6.011,0,0,1-.062-1.825l26.78,1.69s.385,2.491.759,6.178a121.391,121.391,0,0,1,.671,13.452c-.13,9.62-3.64,28.73-2.527,34.45s.837,17.94,3.437,24.7S255.269,303.953,255.269,303.953Z" transform="translate(-200.552 -144.85)" fill="#333"/>
        <path id="XMLID_2115_" d="M249.109,127.664c-.517,3.38-3.767,23.272-2.727,28.47s.387,12.872,0,16.508-22.619,2.471-27.692,1.692-4.68-1.3-4.68-1.3c-1.818-2.732-2.858-8.322,0-19.5s3.124-24.568,6.112-27.431a12.171,12.171,0,0,1,4.615-2.541,20.25,20.25,0,0,1,3.832-.838s3.6-.447,7.5-.673c.793-.045,1.6-.085,2.386-.105C243.133,121.813,249.631,124.284,249.109,127.664Z" transform="translate(-195.085 -100.901)" fill="#fff"/>
        <path id="XMLID_2112_" d="M243.588,133.4l-2.848-4.9-4.143-.713s-2.245.593-2.421.7c.05-.221.607-2.647,1.11-4.821a20.249,20.249,0,0,1,3.832-.838s.534,1.44,1.413,1.346c1.4-.151,3.686-1.88,6.085-2.019a27.559,27.559,0,0,0,1.637,2.235C248.479,124.5,243.588,133.4,243.588,133.4Z" transform="translate(-205.635 -101.002)" fill="#65d6d0" opacity="0.5"/>
        <path id="XMLID_1976_" d="M273.057,191.189a121.741,121.741,0,0,1-13,2.08c-5.918.52-10.207,4.222-12.693,1.883s-4.207-14.04-4.207-18.262-2.34-19.11-1.7-23.14c.26-1.586.431-2.917.738-4.581a113.97,113.97,0,0,1,3.162-12.189c3.12-10.332,5.984-14.817,5.984-14.817l3.164-.037s11.126-.184,12.307,1.2c1.29,1.524-.093,7.035-.276,12.875-.031.9-.026,1.815.016,2.725a52.03,52.03,0,0,1-.952,9.6c-.749,4.847-1.43,9.838-.026,13.6C267.982,168.569,273.057,191.189,273.057,191.189Z" transform="translate(-209.084 -100.986)" fill="#65d6d0"/>
        <path id="XMLID_1974_" d="M283.222,149.328A20.142,20.142,0,0,1,278,136.656c-.229-10.4,4.259-12.875,4.259-12.875s.551,2.3.743,2.189l-.78,4.462,1.94,6.573c-.031.9-.026,1.815.016,2.725A52.039,52.039,0,0,1,283.222,149.328Z" transform="translate(-226.701 -101.786)" fill="#65d6d0" opacity="0.5"/>
        <path id="XMLID_2059_" d="M255.512,120.756c-2.049-.557-5.474-1.54-5.474-1.54a112.116,112.116,0,0,1-3.887,16.368,114.093,114.093,0,0,0-3.162,12.189c1.186-1.529,3.047-3.874,5.439-6.661a48.887,48.887,0,0,0,6.63-10.078l-1.753-2.142,2.662-1.107C256.026,124.854,255.234,122.364,255.512,120.756Z" transform="translate(-209.872 -99.591)" fill="#65d6d0" opacity="0.5"/>
        <path id="XMLID_2068_" d="M218.849,123.438c-.492.889-7.478,13.716-9.3,19.893-.331,1.135-.658,2.411-.964,3.782a135.014,135.014,0,0,0-2.677,18.381c-.321,5.464-.452,9.035-2.471,14.042s-5.78,10.27-6.564,9.878-2.406-3.38-1.17-7.8S200,159.451,200,159.451s1.758-13.781,4.078-22.3,6.067-14.755,8.211-15.538,7.055,0,7.055,0-.005.134,0,.264A3.326,3.326,0,0,1,218.849,123.438Z" transform="translate(-186.923 -100.577)" fill="#65d6d0"/>
        <path id="XMLID_2066_" d="M231.195,123.956c-.492.889-7.478,13.716-9.3,19.893-.331,1.135-.658,2.411-.964,3.782.211-7.207,3.52-17.467,3.52-17.467l2.807-1.572-.924-1.125c1.456-1.5,3.9-3.857,5.213-5.123A3.027,3.027,0,0,1,231.195,123.956Z" transform="translate(-199.268 -101.095)" fill="#65d6d0" opacity="0.5"/>
        <path id="XMLID_1921_" d="M240.051,119.341c-.26-.065-2.928,5.676-2.71,5.588.975-.39,3.815-3.378,3.815-3.378l2.795,6.11,5.252-7.778-1.694-1.87s-4.429,2.923-5.911,2.711A1.605,1.605,0,0,1,240.051,119.341Z" transform="translate(-207.151 -99.013)" fill="#fff"/>
        <path id="XMLID_2116_" d="M233.47,132.46c-.522,4.264-2.486,13.665-3.259,19.571-.909,6.956-1.627,19.044-1.627,19.175s-4.55,4.877-4.55,4.877l-3.119-5.72a148.882,148.882,0,0,1,2.406-16.508c1.577-8.061,5.976-18.255,7.593-21.831.372-.838.6-1.311.6-1.311h2.079A12.686,12.686,0,0,1,233.47,132.46Z" transform="translate(-199.259 -105.119)" fill="#65d6d0"/>
        <path id="XMLID_2069_" d="M242.73,132.459l-2.556-.437c.372-.838.6-1.311.6-1.311h2.079A12.581,12.581,0,0,1,242.73,132.459Z" transform="translate(-208.519 -105.118)" fill="#65d6d0" opacity="0.5"/>
        <path id="XMLID_1914_" d="M241.283,124.005a14.641,14.641,0,0,0-2.126,3.442c-.235.7,2.1.741,3.544.7a.943.943,0,0,0,.905-1.12,8.511,8.511,0,0,0-.907-2.825A.984.984,0,0,0,241.283,124.005Z" transform="translate(-208.022 -101.788)" fill="#65d6d0"/>
        <path id="XMLID_1894_" d="M297.773,147.683a1.84,1.84,0,0,1-.13.213c-.832,1.1-3.495,1.508-6.131,1.472-2.616-.026-5.205-.494-5.959-1.165a22.536,22.536,0,0,1-6.24-16.12c.437-8.231,4.29-9.391,4.493-9.319,0,0,1.836-.733,4.347,2.158s1.82,11.58,5.2,13.489S298.989,145.255,297.773,147.683Z" transform="translate(-227.326 -101.258)" fill="#65d6d0"/>
        <path id="XMLID_1884_" d="M303.172,149.808c-.832,1.1-3.495,1.508-6.131,1.472a10.357,10.357,0,0,1-4.311-5.065c-3.51-8.19-1.2-19.76-1.2-19.76l1.846,3.962s7.249,16.12,7.54,16.12A22.169,22.169,0,0,1,303.172,149.808Z" transform="translate(-232.854 -103.072)" fill="#65d6d0" opacity="0.5"/>
        <path id="XMLID_1499_" d="M292.872,122.974l-.71-2.824a28.579,28.579,0,0,0,8.182-1.206l.8,2.9A12.2,12.2,0,0,1,292.872,122.974Z" transform="translate(-233.516 -99.46)" fill="#fff"/>
        <path id="XMLID_172_" d="M292.253,122.741c-.019-.008-.941,17.159,3.566,22.359s9.273,3.38,9.446,0,1.04-9.62-1.473-16.553l-2.513-6.933S298.133,125.255,292.253,122.741Z" transform="translate(-233.516 -100.744)" fill="#65d6d0"/>
        <path id="XMLID_2113_" d="M196.805,91.657a11.219,11.219,0,0,1-.327,1.175,13.9,13.9,0,0,1-.552-2.009c-.141-.452-.351-.974-.814-1.09a.931.931,0,0,0-.9.347,2.189,2.189,0,0,0-.4.934,7.059,7.059,0,0,0-.171,1.557,3.526,3.526,0,0,0-1.717.914c-.3.346-.482.823-.9,1.014-.457.211-1.075,0-1.441.342a1.817,1.817,0,0,1,.934-.829,1.224,1.224,0,0,0,.552-.291,1.789,1.789,0,0,0,.2-.457c.3-.658,1.281-.774,1.577-1.437a2.53,2.53,0,0,0,.136-.618A2.691,2.691,0,0,1,194,89.573a1.443,1.443,0,0,1,1.773-.115,1.942,1.942,0,0,1,.447.794C196.378,90.7,196.609,91.18,196.805,91.657Z" transform="translate(-184.194 -85.159)" fill="#eb996e"/>
      </g>
    </g>
    <g id="Grupo_885" data-name="Grupo 885" transform="translate(171.441 -44.529)">
      <path id="Trazado_13" data-name="Trazado 13" d="M205.369,224.083A18.159,18.159,0,1,0,187.2,242.262,18.03,18.03,0,0,0,205.369,224.083Z" transform="translate(-113.052 -74.544)" fill="#65d6d0"/>
      <path id="Trazado_14" data-name="Trazado 14" d="M245.31,256.232s-4.264,2.235-5.188,2.818a.243.243,0,0,0-.108.268c.067.818.339,4.142.428,5.755,0,0,.058.491,1.01-.159l4.125-2.741a.306.306,0,0,0,.169-.266l.1-5.488S245.821,256.022,245.31,256.232Z" transform="translate(-166.594 -112.49)" fill="#fdfdfd"/>
      <path id="Trazado_15" data-name="Trazado 15" d="M204.44,276.014s.03,8.253,3.681,12.349c0,0,.266.356.741-.053,0,0,4.1-3.164,4.753-3.76a40.062,40.062,0,0,1-1.813-12.611s.02-.424-.611-.126S206.188,274.89,204.44,276.014Z" transform="translate(-139.755 -124.213)" fill="#fdfdfd"/>
      <path id="Trazado_16" data-name="Trazado 16" d="M205.191,237.385a37.064,37.064,0,0,0-.756,6.641s.147.435.825,0a119.424,119.424,0,0,1,10.816-6.207s.45-4.381.763-5.859c0,0,.134-.449-1-.058A53.367,53.367,0,0,0,205.191,237.385Z" transform="translate(-139.751 -94.057)" fill="#f2f2f2"/>
      <path id="Trazado_17" data-name="Trazado 17" d="M257.689,226.526c-.074.647-.446,3.952-.439,5.313,0,0-.035.615.495.336.475-.249,3.515-1.726,4.264-2.079a.284.284,0,0,0,.169-.224c.04-.714.213-3.767.305-4.518,0,0,.056-.423-.808-.161-.82.249-2.7.688-3.807,1.15C257.811,226.367,257.709,226.391,257.689,226.526Z" transform="translate(-179.604 -89.05)" fill="#f2f2f2"/>
    </g>
  </g>
</svg>
