<svg xmlns="http://www.w3.org/2000/svg" width="118.688" height="118.688" viewBox="0 0 118.688 118.688">
  <g id="Grupo_939" data-name="Grupo 939" transform="translate(-263.312 -395.054)">
    <g id="Grupo_938" data-name="Grupo 938">
      <rect id="Rectángulo_1560" data-name="Rectángulo 1560" width="118.688" height="118.688" rx="24.697" transform="translate(263.312 395.054)" fill="#65d6d0"/>
    </g>
    <path id="Trazado_572" data-name="Trazado 572" d="M78.5-69.382a10.68,10.68,0,0,1-2.11-.21,21.313,21.313,0,0,0,.491-4.643,4.858,4.858,0,0,0-4.852-4.852,4.858,4.858,0,0,0-4.852,4.852c0,2.659,2.126,5.167,5.179,6.664a14.055,14.055,0,0,1-1.6,2.776c-3.946-6.53-11.626-11.512-21-13.425a46.357,46.357,0,0,0-6.844-.868,48.677,48.677,0,0,0-7.419.4A37.8,37.8,0,0,0,20.679-73.5a11.234,11.234,0,0,0-6.886-2.349,1.614,1.614,0,0,0-1.615,1.619,11.2,11.2,0,0,0,1.946,6.278,21.456,21.456,0,0,0-4.5,8.279H8.94A6.473,6.473,0,0,0,2.473-53.21a10.309,10.309,0,0,0,4.878,8.795l11.3,7.037v8.434a1.613,1.613,0,0,0,1.615,1.615h6.471a1.618,1.618,0,0,0,1.447-.893l1.912-3.829a43.059,43.059,0,0,0,22.4,0L54.4-28.223a1.618,1.618,0,0,0,1.447.893H62.32a1.613,1.613,0,0,0,1.615-1.615v-8.568c6.182-4.546,9.709-10.812,9.709-17.312a18.639,18.639,0,0,0-1.313-6.786,17.093,17.093,0,0,0,3.083-4.882,14.085,14.085,0,0,0,3.083.344,1.616,1.616,0,0,0,1.615-1.619A1.613,1.613,0,0,0,78.5-69.382Zm-36,22.869-.122.034v1.3a.833.833,0,0,1-.83.835h-.365a.834.834,0,0,1-.851-.818V-46.42l-.13-.034a7.209,7.209,0,0,1-2.269-1.137.834.834,0,0,1-.2-1.166v-.025L38-49.176a.828.828,0,0,1,1.153-.235l.038.025a4.151,4.151,0,0,0,2.068.856,1.433,1.433,0,0,0,1.17-.432,1.281,1.281,0,0,0,.239-.822c0-.965-.742-1.388-1.95-2.009a7.41,7.41,0,0,1-1.862-1.191,3.092,3.092,0,0,1-.721-.939,3.193,3.193,0,0,1-.264-1.321,3.231,3.231,0,0,1,2.357-3.217l.122-.034v-1.3a.831.831,0,0,1,.826-.839h.365a.839.839,0,0,1,.839.839v1.271l.134.029a3.789,3.789,0,0,1,1.912.99l.046.046a.835.835,0,0,1,.034,1.137l-.356.394a.842.842,0,0,1-1.137.092,2.591,2.591,0,0,0-1.552-.629,1.082,1.082,0,0,0-1.212.935,1.034,1.034,0,0,0-.008.2c0,.772.671,1.137,1.757,1.669a7.543,7.543,0,0,1,1.98,1.246,3.422,3.422,0,0,1,.751,1.074,3.734,3.734,0,0,1,.281,1.48A3.324,3.324,0,0,1,42.491-46.513ZM54.15-68.879a1.616,1.616,0,0,1-1.535,1.111,1.6,1.6,0,0,1-.5-.08,39.528,39.528,0,0,0-21.641,0,1.615,1.615,0,0,1-2.038-1.032,1.613,1.613,0,0,1,1.032-2.042,39.233,39.233,0,0,1,11.827-1.665,39.232,39.232,0,0,1,11.827,1.665A1.613,1.613,0,0,1,54.15-68.879Zm19.166-1.845c-1.8-1.023-2.911-2.433-2.911-3.51a1.62,1.62,0,0,1,1.619-1.619,1.62,1.62,0,0,1,1.619,1.619A18.5,18.5,0,0,1,73.317-70.724Z" transform="translate(282.248 503.112)" fill="#fff"/>
    <text id="Crear_un_ahorro" data-name="Crear un ahorro" transform="translate(276 498)" fill="#fff" font-size="12" font-family="Poppins-Medium, Poppins" font-weight="500"><tspan x="0" y="0">Crear un ahorro</tspan></text>
  </g>
</svg>
